<?xml version="1.0" encoding="utf-8" standalone="no"?>
<!DOCTYPE svg PUBLIC "-//W3C//DTD SVG 1.1//EN"
  "http://www.w3.org/Graphics/SVG/1.1/DTD/svg11.dtd">
<!-- Created with matplotlib (https://matplotlib.org/) -->
<svg height="284.543156pt" version="1.1" viewBox="0 0 333.29375 284.543156" width="333.29375pt" xmlns="http://www.w3.org/2000/svg" xmlns:xlink="http://www.w3.org/1999/xlink">
 <metadata>
  <rdf:RDF xmlns:cc="http://creativecommons.org/ns#" xmlns:dc="http://purl.org/dc/elements/1.1/" xmlns:rdf="http://www.w3.org/1999/02/22-rdf-syntax-ns#">
   <cc:Work>
    <dc:type rdf:resource="http://purl.org/dc/dcmitype/StillImage"/>
    <dc:date>2023-11-13T05:31:56.068931</dc:date>
    <dc:format>image/svg+xml</dc:format>
    <dc:creator>
     <cc:Agent>
      <dc:title>Matplotlib v3.3.4, https://matplotlib.org/</dc:title>
     </cc:Agent>
    </dc:creator>
   </cc:Work>
  </rdf:RDF>
 </metadata>
 <defs>
  <style type="text/css">*{stroke-linecap:butt;stroke-linejoin:round;}</style>
 </defs>
 <g id="figure_1">
  <g id="patch_1">
   <path d="M 0 284.543156 
L 333.29375 284.543156 
L 333.29375 0 
L 0 0 
z
" style="fill:#ffffff;"/>
  </g>
  <g id="axes_1">
   <g id="patch_2">
    <path d="M 43.78125 108.386906 
L 272.03125 108.386906 
L 272.03125 11.770906 
L 43.78125 11.770906 
z
" style="fill:#ffffff;"/>
   </g>
   <g id="patch_3">
    <path clip-path="url(#p21ed7078b9)" d="M 52.234954 108.386906 
L 60.688657 108.386906 
L 60.688657 96.62556 
L 52.234954 96.62556 
z
" style="fill:#bfbf00;"/>
   </g>
   <g id="patch_4">
    <path clip-path="url(#p21ed7078b9)" d="M 86.049769 108.386906 
L 94.503472 108.386906 
L 94.503472 91.281509 
L 86.049769 91.281509 
z
" style="fill:#bfbf00;"/>
   </g>
   <g id="patch_5">
    <path clip-path="url(#p21ed7078b9)" d="M 119.864583 108.386906 
L 128.318287 108.386906 
L 128.318287 91.00625 
L 119.864583 91.00625 
z
" style="fill:#bfbf00;"/>
   </g>
   <g id="patch_6">
    <path clip-path="url(#p21ed7078b9)" d="M 153.679398 108.386906 
L 162.133102 108.386906 
L 162.133102 91.955614 
L 153.679398 91.955614 
z
" style="fill:#bfbf00;"/>
   </g>
   <g id="patch_7">
    <path clip-path="url(#p21ed7078b9)" d="M 187.494213 108.386906 
L 195.947917 108.386906 
L 195.947917 86.303249 
L 187.494213 86.303249 
z
" style="fill:#bfbf00;"/>
   </g>
   <g id="patch_8">
    <path clip-path="url(#p21ed7078b9)" d="M 221.309028 108.386906 
L 229.762731 108.386906 
L 229.762731 77.71516 
L 221.309028 77.71516 
z
" style="fill:#bfbf00;"/>
   </g>
   <g id="patch_9">
    <path clip-path="url(#p21ed7078b9)" d="M 255.123843 108.386906 
L 263.577546 108.386906 
L 263.577546 82.096838 
L 255.123843 82.096838 
z
" style="fill:#bfbf00;"/>
   </g>
   <g id="patch_10">
    <path clip-path="url(#p21ed7078b9)" d="M 52.234954 96.62556 
L 60.688657 96.62556 
L 60.688657 90.398965 
L 52.234954 90.398965 
z
" style="fill:#00bfbf;"/>
   </g>
   <g id="patch_11">
    <path clip-path="url(#p21ed7078b9)" d="M 86.049769 91.281509 
L 94.503472 91.281509 
L 94.503472 79.484684 
L 86.049769 79.484684 
z
" style="fill:#00bfbf;"/>
   </g>
   <g id="patch_12">
    <path clip-path="url(#p21ed7078b9)" d="M 119.864583 91.00625 
L 128.318287 91.00625 
L 128.318287 87.939076 
L 119.864583 87.939076 
z
" style="fill:#00bfbf;"/>
   </g>
   <g id="patch_13">
    <path clip-path="url(#p21ed7078b9)" d="M 153.679398 91.955614 
L 162.133102 91.955614 
L 162.133102 82.096838 
L 153.679398 82.096838 
z
" style="fill:#00bfbf;"/>
   </g>
   <g id="patch_14">
    <path clip-path="url(#p21ed7078b9)" d="M 187.494213 86.303249 
L 195.947917 86.303249 
L 195.947917 77.101725 
L 187.494213 77.101725 
z
" style="fill:#00bfbf;"/>
   </g>
   <g id="patch_15">
    <path clip-path="url(#p21ed7078b9)" d="M 221.309028 77.71516 
L 229.762731 77.71516 
L 229.762731 31.707541 
L 221.309028 31.707541 
z
" style="fill:#00bfbf;"/>
   </g>
   <g id="patch_16">
    <path clip-path="url(#p21ed7078b9)" d="M 255.123843 82.096838 
L 263.577546 82.096838 
L 263.577546 68.951804 
L 255.123843 68.951804 
z
" style="fill:#00bfbf;"/>
   </g>
   <g id="patch_17">
    <path clip-path="url(#p21ed7078b9)" d="M 52.234954 90.398965 
L 60.688657 90.398965 
L 60.688657 84.864214 
L 52.234954 84.864214 
z
" style="fill:#008000;"/>
   </g>
   <g id="patch_18">
    <path clip-path="url(#p21ed7078b9)" d="M 86.049769 79.484684 
L 94.503472 79.484684 
L 94.503472 65.918335 
L 86.049769 65.918335 
z
" style="fill:#008000;"/>
   </g>
   <g id="patch_19">
    <path clip-path="url(#p21ed7078b9)" d="M 119.864583 87.939076 
L 128.318287 87.939076 
L 128.318287 66.468853 
L 119.864583 66.468853 
z
" style="fill:#008000;"/>
   </g>
   <g id="patch_20">
    <path clip-path="url(#p21ed7078b9)" d="M 153.679398 82.096838 
L 162.133102 82.096838 
L 162.133102 65.665546 
L 153.679398 65.665546 
z
" style="fill:#008000;"/>
   </g>
   <g id="patch_21">
    <path clip-path="url(#p21ed7078b9)" d="M 187.494213 77.101725 
L 195.947917 77.101725 
L 195.947917 55.018068 
L 187.494213 55.018068 
z
" style="fill:#008000;"/>
   </g>
   <g id="patch_22">
    <path clip-path="url(#p21ed7078b9)" d="M 221.309028 108.386906 
L 229.762731 108.386906 
L 229.762731 108.386906 
L 221.309028 108.386906 
z
" style="fill:#008000;"/>
   </g>
   <g id="patch_23">
    <path clip-path="url(#p21ed7078b9)" d="M 255.123843 68.951804 
L 263.577546 68.951804 
L 263.577546 55.80677 
L 255.123843 55.80677 
z
" style="fill:#008000;"/>
   </g>
   <g id="patch_24">
    <path clip-path="url(#p21ed7078b9)" d="M 52.234954 84.864214 
L 60.688657 84.864214 
L 60.688657 71.027336 
L 52.234954 71.027336 
z
" style="fill:#bf00bf;"/>
   </g>
   <g id="patch_25">
    <path clip-path="url(#p21ed7078b9)" d="M 86.049769 65.918335 
L 94.503472 65.918335 
L 94.503472 42.324684 
L 86.049769 42.324684 
z
" style="fill:#bf00bf;"/>
   </g>
   <g id="patch_26">
    <path clip-path="url(#p21ed7078b9)" d="M 119.864583 66.468853 
L 128.318287 66.468853 
L 128.318287 41.931457 
L 119.864583 41.931457 
z
" style="fill:#bf00bf;"/>
   </g>
   <g id="patch_27">
    <path clip-path="url(#p21ed7078b9)" d="M 153.679398 65.665546 
L 162.133102 65.665546 
L 162.133102 39.375478 
L 153.679398 39.375478 
z
" style="fill:#bf00bf;"/>
   </g>
   <g id="patch_28">
    <path clip-path="url(#p21ed7078b9)" d="M 187.494213 55.018068 
L 195.947917 55.018068 
L 195.947917 27.413497 
L 187.494213 27.413497 
z
" style="fill:#bf00bf;"/>
   </g>
   <g id="patch_29">
    <path clip-path="url(#p21ed7078b9)" d="M 221.309028 31.707541 
L 229.762731 31.707541 
L 229.762731 16.371668 
L 221.309028 16.371668 
z
" style="fill:#bf00bf;"/>
   </g>
   <g id="patch_30">
    <path clip-path="url(#p21ed7078b9)" d="M 255.123843 55.80677 
L 263.577546 55.80677 
L 263.577546 29.516702 
L 255.123843 29.516702 
z
" style="fill:#bf00bf;"/>
   </g>
   <g id="patch_31">
    <path clip-path="url(#p21ed7078b9)" d="M 52.234954 71.027336 
L 60.688657 71.027336 
L 60.688657 47.504643 
L 52.234954 47.504643 
z
" style="fill:#ff0000;"/>
   </g>
   <g id="patch_32">
    <path clip-path="url(#p21ed7078b9)" d="M 86.049769 42.324684 
L 94.503472 42.324684 
L 94.503472 28.168494 
L 86.049769 28.168494 
z
" style="fill:#ff0000;"/>
   </g>
   <g id="patch_33">
    <path clip-path="url(#p21ed7078b9)" d="M 119.864583 41.931457 
L 128.318287 41.931457 
L 128.318287 29.662758 
L 119.864583 29.662758 
z
" style="fill:#ff0000;"/>
   </g>
   <g id="patch_34">
    <path clip-path="url(#p21ed7078b9)" d="M 153.679398 39.375478 
L 162.133102 39.375478 
L 162.133102 29.516702 
L 153.679398 29.516702 
z
" style="fill:#ff0000;"/>
   </g>
   <g id="patch_35">
    <path clip-path="url(#p21ed7078b9)" d="M 187.494213 27.413497 
L 195.947917 27.413497 
L 195.947917 20.052278 
L 187.494213 20.052278 
z
" style="fill:#ff0000;"/>
   </g>
   <g id="patch_36">
    <path clip-path="url(#p21ed7078b9)" d="M 221.309028 108.386906 
L 229.762731 108.386906 
L 229.762731 108.386906 
L 221.309028 108.386906 
z
" style="fill:#ff0000;"/>
   </g>
   <g id="patch_37">
    <path clip-path="url(#p21ed7078b9)" d="M 255.123843 29.516702 
L 263.577546 29.516702 
L 263.577546 16.371668 
L 255.123843 16.371668 
z
" style="fill:#ff0000;"/>
   </g>
   <g id="patch_38">
    <path clip-path="url(#p21ed7078b9)" d="M 52.234954 47.504643 
L 60.688657 47.504643 
L 60.688657 16.371668 
L 52.234954 16.371668 
z
" style="fill:#0000ff;"/>
   </g>
   <g id="patch_39">
    <path clip-path="url(#p21ed7078b9)" d="M 86.049769 28.168494 
L 94.503472 28.168494 
L 94.503472 16.371668 
L 86.049769 16.371668 
z
" style="fill:#0000ff;"/>
   </g>
   <g id="patch_40">
    <path clip-path="url(#p21ed7078b9)" d="M 119.864583 29.662758 
L 128.318287 29.662758 
L 128.318287 16.371668 
L 119.864583 16.371668 
z
" style="fill:#0000ff;"/>
   </g>
   <g id="patch_41">
    <path clip-path="url(#p21ed7078b9)" d="M 153.679398 29.516702 
L 162.133102 29.516702 
L 162.133102 16.371668 
L 153.679398 16.371668 
z
" style="fill:#0000ff;"/>
   </g>
   <g id="patch_42">
    <path clip-path="url(#p21ed7078b9)" d="M 187.494213 20.052278 
L 195.947917 20.052278 
L 195.947917 16.371668 
L 187.494213 16.371668 
z
" style="fill:#0000ff;"/>
   </g>
   <g id="patch_43">
    <path clip-path="url(#p21ed7078b9)" d="M 221.309028 108.386906 
L 229.762731 108.386906 
L 229.762731 108.386906 
L 221.309028 108.386906 
z
" style="fill:#0000ff;"/>
   </g>
   <g id="patch_44">
    <path clip-path="url(#p21ed7078b9)" d="M 255.123843 108.386906 
L 263.577546 108.386906 
L 263.577546 108.386906 
L 255.123843 108.386906 
z
" style="fill:#0000ff;"/>
   </g>
   <g id="matplotlib.axis_1">
    <g id="xtick_1">
     <g id="line2d_1">
      <defs>
       <path d="M 0 0 
L 0 3.5 
" id="m45897af1e7" style="stroke:#000000;stroke-width:0.8;"/>
      </defs>
      <g>
       <use style="stroke:#000000;stroke-width:0.8;" x="56.461806" xlink:href="#m45897af1e7" y="108.386906"/>
      </g>
     </g>
     <g id="text_1">
      <!-- 1 -->
      <g transform="translate(53.280556 122.985344)scale(0.1 -0.1)">
       <defs>
        <path d="M 12.40625 8.296875 
L 28.515625 8.296875 
L 28.515625 63.921875 
L 10.984375 60.40625 
L 10.984375 69.390625 
L 28.421875 72.90625 
L 38.28125 72.90625 
L 38.28125 8.296875 
L 54.390625 8.296875 
L 54.390625 0 
L 12.40625 0 
z
" id="DejaVuSans-49"/>
       </defs>
       <use xlink:href="#DejaVuSans-49"/>
      </g>
     </g>
    </g>
    <g id="xtick_2">
     <g id="line2d_2">
      <g>
       <use style="stroke:#000000;stroke-width:0.8;" x="90.27662" xlink:href="#m45897af1e7" y="108.386906"/>
      </g>
     </g>
    </g>
    <g id="xtick_3">
     <g id="line2d_3">
      <g>
       <use style="stroke:#000000;stroke-width:0.8;" x="124.091435" xlink:href="#m45897af1e7" y="108.386906"/>
      </g>
     </g>
     <g id="text_2">
      <!-- 3 -->
      <g transform="translate(120.910185 122.985344)scale(0.1 -0.1)">
       <defs>
        <path d="M 40.578125 39.3125 
Q 47.65625 37.796875 51.625 33 
Q 55.609375 28.21875 55.609375 21.1875 
Q 55.609375 10.40625 48.1875 4.484375 
Q 40.765625 -1.421875 27.09375 -1.421875 
Q 22.515625 -1.421875 17.65625 -0.515625 
Q 12.796875 0.390625 7.625 2.203125 
L 7.625 11.71875 
Q 11.71875 9.328125 16.59375 8.109375 
Q 21.484375 6.890625 26.8125 6.890625 
Q 36.078125 6.890625 40.9375 10.546875 
Q 45.796875 14.203125 45.796875 21.1875 
Q 45.796875 27.640625 41.28125 31.265625 
Q 36.765625 34.90625 28.71875 34.90625 
L 20.21875 34.90625 
L 20.21875 43.015625 
L 29.109375 43.015625 
Q 36.375 43.015625 40.234375 45.921875 
Q 44.09375 48.828125 44.09375 54.296875 
Q 44.09375 59.90625 40.109375 62.90625 
Q 36.140625 65.921875 28.71875 65.921875 
Q 24.65625 65.921875 20.015625 65.03125 
Q 15.375 64.15625 9.8125 62.3125 
L 9.8125 71.09375 
Q 15.4375 72.65625 20.34375 73.4375 
Q 25.25 74.21875 29.59375 74.21875 
Q 40.828125 74.21875 47.359375 69.109375 
Q 53.90625 64.015625 53.90625 55.328125 
Q 53.90625 49.265625 50.4375 45.09375 
Q 46.96875 40.921875 40.578125 39.3125 
z
" id="DejaVuSans-51"/>
       </defs>
       <use xlink:href="#DejaVuSans-51"/>
      </g>
     </g>
    </g>
    <g id="xtick_4">
     <g id="line2d_4">
      <g>
       <use style="stroke:#000000;stroke-width:0.8;" x="157.90625" xlink:href="#m45897af1e7" y="108.386906"/>
      </g>
     </g>
    </g>
    <g id="xtick_5">
     <g id="line2d_5">
      <g>
       <use style="stroke:#000000;stroke-width:0.8;" x="191.721065" xlink:href="#m45897af1e7" y="108.386906"/>
      </g>
     </g>
     <g id="text_3">
      <!-- 5 -->
      <g transform="translate(188.539815 122.985344)scale(0.1 -0.1)">
       <defs>
        <path d="M 10.796875 72.90625 
L 49.515625 72.90625 
L 49.515625 64.59375 
L 19.828125 64.59375 
L 19.828125 46.734375 
Q 21.96875 47.46875 24.109375 47.828125 
Q 26.265625 48.1875 28.421875 48.1875 
Q 40.625 48.1875 47.75 41.5 
Q 54.890625 34.8125 54.890625 23.390625 
Q 54.890625 11.625 47.5625 5.09375 
Q 40.234375 -1.421875 26.90625 -1.421875 
Q 22.3125 -1.421875 17.546875 -0.640625 
Q 12.796875 0.140625 7.71875 1.703125 
L 7.71875 11.625 
Q 12.109375 9.234375 16.796875 8.0625 
Q 21.484375 6.890625 26.703125 6.890625 
Q 35.15625 6.890625 40.078125 11.328125 
Q 45.015625 15.765625 45.015625 23.390625 
Q 45.015625 31 40.078125 35.4375 
Q 35.15625 39.890625 26.703125 39.890625 
Q 22.75 39.890625 18.8125 39.015625 
Q 14.890625 38.140625 10.796875 36.28125 
z
" id="DejaVuSans-53"/>
       </defs>
       <use xlink:href="#DejaVuSans-53"/>
      </g>
     </g>
    </g>
    <g id="xtick_6">
     <g id="line2d_6">
      <g>
       <use style="stroke:#000000;stroke-width:0.8;" x="225.53588" xlink:href="#m45897af1e7" y="108.386906"/>
      </g>
     </g>
    </g>
    <g id="xtick_7">
     <g id="line2d_7">
      <g>
       <use style="stroke:#000000;stroke-width:0.8;" x="259.350694" xlink:href="#m45897af1e7" y="108.386906"/>
      </g>
     </g>
     <g id="text_4">
      <!-- 7 -->
      <g transform="translate(256.169444 122.985344)scale(0.1 -0.1)">
       <defs>
        <path d="M 8.203125 72.90625 
L 55.078125 72.90625 
L 55.078125 68.703125 
L 28.609375 0 
L 18.3125 0 
L 43.21875 64.59375 
L 8.203125 64.59375 
z
" id="DejaVuSans-55"/>
       </defs>
       <use xlink:href="#DejaVuSans-55"/>
      </g>
     </g>
    </g>
    <g id="text_5">
     <!-- number of nuclei neighbors -->
     <g transform="translate(88.992969 136.663469)scale(0.1 -0.1)">
      <defs>
       <path d="M 54.890625 33.015625 
L 54.890625 0 
L 45.90625 0 
L 45.90625 32.71875 
Q 45.90625 40.484375 42.875 44.328125 
Q 39.84375 48.1875 33.796875 48.1875 
Q 26.515625 48.1875 22.3125 43.546875 
Q 18.109375 38.921875 18.109375 30.90625 
L 18.109375 0 
L 9.078125 0 
L 9.078125 54.6875 
L 18.109375 54.6875 
L 18.109375 46.1875 
Q 21.34375 51.125 25.703125 53.5625 
Q 30.078125 56 35.796875 56 
Q 45.21875 56 50.046875 50.171875 
Q 54.890625 44.34375 54.890625 33.015625 
z
" id="DejaVuSans-110"/>
       <path d="M 8.5 21.578125 
L 8.5 54.6875 
L 17.484375 54.6875 
L 17.484375 21.921875 
Q 17.484375 14.15625 20.5 10.265625 
Q 23.53125 6.390625 29.59375 6.390625 
Q 36.859375 6.390625 41.078125 11.03125 
Q 45.3125 15.671875 45.3125 23.6875 
L 45.3125 54.6875 
L 54.296875 54.6875 
L 54.296875 0 
L 45.3125 0 
L 45.3125 8.40625 
Q 42.046875 3.421875 37.71875 1 
Q 33.40625 -1.421875 27.6875 -1.421875 
Q 18.265625 -1.421875 13.375 4.4375 
Q 8.5 10.296875 8.5 21.578125 
z
M 31.109375 56 
z
" id="DejaVuSans-117"/>
       <path d="M 52 44.1875 
Q 55.375 50.25 60.0625 53.125 
Q 64.75 56 71.09375 56 
Q 79.640625 56 84.28125 50.015625 
Q 88.921875 44.046875 88.921875 33.015625 
L 88.921875 0 
L 79.890625 0 
L 79.890625 32.71875 
Q 79.890625 40.578125 77.09375 44.375 
Q 74.3125 48.1875 68.609375 48.1875 
Q 61.625 48.1875 57.5625 43.546875 
Q 53.515625 38.921875 53.515625 30.90625 
L 53.515625 0 
L 44.484375 0 
L 44.484375 32.71875 
Q 44.484375 40.625 41.703125 44.40625 
Q 38.921875 48.1875 33.109375 48.1875 
Q 26.21875 48.1875 22.15625 43.53125 
Q 18.109375 38.875 18.109375 30.90625 
L 18.109375 0 
L 9.078125 0 
L 9.078125 54.6875 
L 18.109375 54.6875 
L 18.109375 46.1875 
Q 21.1875 51.21875 25.484375 53.609375 
Q 29.78125 56 35.6875 56 
Q 41.65625 56 45.828125 52.96875 
Q 50 49.953125 52 44.1875 
z
" id="DejaVuSans-109"/>
       <path d="M 48.6875 27.296875 
Q 48.6875 37.203125 44.609375 42.84375 
Q 40.53125 48.484375 33.40625 48.484375 
Q 26.265625 48.484375 22.1875 42.84375 
Q 18.109375 37.203125 18.109375 27.296875 
Q 18.109375 17.390625 22.1875 11.75 
Q 26.265625 6.109375 33.40625 6.109375 
Q 40.53125 6.109375 44.609375 11.75 
Q 48.6875 17.390625 48.6875 27.296875 
z
M 18.109375 46.390625 
Q 20.953125 51.265625 25.265625 53.625 
Q 29.59375 56 35.59375 56 
Q 45.5625 56 51.78125 48.09375 
Q 58.015625 40.1875 58.015625 27.296875 
Q 58.015625 14.40625 51.78125 6.484375 
Q 45.5625 -1.421875 35.59375 -1.421875 
Q 29.59375 -1.421875 25.265625 0.953125 
Q 20.953125 3.328125 18.109375 8.203125 
L 18.109375 0 
L 9.078125 0 
L 9.078125 75.984375 
L 18.109375 75.984375 
z
" id="DejaVuSans-98"/>
       <path d="M 56.203125 29.59375 
L 56.203125 25.203125 
L 14.890625 25.203125 
Q 15.484375 15.921875 20.484375 11.0625 
Q 25.484375 6.203125 34.421875 6.203125 
Q 39.59375 6.203125 44.453125 7.46875 
Q 49.3125 8.734375 54.109375 11.28125 
L 54.109375 2.78125 
Q 49.265625 0.734375 44.1875 -0.34375 
Q 39.109375 -1.421875 33.890625 -1.421875 
Q 20.796875 -1.421875 13.15625 6.1875 
Q 5.515625 13.8125 5.515625 26.8125 
Q 5.515625 40.234375 12.765625 48.109375 
Q 20.015625 56 32.328125 56 
Q 43.359375 56 49.78125 48.890625 
Q 56.203125 41.796875 56.203125 29.59375 
z
M 47.21875 32.234375 
Q 47.125 39.59375 43.09375 43.984375 
Q 39.0625 48.390625 32.421875 48.390625 
Q 24.90625 48.390625 20.390625 44.140625 
Q 15.875 39.890625 15.1875 32.171875 
z
" id="DejaVuSans-101"/>
       <path d="M 41.109375 46.296875 
Q 39.59375 47.171875 37.8125 47.578125 
Q 36.03125 48 33.890625 48 
Q 26.265625 48 22.1875 43.046875 
Q 18.109375 38.09375 18.109375 28.8125 
L 18.109375 0 
L 9.078125 0 
L 9.078125 54.6875 
L 18.109375 54.6875 
L 18.109375 46.1875 
Q 20.953125 51.171875 25.484375 53.578125 
Q 30.03125 56 36.53125 56 
Q 37.453125 56 38.578125 55.875 
Q 39.703125 55.765625 41.0625 55.515625 
z
" id="DejaVuSans-114"/>
       <path id="DejaVuSans-32"/>
       <path d="M 30.609375 48.390625 
Q 23.390625 48.390625 19.1875 42.75 
Q 14.984375 37.109375 14.984375 27.296875 
Q 14.984375 17.484375 19.15625 11.84375 
Q 23.34375 6.203125 30.609375 6.203125 
Q 37.796875 6.203125 41.984375 11.859375 
Q 46.1875 17.53125 46.1875 27.296875 
Q 46.1875 37.015625 41.984375 42.703125 
Q 37.796875 48.390625 30.609375 48.390625 
z
M 30.609375 56 
Q 42.328125 56 49.015625 48.375 
Q 55.71875 40.765625 55.71875 27.296875 
Q 55.71875 13.875 49.015625 6.21875 
Q 42.328125 -1.421875 30.609375 -1.421875 
Q 18.84375 -1.421875 12.171875 6.21875 
Q 5.515625 13.875 5.515625 27.296875 
Q 5.515625 40.765625 12.171875 48.375 
Q 18.84375 56 30.609375 56 
z
" id="DejaVuSans-111"/>
       <path d="M 37.109375 75.984375 
L 37.109375 68.5 
L 28.515625 68.5 
Q 23.6875 68.5 21.796875 66.546875 
Q 19.921875 64.59375 19.921875 59.515625 
L 19.921875 54.6875 
L 34.71875 54.6875 
L 34.71875 47.703125 
L 19.921875 47.703125 
L 19.921875 0 
L 10.890625 0 
L 10.890625 47.703125 
L 2.296875 47.703125 
L 2.296875 54.6875 
L 10.890625 54.6875 
L 10.890625 58.5 
Q 10.890625 67.625 15.140625 71.796875 
Q 19.390625 75.984375 28.609375 75.984375 
z
" id="DejaVuSans-102"/>
       <path d="M 48.78125 52.59375 
L 48.78125 44.1875 
Q 44.96875 46.296875 41.140625 47.34375 
Q 37.3125 48.390625 33.40625 48.390625 
Q 24.65625 48.390625 19.8125 42.84375 
Q 14.984375 37.3125 14.984375 27.296875 
Q 14.984375 17.28125 19.8125 11.734375 
Q 24.65625 6.203125 33.40625 6.203125 
Q 37.3125 6.203125 41.140625 7.25 
Q 44.96875 8.296875 48.78125 10.40625 
L 48.78125 2.09375 
Q 45.015625 0.34375 40.984375 -0.53125 
Q 36.96875 -1.421875 32.421875 -1.421875 
Q 20.0625 -1.421875 12.78125 6.34375 
Q 5.515625 14.109375 5.515625 27.296875 
Q 5.515625 40.671875 12.859375 48.328125 
Q 20.21875 56 33.015625 56 
Q 37.15625 56 41.109375 55.140625 
Q 45.0625 54.296875 48.78125 52.59375 
z
" id="DejaVuSans-99"/>
       <path d="M 9.421875 75.984375 
L 18.40625 75.984375 
L 18.40625 0 
L 9.421875 0 
z
" id="DejaVuSans-108"/>
       <path d="M 9.421875 54.6875 
L 18.40625 54.6875 
L 18.40625 0 
L 9.421875 0 
z
M 9.421875 75.984375 
L 18.40625 75.984375 
L 18.40625 64.59375 
L 9.421875 64.59375 
z
" id="DejaVuSans-105"/>
       <path d="M 45.40625 27.984375 
Q 45.40625 37.75 41.375 43.109375 
Q 37.359375 48.484375 30.078125 48.484375 
Q 22.859375 48.484375 18.828125 43.109375 
Q 14.796875 37.75 14.796875 27.984375 
Q 14.796875 18.265625 18.828125 12.890625 
Q 22.859375 7.515625 30.078125 7.515625 
Q 37.359375 7.515625 41.375 12.890625 
Q 45.40625 18.265625 45.40625 27.984375 
z
M 54.390625 6.78125 
Q 54.390625 -7.171875 48.1875 -13.984375 
Q 42 -20.796875 29.203125 -20.796875 
Q 24.46875 -20.796875 20.265625 -20.09375 
Q 16.0625 -19.390625 12.109375 -17.921875 
L 12.109375 -9.1875 
Q 16.0625 -11.328125 19.921875 -12.34375 
Q 23.78125 -13.375 27.78125 -13.375 
Q 36.625 -13.375 41.015625 -8.765625 
Q 45.40625 -4.15625 45.40625 5.171875 
L 45.40625 9.625 
Q 42.625 4.78125 38.28125 2.390625 
Q 33.9375 0 27.875 0 
Q 17.828125 0 11.671875 7.65625 
Q 5.515625 15.328125 5.515625 27.984375 
Q 5.515625 40.671875 11.671875 48.328125 
Q 17.828125 56 27.875 56 
Q 33.9375 56 38.28125 53.609375 
Q 42.625 51.21875 45.40625 46.390625 
L 45.40625 54.6875 
L 54.390625 54.6875 
z
" id="DejaVuSans-103"/>
       <path d="M 54.890625 33.015625 
L 54.890625 0 
L 45.90625 0 
L 45.90625 32.71875 
Q 45.90625 40.484375 42.875 44.328125 
Q 39.84375 48.1875 33.796875 48.1875 
Q 26.515625 48.1875 22.3125 43.546875 
Q 18.109375 38.921875 18.109375 30.90625 
L 18.109375 0 
L 9.078125 0 
L 9.078125 75.984375 
L 18.109375 75.984375 
L 18.109375 46.1875 
Q 21.34375 51.125 25.703125 53.5625 
Q 30.078125 56 35.796875 56 
Q 45.21875 56 50.046875 50.171875 
Q 54.890625 44.34375 54.890625 33.015625 
z
" id="DejaVuSans-104"/>
       <path d="M 44.28125 53.078125 
L 44.28125 44.578125 
Q 40.484375 46.53125 36.375 47.5 
Q 32.28125 48.484375 27.875 48.484375 
Q 21.1875 48.484375 17.84375 46.4375 
Q 14.5 44.390625 14.5 40.28125 
Q 14.5 37.15625 16.890625 35.375 
Q 19.28125 33.59375 26.515625 31.984375 
L 29.59375 31.296875 
Q 39.15625 29.25 43.1875 25.515625 
Q 47.21875 21.78125 47.21875 15.09375 
Q 47.21875 7.46875 41.1875 3.015625 
Q 35.15625 -1.421875 24.609375 -1.421875 
Q 20.21875 -1.421875 15.453125 -0.5625 
Q 10.6875 0.296875 5.421875 2 
L 5.421875 11.28125 
Q 10.40625 8.6875 15.234375 7.390625 
Q 20.0625 6.109375 24.8125 6.109375 
Q 31.15625 6.109375 34.5625 8.28125 
Q 37.984375 10.453125 37.984375 14.40625 
Q 37.984375 18.0625 35.515625 20.015625 
Q 33.0625 21.96875 24.703125 23.78125 
L 21.578125 24.515625 
Q 13.234375 26.265625 9.515625 29.90625 
Q 5.8125 33.546875 5.8125 39.890625 
Q 5.8125 47.609375 11.28125 51.796875 
Q 16.75 56 26.8125 56 
Q 31.78125 56 36.171875 55.265625 
Q 40.578125 54.546875 44.28125 53.078125 
z
" id="DejaVuSans-115"/>
      </defs>
      <use xlink:href="#DejaVuSans-110"/>
      <use x="63.378906" xlink:href="#DejaVuSans-117"/>
      <use x="126.757812" xlink:href="#DejaVuSans-109"/>
      <use x="224.169922" xlink:href="#DejaVuSans-98"/>
      <use x="287.646484" xlink:href="#DejaVuSans-101"/>
      <use x="349.169922" xlink:href="#DejaVuSans-114"/>
      <use x="390.283203" xlink:href="#DejaVuSans-32"/>
      <use x="422.070312" xlink:href="#DejaVuSans-111"/>
      <use x="483.251953" xlink:href="#DejaVuSans-102"/>
      <use x="518.457031" xlink:href="#DejaVuSans-32"/>
      <use x="550.244141" xlink:href="#DejaVuSans-110"/>
      <use x="613.623047" xlink:href="#DejaVuSans-117"/>
      <use x="677.001953" xlink:href="#DejaVuSans-99"/>
      <use x="731.982422" xlink:href="#DejaVuSans-108"/>
      <use x="759.765625" xlink:href="#DejaVuSans-101"/>
      <use x="821.289062" xlink:href="#DejaVuSans-105"/>
      <use x="849.072266" xlink:href="#DejaVuSans-32"/>
      <use x="880.859375" xlink:href="#DejaVuSans-110"/>
      <use x="944.238281" xlink:href="#DejaVuSans-101"/>
      <use x="1005.761719" xlink:href="#DejaVuSans-105"/>
      <use x="1033.544922" xlink:href="#DejaVuSans-103"/>
      <use x="1097.021484" xlink:href="#DejaVuSans-104"/>
      <use x="1160.400391" xlink:href="#DejaVuSans-98"/>
      <use x="1223.876953" xlink:href="#DejaVuSans-111"/>
      <use x="1285.058594" xlink:href="#DejaVuSans-114"/>
      <use x="1326.171875" xlink:href="#DejaVuSans-115"/>
     </g>
    </g>
   </g>
   <g id="matplotlib.axis_2">
    <g id="ytick_1">
     <g id="line2d_8">
      <defs>
       <path d="M 0 0 
L -3.5 0 
" id="mb8302da866" style="stroke:#000000;stroke-width:0.8;"/>
      </defs>
      <g>
       <use style="stroke:#000000;stroke-width:0.8;" x="43.78125" xlink:href="#mb8302da866" y="108.386906"/>
      </g>
     </g>
     <g id="text_6">
      <!-- 0.0 -->
      <g transform="translate(20.878125 112.186125)scale(0.1 -0.1)">
       <defs>
        <path d="M 31.78125 66.40625 
Q 24.171875 66.40625 20.328125 58.90625 
Q 16.5 51.421875 16.5 36.375 
Q 16.5 21.390625 20.328125 13.890625 
Q 24.171875 6.390625 31.78125 6.390625 
Q 39.453125 6.390625 43.28125 13.890625 
Q 47.125 21.390625 47.125 36.375 
Q 47.125 51.421875 43.28125 58.90625 
Q 39.453125 66.40625 31.78125 66.40625 
z
M 31.78125 74.21875 
Q 44.046875 74.21875 50.515625 64.515625 
Q 56.984375 54.828125 56.984375 36.375 
Q 56.984375 17.96875 50.515625 8.265625 
Q 44.046875 -1.421875 31.78125 -1.421875 
Q 19.53125 -1.421875 13.0625 8.265625 
Q 6.59375 17.96875 6.59375 36.375 
Q 6.59375 54.828125 13.0625 64.515625 
Q 19.53125 74.21875 31.78125 74.21875 
z
" id="DejaVuSans-48"/>
        <path d="M 10.6875 12.40625 
L 21 12.40625 
L 21 0 
L 10.6875 0 
z
" id="DejaVuSans-46"/>
       </defs>
       <use xlink:href="#DejaVuSans-48"/>
       <use x="63.623047" xlink:href="#DejaVuSans-46"/>
       <use x="95.410156" xlink:href="#DejaVuSans-48"/>
      </g>
     </g>
    </g>
    <g id="ytick_2">
     <g id="line2d_9">
      <g>
       <use style="stroke:#000000;stroke-width:0.8;" x="43.78125" xlink:href="#mb8302da866" y="62.379287"/>
      </g>
     </g>
     <g id="text_7">
      <!-- 0.5 -->
      <g transform="translate(20.878125 66.178506)scale(0.1 -0.1)">
       <use xlink:href="#DejaVuSans-48"/>
       <use x="63.623047" xlink:href="#DejaVuSans-46"/>
       <use x="95.410156" xlink:href="#DejaVuSans-53"/>
      </g>
     </g>
    </g>
    <g id="ytick_3">
     <g id="line2d_10">
      <g>
       <use style="stroke:#000000;stroke-width:0.8;" x="43.78125" xlink:href="#mb8302da866" y="16.371668"/>
      </g>
     </g>
     <g id="text_8">
      <!-- 1.0 -->
      <g transform="translate(20.878125 20.170887)scale(0.1 -0.1)">
       <use xlink:href="#DejaVuSans-49"/>
       <use x="63.623047" xlink:href="#DejaVuSans-46"/>
       <use x="95.410156" xlink:href="#DejaVuSans-48"/>
      </g>
     </g>
    </g>
    <g id="text_9">
     <!-- El angle of neighbors -->
     <g transform="translate(14.798438 112.957812)rotate(-90)scale(0.1 -0.1)">
      <defs>
       <path d="M 9.8125 72.90625 
L 55.90625 72.90625 
L 55.90625 64.59375 
L 19.671875 64.59375 
L 19.671875 43.015625 
L 54.390625 43.015625 
L 54.390625 34.71875 
L 19.671875 34.71875 
L 19.671875 8.296875 
L 56.78125 8.296875 
L 56.78125 0 
L 9.8125 0 
z
" id="DejaVuSans-69"/>
       <path d="M 34.28125 27.484375 
Q 23.390625 27.484375 19.1875 25 
Q 14.984375 22.515625 14.984375 16.5 
Q 14.984375 11.71875 18.140625 8.90625 
Q 21.296875 6.109375 26.703125 6.109375 
Q 34.1875 6.109375 38.703125 11.40625 
Q 43.21875 16.703125 43.21875 25.484375 
L 43.21875 27.484375 
z
M 52.203125 31.203125 
L 52.203125 0 
L 43.21875 0 
L 43.21875 8.296875 
Q 40.140625 3.328125 35.546875 0.953125 
Q 30.953125 -1.421875 24.3125 -1.421875 
Q 15.921875 -1.421875 10.953125 3.296875 
Q 6 8.015625 6 15.921875 
Q 6 25.140625 12.171875 29.828125 
Q 18.359375 34.515625 30.609375 34.515625 
L 43.21875 34.515625 
L 43.21875 35.40625 
Q 43.21875 41.609375 39.140625 45 
Q 35.0625 48.390625 27.6875 48.390625 
Q 23 48.390625 18.546875 47.265625 
Q 14.109375 46.140625 10.015625 43.890625 
L 10.015625 52.203125 
Q 14.9375 54.109375 19.578125 55.046875 
Q 24.21875 56 28.609375 56 
Q 40.484375 56 46.34375 49.84375 
Q 52.203125 43.703125 52.203125 31.203125 
z
" id="DejaVuSans-97"/>
      </defs>
      <use xlink:href="#DejaVuSans-69"/>
      <use x="63.183594" xlink:href="#DejaVuSans-108"/>
      <use x="90.966797" xlink:href="#DejaVuSans-32"/>
      <use x="122.753906" xlink:href="#DejaVuSans-97"/>
      <use x="184.033203" xlink:href="#DejaVuSans-110"/>
      <use x="247.412109" xlink:href="#DejaVuSans-103"/>
      <use x="310.888672" xlink:href="#DejaVuSans-108"/>
      <use x="338.671875" xlink:href="#DejaVuSans-101"/>
      <use x="400.195312" xlink:href="#DejaVuSans-32"/>
      <use x="431.982422" xlink:href="#DejaVuSans-111"/>
      <use x="493.164062" xlink:href="#DejaVuSans-102"/>
      <use x="528.369141" xlink:href="#DejaVuSans-32"/>
      <use x="560.15625" xlink:href="#DejaVuSans-110"/>
      <use x="623.535156" xlink:href="#DejaVuSans-101"/>
      <use x="685.058594" xlink:href="#DejaVuSans-105"/>
      <use x="712.841797" xlink:href="#DejaVuSans-103"/>
      <use x="776.318359" xlink:href="#DejaVuSans-104"/>
      <use x="839.697266" xlink:href="#DejaVuSans-98"/>
      <use x="903.173828" xlink:href="#DejaVuSans-111"/>
      <use x="964.355469" xlink:href="#DejaVuSans-114"/>
      <use x="1005.46875" xlink:href="#DejaVuSans-115"/>
     </g>
    </g>
   </g>
   <g id="patch_45">
    <path d="M 43.78125 108.386906 
L 43.78125 11.770906 
" style="fill:none;stroke:#000000;stroke-linecap:square;stroke-linejoin:miter;stroke-width:0.8;"/>
   </g>
   <g id="patch_46">
    <path d="M 272.03125 108.386906 
L 272.03125 11.770906 
" style="fill:none;stroke:#000000;stroke-linecap:square;stroke-linejoin:miter;stroke-width:0.8;"/>
   </g>
   <g id="patch_47">
    <path d="M 43.78125 108.386906 
L 272.03125 108.386906 
" style="fill:none;stroke:#000000;stroke-linecap:square;stroke-linejoin:miter;stroke-width:0.8;"/>
   </g>
   <g id="patch_48">
    <path d="M 43.78125 11.770906 
L 272.03125 11.770906 
" style="fill:none;stroke:#000000;stroke-linecap:square;stroke-linejoin:miter;stroke-width:0.8;"/>
   </g>
   <g id="legend_1">
    <g id="patch_49">
     <path d="M 278.989062 79.191801 
L 324.89375 79.191801 
Q 326.09375 79.191801 326.09375 77.991801 
L 326.09375 13.072426 
Q 326.09375 11.872426 324.89375 11.872426 
L 278.989062 11.872426 
Q 277.789062 11.872426 277.789062 13.072426 
L 277.789062 77.991801 
Q 277.789062 79.191801 278.989062 79.191801 
z
" style="fill:#ffffff;opacity:0.8;stroke:#cccccc;stroke-linejoin:miter;"/>
    </g>
    <g id="text_10">
     <!-- Columns -->
     <g transform="translate(280.189062 21.870864)scale(0.1 -0.1)">
      <defs>
       <path d="M 64.40625 67.28125 
L 64.40625 56.890625 
Q 59.421875 61.53125 53.78125 63.8125 
Q 48.140625 66.109375 41.796875 66.109375 
Q 29.296875 66.109375 22.65625 58.46875 
Q 16.015625 50.828125 16.015625 36.375 
Q 16.015625 21.96875 22.65625 14.328125 
Q 29.296875 6.6875 41.796875 6.6875 
Q 48.140625 6.6875 53.78125 8.984375 
Q 59.421875 11.28125 64.40625 15.921875 
L 64.40625 5.609375 
Q 59.234375 2.09375 53.4375 0.328125 
Q 47.65625 -1.421875 41.21875 -1.421875 
Q 24.65625 -1.421875 15.125 8.703125 
Q 5.609375 18.84375 5.609375 36.375 
Q 5.609375 53.953125 15.125 64.078125 
Q 24.65625 74.21875 41.21875 74.21875 
Q 47.75 74.21875 53.53125 72.484375 
Q 59.328125 70.75 64.40625 67.28125 
z
" id="DejaVuSans-67"/>
      </defs>
      <use xlink:href="#DejaVuSans-67"/>
      <use x="69.824219" xlink:href="#DejaVuSans-111"/>
      <use x="131.005859" xlink:href="#DejaVuSans-108"/>
      <use x="158.789062" xlink:href="#DejaVuSans-117"/>
      <use x="222.167969" xlink:href="#DejaVuSans-109"/>
      <use x="319.580078" xlink:href="#DejaVuSans-110"/>
      <use x="382.958984" xlink:href="#DejaVuSans-115"/>
     </g>
    </g>
    <g id="patch_50">
     <path d="M 282.310156 31.509614 
L 294.310156 31.509614 
L 294.310156 27.309614 
L 282.310156 27.309614 
z
" style="fill:#bfbf00;"/>
    </g>
    <g id="text_11">
     <!-- 0-&lt;15 -->
     <g transform="translate(299.110156 31.509614)scale(0.06 -0.06)">
      <defs>
       <path d="M 4.890625 31.390625 
L 31.203125 31.390625 
L 31.203125 23.390625 
L 4.890625 23.390625 
z
" id="DejaVuSans-45"/>
       <path d="M 73.1875 49.21875 
L 22.796875 31.296875 
L 73.1875 13.484375 
L 73.1875 4.59375 
L 10.59375 27.296875 
L 10.59375 35.40625 
L 73.1875 58.109375 
z
" id="DejaVuSans-60"/>
      </defs>
      <use xlink:href="#DejaVuSans-48"/>
      <use x="63.623047" xlink:href="#DejaVuSans-45"/>
      <use x="99.707031" xlink:href="#DejaVuSans-60"/>
      <use x="183.496094" xlink:href="#DejaVuSans-49"/>
      <use x="247.119141" xlink:href="#DejaVuSans-53"/>
     </g>
    </g>
    <g id="patch_51">
     <path d="M 282.310156 40.316489 
L 294.310156 40.316489 
L 294.310156 36.116489 
L 282.310156 36.116489 
z
" style="fill:#00bfbf;"/>
    </g>
    <g id="text_12">
     <!-- 15-&lt;30 -->
     <g transform="translate(299.110156 40.316489)scale(0.06 -0.06)">
      <use xlink:href="#DejaVuSans-49"/>
      <use x="63.623047" xlink:href="#DejaVuSans-53"/>
      <use x="127.246094" xlink:href="#DejaVuSans-45"/>
      <use x="163.330078" xlink:href="#DejaVuSans-60"/>
      <use x="247.119141" xlink:href="#DejaVuSans-51"/>
      <use x="310.742188" xlink:href="#DejaVuSans-48"/>
     </g>
    </g>
    <g id="patch_52">
     <path d="M 282.310156 49.123364 
L 294.310156 49.123364 
L 294.310156 44.923364 
L 282.310156 44.923364 
z
" style="fill:#008000;"/>
    </g>
    <g id="text_13">
     <!-- 30-&lt;45 -->
     <g transform="translate(299.110156 49.123364)scale(0.06 -0.06)">
      <defs>
       <path d="M 37.796875 64.3125 
L 12.890625 25.390625 
L 37.796875 25.390625 
z
M 35.203125 72.90625 
L 47.609375 72.90625 
L 47.609375 25.390625 
L 58.015625 25.390625 
L 58.015625 17.1875 
L 47.609375 17.1875 
L 47.609375 0 
L 37.796875 0 
L 37.796875 17.1875 
L 4.890625 17.1875 
L 4.890625 26.703125 
z
" id="DejaVuSans-52"/>
      </defs>
      <use xlink:href="#DejaVuSans-51"/>
      <use x="63.623047" xlink:href="#DejaVuSans-48"/>
      <use x="127.246094" xlink:href="#DejaVuSans-45"/>
      <use x="163.330078" xlink:href="#DejaVuSans-60"/>
      <use x="247.119141" xlink:href="#DejaVuSans-52"/>
      <use x="310.742188" xlink:href="#DejaVuSans-53"/>
     </g>
    </g>
    <g id="patch_53">
     <path d="M 282.310156 57.930239 
L 294.310156 57.930239 
L 294.310156 53.730239 
L 282.310156 53.730239 
z
" style="fill:#bf00bf;"/>
    </g>
    <g id="text_14">
     <!-- 45-&lt;60 -->
     <g transform="translate(299.110156 57.930239)scale(0.06 -0.06)">
      <defs>
       <path d="M 33.015625 40.375 
Q 26.375 40.375 22.484375 35.828125 
Q 18.609375 31.296875 18.609375 23.390625 
Q 18.609375 15.53125 22.484375 10.953125 
Q 26.375 6.390625 33.015625 6.390625 
Q 39.65625 6.390625 43.53125 10.953125 
Q 47.40625 15.53125 47.40625 23.390625 
Q 47.40625 31.296875 43.53125 35.828125 
Q 39.65625 40.375 33.015625 40.375 
z
M 52.59375 71.296875 
L 52.59375 62.3125 
Q 48.875 64.0625 45.09375 64.984375 
Q 41.3125 65.921875 37.59375 65.921875 
Q 27.828125 65.921875 22.671875 59.328125 
Q 17.53125 52.734375 16.796875 39.40625 
Q 19.671875 43.65625 24.015625 45.921875 
Q 28.375 48.1875 33.59375 48.1875 
Q 44.578125 48.1875 50.953125 41.515625 
Q 57.328125 34.859375 57.328125 23.390625 
Q 57.328125 12.15625 50.6875 5.359375 
Q 44.046875 -1.421875 33.015625 -1.421875 
Q 20.359375 -1.421875 13.671875 8.265625 
Q 6.984375 17.96875 6.984375 36.375 
Q 6.984375 53.65625 15.1875 63.9375 
Q 23.390625 74.21875 37.203125 74.21875 
Q 40.921875 74.21875 44.703125 73.484375 
Q 48.484375 72.75 52.59375 71.296875 
z
" id="DejaVuSans-54"/>
      </defs>
      <use xlink:href="#DejaVuSans-52"/>
      <use x="63.623047" xlink:href="#DejaVuSans-53"/>
      <use x="127.246094" xlink:href="#DejaVuSans-45"/>
      <use x="163.330078" xlink:href="#DejaVuSans-60"/>
      <use x="247.119141" xlink:href="#DejaVuSans-54"/>
      <use x="310.742188" xlink:href="#DejaVuSans-48"/>
     </g>
    </g>
    <g id="patch_54">
     <path d="M 282.310156 66.737114 
L 294.310156 66.737114 
L 294.310156 62.537114 
L 282.310156 62.537114 
z
" style="fill:#ff0000;"/>
    </g>
    <g id="text_15">
     <!-- 60-&lt;75 -->
     <g transform="translate(299.110156 66.737114)scale(0.06 -0.06)">
      <use xlink:href="#DejaVuSans-54"/>
      <use x="63.623047" xlink:href="#DejaVuSans-48"/>
      <use x="127.246094" xlink:href="#DejaVuSans-45"/>
      <use x="163.330078" xlink:href="#DejaVuSans-60"/>
      <use x="247.119141" xlink:href="#DejaVuSans-55"/>
      <use x="310.742188" xlink:href="#DejaVuSans-53"/>
     </g>
    </g>
    <g id="patch_55">
     <path d="M 282.310156 75.543989 
L 294.310156 75.543989 
L 294.310156 71.343989 
L 282.310156 71.343989 
z
" style="fill:#0000ff;"/>
    </g>
    <g id="text_16">
     <!-- 75-90 -->
     <g transform="translate(299.110156 75.543989)scale(0.06 -0.06)">
      <defs>
       <path d="M 10.984375 1.515625 
L 10.984375 10.5 
Q 14.703125 8.734375 18.5 7.8125 
Q 22.3125 6.890625 25.984375 6.890625 
Q 35.75 6.890625 40.890625 13.453125 
Q 46.046875 20.015625 46.78125 33.40625 
Q 43.953125 29.203125 39.59375 26.953125 
Q 35.25 24.703125 29.984375 24.703125 
Q 19.046875 24.703125 12.671875 31.3125 
Q 6.296875 37.9375 6.296875 49.421875 
Q 6.296875 60.640625 12.9375 67.421875 
Q 19.578125 74.21875 30.609375 74.21875 
Q 43.265625 74.21875 49.921875 64.515625 
Q 56.59375 54.828125 56.59375 36.375 
Q 56.59375 19.140625 48.40625 8.859375 
Q 40.234375 -1.421875 26.421875 -1.421875 
Q 22.703125 -1.421875 18.890625 -0.6875 
Q 15.09375 0.046875 10.984375 1.515625 
z
M 30.609375 32.421875 
Q 37.25 32.421875 41.125 36.953125 
Q 45.015625 41.5 45.015625 49.421875 
Q 45.015625 57.28125 41.125 61.84375 
Q 37.25 66.40625 30.609375 66.40625 
Q 23.96875 66.40625 20.09375 61.84375 
Q 16.21875 57.28125 16.21875 49.421875 
Q 16.21875 41.5 20.09375 36.953125 
Q 23.96875 32.421875 30.609375 32.421875 
z
" id="DejaVuSans-57"/>
      </defs>
      <use xlink:href="#DejaVuSans-55"/>
      <use x="63.623047" xlink:href="#DejaVuSans-53"/>
      <use x="127.246094" xlink:href="#DejaVuSans-45"/>
      <use x="163.330078" xlink:href="#DejaVuSans-57"/>
      <use x="226.953125" xlink:href="#DejaVuSans-48"/>
     </g>
    </g>
   </g>
  </g>
  <g id="axes_2">
   <g id="patch_56">
    <path d="M 43.78125 246.986906 
L 272.03125 246.986906 
L 272.03125 150.370906 
L 43.78125 150.370906 
z
" style="fill:#ffffff;"/>
   </g>
   <g id="patch_57">
    <path clip-path="url(#p2c18ecdffe)" d="M 47.649894 246.986906 
L 51.518538 246.986906 
L 51.518538 220.887665 
L 47.649894 220.887665 
z
" style="fill:#bfbf00;"/>
   </g>
   <g id="patch_58">
    <path clip-path="url(#p2c18ecdffe)" d="M 63.12447 246.986906 
L 66.993114 246.986906 
L 66.993114 220.37301 
L 63.12447 220.37301 
z
" style="fill:#bfbf00;"/>
   </g>
   <g id="patch_59">
    <path clip-path="url(#p2c18ecdffe)" d="M 78.599047 246.986906 
L 82.467691 246.986906 
L 82.467691 222.241772 
L 78.599047 222.241772 
z
" style="fill:#bfbf00;"/>
   </g>
   <g id="patch_60">
    <path clip-path="url(#p2c18ecdffe)" d="M 94.073623 246.986906 
L 97.942267 246.986906 
L 97.942267 220.915922 
L 94.073623 220.915922 
z
" style="fill:#bfbf00;"/>
   </g>
   <g id="patch_61">
    <path clip-path="url(#p2c18ecdffe)" d="M 109.548199 246.986906 
L 113.416843 246.986906 
L 113.416843 220.745524 
L 109.548199 220.745524 
z
" style="fill:#bfbf00;"/>
   </g>
   <g id="patch_62">
    <path clip-path="url(#p2c18ecdffe)" d="M 125.022775 246.986906 
L 128.891419 246.986906 
L 128.891419 224.238695 
L 125.022775 224.238695 
z
" style="fill:#bfbf00;"/>
   </g>
   <g id="patch_63">
    <path clip-path="url(#p2c18ecdffe)" d="M 140.497352 246.986906 
L 144.365996 246.986906 
L 144.365996 218.818976 
L 140.497352 218.818976 
z
" style="fill:#bfbf00;"/>
   </g>
   <g id="patch_64">
    <path clip-path="url(#p2c18ecdffe)" d="M 155.971928 246.986906 
L 159.840572 246.986906 
L 159.840572 219.601419 
L 155.971928 219.601419 
z
" style="fill:#bfbf00;"/>
   </g>
   <g id="patch_65">
    <path clip-path="url(#p2c18ecdffe)" d="M 171.446504 246.986906 
L 175.315148 246.986906 
L 175.315148 214.51094 
L 171.446504 214.51094 
z
" style="fill:#bfbf00;"/>
   </g>
   <g id="patch_66">
    <path clip-path="url(#p2c18ecdffe)" d="M 186.921081 246.986906 
L 190.789725 246.986906 
L 190.789725 218.232144 
L 186.921081 218.232144 
z
" style="fill:#bfbf00;"/>
   </g>
   <g id="patch_67">
    <path clip-path="url(#p2c18ecdffe)" d="M 202.395657 246.986906 
L 206.264301 246.986906 
L 206.264301 216.872828 
L 202.395657 216.872828 
z
" style="fill:#bfbf00;"/>
   </g>
   <g id="patch_68">
    <path clip-path="url(#p2c18ecdffe)" d="M 217.870233 246.986906 
L 221.738877 246.986906 
L 221.738877 218.871139 
L 217.870233 218.871139 
z
" style="fill:#bfbf00;"/>
   </g>
   <g id="patch_69">
    <path clip-path="url(#p2c18ecdffe)" d="M 233.344809 246.986906 
L 237.213453 246.986906 
L 237.213453 222.213573 
L 233.344809 222.213573 
z
" style="fill:#bfbf00;"/>
   </g>
   <g id="patch_70">
    <path clip-path="url(#p2c18ecdffe)" d="M 248.819386 246.986906 
L 252.68803 246.986906 
L 252.68803 227.269355 
L 248.819386 227.269355 
z
" style="fill:#bfbf00;"/>
   </g>
   <g id="patch_71">
    <path clip-path="url(#p2c18ecdffe)" d="M 264.293962 246.986906 
L 268.162606 246.986906 
L 268.162606 210.180811 
L 264.293962 210.180811 
z
" style="fill:#bfbf00;"/>
   </g>
   <g id="patch_72">
    <path clip-path="url(#p2c18ecdffe)" d="M 47.649894 220.887665 
L 51.518538 220.887665 
L 51.518538 202.23801 
L 47.649894 202.23801 
z
" style="fill:#00bfbf;"/>
   </g>
   <g id="patch_73">
    <path clip-path="url(#p2c18ecdffe)" d="M 63.12447 220.37301 
L 66.993114 220.37301 
L 66.993114 201.944776 
L 63.12447 201.944776 
z
" style="fill:#00bfbf;"/>
   </g>
   <g id="patch_74">
    <path clip-path="url(#p2c18ecdffe)" d="M 78.599047 222.241772 
L 82.467691 222.241772 
L 82.467691 201.223684 
L 78.599047 201.223684 
z
" style="fill:#00bfbf;"/>
   </g>
   <g id="patch_75">
    <path clip-path="url(#p2c18ecdffe)" d="M 94.073623 220.915922 
L 97.942267 220.915922 
L 97.942267 201.490483 
L 94.073623 201.490483 
z
" style="fill:#00bfbf;"/>
   </g>
   <g id="patch_76">
    <path clip-path="url(#p2c18ecdffe)" d="M 109.548199 220.745524 
L 113.416843 220.745524 
L 113.416843 201.320084 
L 109.548199 201.320084 
z
" style="fill:#00bfbf;"/>
   </g>
   <g id="patch_77">
    <path clip-path="url(#p2c18ecdffe)" d="M 125.022775 224.238695 
L 128.891419 224.238695 
L 128.891419 204.046462 
L 125.022775 204.046462 
z
" style="fill:#00bfbf;"/>
   </g>
   <g id="patch_78">
    <path clip-path="url(#p2c18ecdffe)" d="M 140.497352 218.818976 
L 144.365996 218.818976 
L 144.365996 200.040356 
L 140.497352 200.040356 
z
" style="fill:#00bfbf;"/>
   </g>
   <g id="patch_79">
    <path clip-path="url(#p2c18ecdffe)" d="M 155.971928 219.601419 
L 159.840572 219.601419 
L 159.840572 192.763641 
L 155.971928 192.763641 
z
" style="fill:#00bfbf;"/>
   </g>
   <g id="patch_80">
    <path clip-path="url(#p2c18ecdffe)" d="M 171.446504 214.51094 
L 175.315148 214.51094 
L 175.315148 198.272957 
L 171.446504 198.272957 
z
" style="fill:#00bfbf;"/>
   </g>
   <g id="patch_81">
    <path clip-path="url(#p2c18ecdffe)" d="M 186.921081 218.232144 
L 190.789725 218.232144 
L 190.789725 199.254001 
L 186.921081 199.254001 
z
" style="fill:#00bfbf;"/>
   </g>
   <g id="patch_82">
    <path clip-path="url(#p2c18ecdffe)" d="M 202.395657 216.872828 
L 206.264301 216.872828 
L 206.264301 195.123772 
L 202.395657 195.123772 
z
" style="fill:#00bfbf;"/>
   </g>
   <g id="patch_83">
    <path clip-path="url(#p2c18ecdffe)" d="M 217.870233 218.871139 
L 221.738877 218.871139 
L 221.738877 202.257277 
L 217.870233 202.257277 
z
" style="fill:#00bfbf;"/>
   </g>
   <g id="patch_84">
    <path clip-path="url(#p2c18ecdffe)" d="M 233.344809 222.213573 
L 237.213453 222.213573 
L 237.213453 195.670716 
L 233.344809 195.670716 
z
" style="fill:#00bfbf;"/>
   </g>
   <g id="patch_85">
    <path clip-path="url(#p2c18ecdffe)" d="M 248.819386 227.269355 
L 252.68803 227.269355 
L 252.68803 205.360965 
L 248.819386 205.360965 
z
" style="fill:#00bfbf;"/>
   </g>
   <g id="patch_86">
    <path clip-path="url(#p2c18ecdffe)" d="M 264.293962 210.180811 
L 268.162606 210.180811 
L 268.162606 191.777763 
L 264.293962 191.777763 
z
" style="fill:#00bfbf;"/>
   </g>
   <g id="patch_87">
    <path clip-path="url(#p2c18ecdffe)" d="M 47.649894 202.23801 
L 51.518538 202.23801 
L 51.518538 184.307626 
L 47.649894 184.307626 
z
" style="fill:#008000;"/>
   </g>
   <g id="patch_88">
    <path clip-path="url(#p2c18ecdffe)" d="M 63.12447 201.944776 
L 66.993114 201.944776 
L 66.993114 184.272141 
L 63.12447 184.272141 
z
" style="fill:#008000;"/>
   </g>
   <g id="patch_89">
    <path clip-path="url(#p2c18ecdffe)" d="M 78.599047 201.223684 
L 82.467691 201.223684 
L 82.467691 184.115937 
L 78.599047 184.115937 
z
" style="fill:#008000;"/>
   </g>
   <g id="patch_90">
    <path clip-path="url(#p2c18ecdffe)" d="M 94.073623 201.490483 
L 97.942267 201.490483 
L 97.942267 181.962805 
L 94.073623 181.962805 
z
" style="fill:#008000;"/>
   </g>
   <g id="patch_91">
    <path clip-path="url(#p2c18ecdffe)" d="M 109.548199 201.320084 
L 113.416843 201.320084 
L 113.416843 183.428233 
L 109.548199 183.428233 
z
" style="fill:#008000;"/>
   </g>
   <g id="patch_92">
    <path clip-path="url(#p2c18ecdffe)" d="M 125.022775 204.046462 
L 128.891419 204.046462 
L 128.891419 182.065044 
L 125.022775 182.065044 
z
" style="fill:#008000;"/>
   </g>
   <g id="patch_93">
    <path clip-path="url(#p2c18ecdffe)" d="M 140.497352 200.040356 
L 144.365996 200.040356 
L 144.365996 182.200667 
L 140.497352 182.200667 
z
" style="fill:#008000;"/>
   </g>
   <g id="patch_94">
    <path clip-path="url(#p2c18ecdffe)" d="M 155.971928 192.763641 
L 159.840572 192.763641 
L 159.840572 174.689219 
L 155.971928 174.689219 
z
" style="fill:#008000;"/>
   </g>
   <g id="patch_95">
    <path clip-path="url(#p2c18ecdffe)" d="M 171.446504 198.272957 
L 175.315148 198.272957 
L 175.315148 180.230753 
L 171.446504 180.230753 
z
" style="fill:#008000;"/>
   </g>
   <g id="patch_96">
    <path clip-path="url(#p2c18ecdffe)" d="M 186.921081 199.254001 
L 190.789725 199.254001 
L 190.789725 183.72643 
L 186.921081 183.72643 
z
" style="fill:#008000;"/>
   </g>
   <g id="patch_97">
    <path clip-path="url(#p2c18ecdffe)" d="M 202.395657 195.123772 
L 206.264301 195.123772 
L 206.264301 176.720724 
L 202.395657 176.720724 
z
" style="fill:#008000;"/>
   </g>
   <g id="patch_98">
    <path clip-path="url(#p2c18ecdffe)" d="M 217.870233 202.257277 
L 221.738877 202.257277 
L 221.738877 185.643414 
L 217.870233 185.643414 
z
" style="fill:#008000;"/>
   </g>
   <g id="patch_99">
    <path clip-path="url(#p2c18ecdffe)" d="M 233.344809 195.670716 
L 237.213453 195.670716 
L 237.213453 177.975478 
L 233.344809 177.975478 
z
" style="fill:#008000;"/>
   </g>
   <g id="patch_100">
    <path clip-path="url(#p2c18ecdffe)" d="M 248.819386 205.360965 
L 252.68803 205.360965 
L 252.68803 181.261736 
L 248.819386 181.261736 
z
" style="fill:#008000;"/>
   </g>
   <g id="patch_101">
    <path clip-path="url(#p2c18ecdffe)" d="M 264.293962 191.777763 
L 268.162606 191.777763 
L 268.162606 173.374716 
L 264.293962 173.374716 
z
" style="fill:#008000;"/>
   </g>
   <g id="patch_102">
    <path clip-path="url(#p2c18ecdffe)" d="M 47.649894 184.307626 
L 51.518538 184.307626 
L 51.518538 168.072665 
L 47.649894 168.072665 
z
" style="fill:#bf00bf;"/>
   </g>
   <g id="patch_103">
    <path clip-path="url(#p2c18ecdffe)" d="M 63.12447 184.272141 
L 66.993114 184.272141 
L 66.993114 169.663882 
L 63.12447 169.663882 
z
" style="fill:#bf00bf;"/>
   </g>
   <g id="patch_104">
    <path clip-path="url(#p2c18ecdffe)" d="M 78.599047 184.115937 
L 82.467691 184.115937 
L 82.467691 167.374785 
L 78.599047 167.374785 
z
" style="fill:#bf00bf;"/>
   </g>
   <g id="patch_105">
    <path clip-path="url(#p2c18ecdffe)" d="M 94.073623 181.962805 
L 97.942267 181.962805 
L 97.942267 167.444845 
L 94.073623 167.444845 
z
" style="fill:#bf00bf;"/>
   </g>
   <g id="patch_106">
    <path clip-path="url(#p2c18ecdffe)" d="M 109.548199 183.428233 
L 113.416843 183.428233 
L 113.416843 168.262758 
L 109.548199 168.262758 
z
" style="fill:#bf00bf;"/>
   </g>
   <g id="patch_107">
    <path clip-path="url(#p2c18ecdffe)" d="M 125.022775 182.065044 
L 128.891419 182.065044 
L 128.891419 169.28515 
L 125.022775 169.28515 
z
" style="fill:#bf00bf;"/>
   </g>
   <g id="patch_108">
    <path clip-path="url(#p2c18ecdffe)" d="M 140.497352 182.200667 
L 144.365996 182.200667 
L 144.365996 164.360978 
L 140.497352 164.360978 
z
" style="fill:#bf00bf;"/>
   </g>
   <g id="patch_109">
    <path clip-path="url(#p2c18ecdffe)" d="M 155.971928 174.689219 
L 159.840572 174.689219 
L 159.840572 165.378153 
L 155.971928 165.378153 
z
" style="fill:#bf00bf;"/>
   </g>
   <g id="patch_110">
    <path clip-path="url(#p2c18ecdffe)" d="M 171.446504 180.230753 
L 175.315148 180.230753 
L 175.315148 166.999804 
L 171.446504 166.999804 
z
" style="fill:#bf00bf;"/>
   </g>
   <g id="patch_111">
    <path clip-path="url(#p2c18ecdffe)" d="M 186.921081 183.72643 
L 190.789725 183.72643 
L 190.789725 168.773954 
L 186.921081 168.773954 
z
" style="fill:#bf00bf;"/>
   </g>
   <g id="patch_112">
    <path clip-path="url(#p2c18ecdffe)" d="M 202.395657 176.720724 
L 206.264301 176.720724 
L 206.264301 161.663685 
L 202.395657 161.663685 
z
" style="fill:#bf00bf;"/>
   </g>
   <g id="patch_113">
    <path clip-path="url(#p2c18ecdffe)" d="M 217.870233 185.643414 
L 221.738877 185.643414 
L 221.738877 169.029552 
L 217.870233 169.029552 
z
" style="fill:#bf00bf;"/>
   </g>
   <g id="patch_114">
    <path clip-path="url(#p2c18ecdffe)" d="M 233.344809 177.975478 
L 237.213453 177.975478 
L 237.213453 158.510716 
L 233.344809 158.510716 
z
" style="fill:#bf00bf;"/>
   </g>
   <g id="patch_115">
    <path clip-path="url(#p2c18ecdffe)" d="M 248.819386 181.261736 
L 252.68803 181.261736 
L 252.68803 161.544185 
L 248.819386 161.544185 
z
" style="fill:#bf00bf;"/>
   </g>
   <g id="patch_116">
    <path clip-path="url(#p2c18ecdffe)" d="M 264.293962 173.374716 
L 268.162606 173.374716 
L 268.162606 161.106017 
L 264.293962 161.106017 
z
" style="fill:#bf00bf;"/>
   </g>
   <g id="patch_117">
    <path clip-path="url(#p2c18ecdffe)" d="M 47.649894 168.072665 
L 51.518538 168.072665 
L 51.518538 158.002879 
L 47.649894 158.002879 
z
" style="fill:#ff0000;"/>
   </g>
   <g id="patch_118">
    <path clip-path="url(#p2c18ecdffe)" d="M 63.12447 169.663882 
L 66.993114 169.663882 
L 66.993114 158.917577 
L 63.12447 158.917577 
z
" style="fill:#ff0000;"/>
   </g>
   <g id="patch_119">
    <path clip-path="url(#p2c18ecdffe)" d="M 78.599047 167.374785 
L 82.467691 167.374785 
L 82.467691 158.576515 
L 78.599047 158.576515 
z
" style="fill:#ff0000;"/>
   </g>
   <g id="patch_120">
    <path clip-path="url(#p2c18ecdffe)" d="M 94.073623 167.444845 
L 97.942267 167.444845 
L 97.942267 157.834364 
L 94.073623 157.834364 
z
" style="fill:#ff0000;"/>
   </g>
   <g id="patch_121">
    <path clip-path="url(#p2c18ecdffe)" d="M 109.548199 168.262758 
L 113.416843 168.262758 
L 113.416843 158.209241 
L 109.548199 158.209241 
z
" style="fill:#ff0000;"/>
   </g>
   <g id="patch_122">
    <path clip-path="url(#p2c18ecdffe)" d="M 125.022775 169.28515 
L 128.891419 169.28515 
L 128.891419 158.294441 
L 125.022775 158.294441 
z
" style="fill:#ff0000;"/>
   </g>
   <g id="patch_123">
    <path clip-path="url(#p2c18ecdffe)" d="M 140.497352 164.360978 
L 144.365996 164.360978 
L 144.365996 157.318996 
L 140.497352 157.318996 
z
" style="fill:#ff0000;"/>
   </g>
   <g id="patch_124">
    <path clip-path="url(#p2c18ecdffe)" d="M 155.971928 165.378153 
L 159.840572 165.378153 
L 159.840572 157.162507 
L 155.971928 157.162507 
z
" style="fill:#ff0000;"/>
   </g>
   <g id="patch_125">
    <path clip-path="url(#p2c18ecdffe)" d="M 171.446504 166.999804 
L 175.315148 166.999804 
L 175.315148 156.174482 
L 171.446504 156.174482 
z
" style="fill:#ff0000;"/>
   </g>
   <g id="patch_126">
    <path clip-path="url(#p2c18ecdffe)" d="M 186.921081 168.773954 
L 190.789725 168.773954 
L 190.789725 160.147525 
L 186.921081 160.147525 
z
" style="fill:#ff0000;"/>
   </g>
   <g id="patch_127">
    <path clip-path="url(#p2c18ecdffe)" d="M 202.395657 161.663685 
L 206.264301 161.663685 
L 206.264301 154.971668 
L 202.395657 154.971668 
z
" style="fill:#ff0000;"/>
   </g>
   <g id="patch_128">
    <path clip-path="url(#p2c18ecdffe)" d="M 217.870233 169.029552 
L 221.738877 169.029552 
L 221.738877 157.527647 
L 217.870233 157.527647 
z
" style="fill:#ff0000;"/>
   </g>
   <g id="patch_129">
    <path clip-path="url(#p2c18ecdffe)" d="M 233.344809 158.510716 
L 237.213453 158.510716 
L 237.213453 154.971668 
L 233.344809 154.971668 
z
" style="fill:#ff0000;"/>
   </g>
   <g id="patch_130">
    <path clip-path="url(#p2c18ecdffe)" d="M 248.819386 161.544185 
L 252.68803 161.544185 
L 252.68803 154.971668 
L 248.819386 154.971668 
z
" style="fill:#ff0000;"/>
   </g>
   <g id="patch_131">
    <path clip-path="url(#p2c18ecdffe)" d="M 264.293962 161.106017 
L 268.162606 161.106017 
L 268.162606 154.971668 
L 264.293962 154.971668 
z
" style="fill:#ff0000;"/>
   </g>
   <g id="patch_132">
    <path clip-path="url(#p2c18ecdffe)" d="M 47.649894 158.002879 
L 51.518538 158.002879 
L 51.518538 154.971668 
L 47.649894 154.971668 
z
" style="fill:#0000ff;"/>
   </g>
   <g id="patch_133">
    <path clip-path="url(#p2c18ecdffe)" d="M 63.12447 158.917577 
L 66.993114 158.917577 
L 66.993114 154.971668 
L 63.12447 154.971668 
z
" style="fill:#0000ff;"/>
   </g>
   <g id="patch_134">
    <path clip-path="url(#p2c18ecdffe)" d="M 78.599047 158.576515 
L 82.467691 158.576515 
L 82.467691 154.971668 
L 78.599047 154.971668 
z
" style="fill:#0000ff;"/>
   </g>
   <g id="patch_135">
    <path clip-path="url(#p2c18ecdffe)" d="M 94.073623 157.834364 
L 97.942267 157.834364 
L 97.942267 154.971668 
L 94.073623 154.971668 
z
" style="fill:#0000ff;"/>
   </g>
   <g id="patch_136">
    <path clip-path="url(#p2c18ecdffe)" d="M 109.548199 158.209241 
L 113.416843 158.209241 
L 113.416843 154.971668 
L 109.548199 154.971668 
z
" style="fill:#0000ff;"/>
   </g>
   <g id="patch_137">
    <path clip-path="url(#p2c18ecdffe)" d="M 125.022775 158.294441 
L 128.891419 158.294441 
L 128.891419 154.971668 
L 125.022775 154.971668 
z
" style="fill:#0000ff;"/>
   </g>
   <g id="patch_138">
    <path clip-path="url(#p2c18ecdffe)" d="M 140.497352 157.318996 
L 144.365996 157.318996 
L 144.365996 154.971668 
L 140.497352 154.971668 
z
" style="fill:#0000ff;"/>
   </g>
   <g id="patch_139">
    <path clip-path="url(#p2c18ecdffe)" d="M 155.971928 157.162507 
L 159.840572 157.162507 
L 159.840572 154.971668 
L 155.971928 154.971668 
z
" style="fill:#0000ff;"/>
   </g>
   <g id="patch_140">
    <path clip-path="url(#p2c18ecdffe)" d="M 171.446504 156.174482 
L 175.315148 156.174482 
L 175.315148 154.971668 
L 171.446504 154.971668 
z
" style="fill:#0000ff;"/>
   </g>
   <g id="patch_141">
    <path clip-path="url(#p2c18ecdffe)" d="M 186.921081 160.147525 
L 190.789725 160.147525 
L 190.789725 154.971668 
L 186.921081 154.971668 
z
" style="fill:#0000ff;"/>
   </g>
   <g id="patch_142">
    <path clip-path="url(#p2c18ecdffe)" d="M 202.395657 246.986906 
L 206.264301 246.986906 
L 206.264301 246.986906 
L 202.395657 246.986906 
z
" style="fill:#0000ff;"/>
   </g>
   <g id="patch_143">
    <path clip-path="url(#p2c18ecdffe)" d="M 217.870233 157.527647 
L 221.738877 157.527647 
L 221.738877 154.971668 
L 217.870233 154.971668 
z
" style="fill:#0000ff;"/>
   </g>
   <g id="patch_144">
    <path clip-path="url(#p2c18ecdffe)" d="M 233.344809 246.986906 
L 237.213453 246.986906 
L 237.213453 246.986906 
L 233.344809 246.986906 
z
" style="fill:#0000ff;"/>
   </g>
   <g id="patch_145">
    <path clip-path="url(#p2c18ecdffe)" d="M 248.819386 246.986906 
L 252.68803 246.986906 
L 252.68803 246.986906 
L 248.819386 246.986906 
z
" style="fill:#0000ff;"/>
   </g>
   <g id="patch_146">
    <path clip-path="url(#p2c18ecdffe)" d="M 264.293962 246.986906 
L 268.162606 246.986906 
L 268.162606 246.986906 
L 264.293962 246.986906 
z
" style="fill:#0000ff;"/>
   </g>
   <g id="matplotlib.axis_3">
    <g id="xtick_8">
     <g id="line2d_11">
      <g>
       <use style="stroke:#000000;stroke-width:0.8;" x="49.584216" xlink:href="#m45897af1e7" y="246.986906"/>
      </g>
     </g>
     <g id="text_17">
      <!-- 1 -->
      <g transform="translate(46.402966 261.585344)scale(0.1 -0.1)">
       <use xlink:href="#DejaVuSans-49"/>
      </g>
     </g>
    </g>
    <g id="xtick_9">
     <g id="line2d_12">
      <g>
       <use style="stroke:#000000;stroke-width:0.8;" x="65.058792" xlink:href="#m45897af1e7" y="246.986906"/>
      </g>
     </g>
    </g>
    <g id="xtick_10">
     <g id="line2d_13">
      <g>
       <use style="stroke:#000000;stroke-width:0.8;" x="80.533369" xlink:href="#m45897af1e7" y="246.986906"/>
      </g>
     </g>
     <g id="text_18">
      <!-- 3 -->
      <g transform="translate(77.352119 261.585344)scale(0.1 -0.1)">
       <use xlink:href="#DejaVuSans-51"/>
      </g>
     </g>
    </g>
    <g id="xtick_11">
     <g id="line2d_14">
      <g>
       <use style="stroke:#000000;stroke-width:0.8;" x="96.007945" xlink:href="#m45897af1e7" y="246.986906"/>
      </g>
     </g>
    </g>
    <g id="xtick_12">
     <g id="line2d_15">
      <g>
       <use style="stroke:#000000;stroke-width:0.8;" x="111.482521" xlink:href="#m45897af1e7" y="246.986906"/>
      </g>
     </g>
     <g id="text_19">
      <!-- 5 -->
      <g transform="translate(108.301271 261.585344)scale(0.1 -0.1)">
       <use xlink:href="#DejaVuSans-53"/>
      </g>
     </g>
    </g>
    <g id="xtick_13">
     <g id="line2d_16">
      <g>
       <use style="stroke:#000000;stroke-width:0.8;" x="126.957097" xlink:href="#m45897af1e7" y="246.986906"/>
      </g>
     </g>
    </g>
    <g id="xtick_14">
     <g id="line2d_17">
      <g>
       <use style="stroke:#000000;stroke-width:0.8;" x="142.431674" xlink:href="#m45897af1e7" y="246.986906"/>
      </g>
     </g>
     <g id="text_20">
      <!-- 7 -->
      <g transform="translate(139.250424 261.585344)scale(0.1 -0.1)">
       <use xlink:href="#DejaVuSans-55"/>
      </g>
     </g>
    </g>
    <g id="xtick_15">
     <g id="line2d_18">
      <g>
       <use style="stroke:#000000;stroke-width:0.8;" x="157.90625" xlink:href="#m45897af1e7" y="246.986906"/>
      </g>
     </g>
    </g>
    <g id="xtick_16">
     <g id="line2d_19">
      <g>
       <use style="stroke:#000000;stroke-width:0.8;" x="173.380826" xlink:href="#m45897af1e7" y="246.986906"/>
      </g>
     </g>
     <g id="text_21">
      <!-- 9 -->
      <g transform="translate(170.199576 261.585344)scale(0.1 -0.1)">
       <use xlink:href="#DejaVuSans-57"/>
      </g>
     </g>
    </g>
    <g id="xtick_17">
     <g id="line2d_20">
      <g>
       <use style="stroke:#000000;stroke-width:0.8;" x="188.855403" xlink:href="#m45897af1e7" y="246.986906"/>
      </g>
     </g>
    </g>
    <g id="xtick_18">
     <g id="line2d_21">
      <g>
       <use style="stroke:#000000;stroke-width:0.8;" x="204.329979" xlink:href="#m45897af1e7" y="246.986906"/>
      </g>
     </g>
     <g id="text_22">
      <!-- 11 -->
      <g transform="translate(197.967479 261.585344)scale(0.1 -0.1)">
       <use xlink:href="#DejaVuSans-49"/>
       <use x="63.623047" xlink:href="#DejaVuSans-49"/>
      </g>
     </g>
    </g>
    <g id="xtick_19">
     <g id="line2d_22">
      <g>
       <use style="stroke:#000000;stroke-width:0.8;" x="219.804555" xlink:href="#m45897af1e7" y="246.986906"/>
      </g>
     </g>
    </g>
    <g id="xtick_20">
     <g id="line2d_23">
      <g>
       <use style="stroke:#000000;stroke-width:0.8;" x="235.279131" xlink:href="#m45897af1e7" y="246.986906"/>
      </g>
     </g>
     <g id="text_23">
      <!-- 13 -->
      <g transform="translate(228.916631 261.585344)scale(0.1 -0.1)">
       <use xlink:href="#DejaVuSans-49"/>
       <use x="63.623047" xlink:href="#DejaVuSans-51"/>
      </g>
     </g>
    </g>
    <g id="xtick_21">
     <g id="line2d_24">
      <g>
       <use style="stroke:#000000;stroke-width:0.8;" x="250.753708" xlink:href="#m45897af1e7" y="246.986906"/>
      </g>
     </g>
    </g>
    <g id="xtick_22">
     <g id="line2d_25">
      <g>
       <use style="stroke:#000000;stroke-width:0.8;" x="266.228284" xlink:href="#m45897af1e7" y="246.986906"/>
      </g>
     </g>
     <g id="text_24">
      <!-- 15 -->
      <g transform="translate(259.865784 261.585344)scale(0.1 -0.1)">
       <use xlink:href="#DejaVuSans-49"/>
       <use x="63.623047" xlink:href="#DejaVuSans-53"/>
      </g>
     </g>
    </g>
    <g id="text_25">
     <!-- number of nuclei neighbors -->
     <g transform="translate(88.992969 275.263469)scale(0.1 -0.1)">
      <use xlink:href="#DejaVuSans-110"/>
      <use x="63.378906" xlink:href="#DejaVuSans-117"/>
      <use x="126.757812" xlink:href="#DejaVuSans-109"/>
      <use x="224.169922" xlink:href="#DejaVuSans-98"/>
      <use x="287.646484" xlink:href="#DejaVuSans-101"/>
      <use x="349.169922" xlink:href="#DejaVuSans-114"/>
      <use x="390.283203" xlink:href="#DejaVuSans-32"/>
      <use x="422.070312" xlink:href="#DejaVuSans-111"/>
      <use x="483.251953" xlink:href="#DejaVuSans-102"/>
      <use x="518.457031" xlink:href="#DejaVuSans-32"/>
      <use x="550.244141" xlink:href="#DejaVuSans-110"/>
      <use x="613.623047" xlink:href="#DejaVuSans-117"/>
      <use x="677.001953" xlink:href="#DejaVuSans-99"/>
      <use x="731.982422" xlink:href="#DejaVuSans-108"/>
      <use x="759.765625" xlink:href="#DejaVuSans-101"/>
      <use x="821.289062" xlink:href="#DejaVuSans-105"/>
      <use x="849.072266" xlink:href="#DejaVuSans-32"/>
      <use x="880.859375" xlink:href="#DejaVuSans-110"/>
      <use x="944.238281" xlink:href="#DejaVuSans-101"/>
      <use x="1005.761719" xlink:href="#DejaVuSans-105"/>
      <use x="1033.544922" xlink:href="#DejaVuSans-103"/>
      <use x="1097.021484" xlink:href="#DejaVuSans-104"/>
      <use x="1160.400391" xlink:href="#DejaVuSans-98"/>
      <use x="1223.876953" xlink:href="#DejaVuSans-111"/>
      <use x="1285.058594" xlink:href="#DejaVuSans-114"/>
      <use x="1326.171875" xlink:href="#DejaVuSans-115"/>
     </g>
    </g>
   </g>
   <g id="matplotlib.axis_4">
    <g id="ytick_4">
     <g id="line2d_26">
      <g>
       <use style="stroke:#000000;stroke-width:0.8;" x="43.78125" xlink:href="#mb8302da866" y="246.986906"/>
      </g>
     </g>
     <g id="text_26">
      <!-- 0.0 -->
      <g transform="translate(20.878125 250.786125)scale(0.1 -0.1)">
       <use xlink:href="#DejaVuSans-48"/>
       <use x="63.623047" xlink:href="#DejaVuSans-46"/>
       <use x="95.410156" xlink:href="#DejaVuSans-48"/>
      </g>
     </g>
    </g>
    <g id="ytick_5">
     <g id="line2d_27">
      <g>
       <use style="stroke:#000000;stroke-width:0.8;" x="43.78125" xlink:href="#mb8302da866" y="200.979287"/>
      </g>
     </g>
     <g id="text_27">
      <!-- 0.5 -->
      <g transform="translate(20.878125 204.778506)scale(0.1 -0.1)">
       <use xlink:href="#DejaVuSans-48"/>
       <use x="63.623047" xlink:href="#DejaVuSans-46"/>
       <use x="95.410156" xlink:href="#DejaVuSans-53"/>
      </g>
     </g>
    </g>
    <g id="ytick_6">
     <g id="line2d_28">
      <g>
       <use style="stroke:#000000;stroke-width:0.8;" x="43.78125" xlink:href="#mb8302da866" y="154.971668"/>
      </g>
     </g>
     <g id="text_28">
      <!-- 1.0 -->
      <g transform="translate(20.878125 158.770887)scale(0.1 -0.1)">
       <use xlink:href="#DejaVuSans-49"/>
       <use x="63.623047" xlink:href="#DejaVuSans-46"/>
       <use x="95.410156" xlink:href="#DejaVuSans-48"/>
      </g>
     </g>
    </g>
    <g id="text_29">
     <!-- El angle of neighbors -->
     <g transform="translate(14.798438 251.557812)rotate(-90)scale(0.1 -0.1)">
      <use xlink:href="#DejaVuSans-69"/>
      <use x="63.183594" xlink:href="#DejaVuSans-108"/>
      <use x="90.966797" xlink:href="#DejaVuSans-32"/>
      <use x="122.753906" xlink:href="#DejaVuSans-97"/>
      <use x="184.033203" xlink:href="#DejaVuSans-110"/>
      <use x="247.412109" xlink:href="#DejaVuSans-103"/>
      <use x="310.888672" xlink:href="#DejaVuSans-108"/>
      <use x="338.671875" xlink:href="#DejaVuSans-101"/>
      <use x="400.195312" xlink:href="#DejaVuSans-32"/>
      <use x="431.982422" xlink:href="#DejaVuSans-111"/>
      <use x="493.164062" xlink:href="#DejaVuSans-102"/>
      <use x="528.369141" xlink:href="#DejaVuSans-32"/>
      <use x="560.15625" xlink:href="#DejaVuSans-110"/>
      <use x="623.535156" xlink:href="#DejaVuSans-101"/>
      <use x="685.058594" xlink:href="#DejaVuSans-105"/>
      <use x="712.841797" xlink:href="#DejaVuSans-103"/>
      <use x="776.318359" xlink:href="#DejaVuSans-104"/>
      <use x="839.697266" xlink:href="#DejaVuSans-98"/>
      <use x="903.173828" xlink:href="#DejaVuSans-111"/>
      <use x="964.355469" xlink:href="#DejaVuSans-114"/>
      <use x="1005.46875" xlink:href="#DejaVuSans-115"/>
     </g>
    </g>
   </g>
   <g id="patch_147">
    <path d="M 43.78125 246.986906 
L 43.78125 150.370906 
" style="fill:none;stroke:#000000;stroke-linecap:square;stroke-linejoin:miter;stroke-width:0.8;"/>
   </g>
   <g id="patch_148">
    <path d="M 272.03125 246.986906 
L 272.03125 150.370906 
" style="fill:none;stroke:#000000;stroke-linecap:square;stroke-linejoin:miter;stroke-width:0.8;"/>
   </g>
   <g id="patch_149">
    <path d="M 43.78125 246.986906 
L 272.03125 246.986906 
" style="fill:none;stroke:#000000;stroke-linecap:square;stroke-linejoin:miter;stroke-width:0.8;"/>
   </g>
   <g id="patch_150">
    <path d="M 43.78125 150.370906 
L 272.03125 150.370906 
" style="fill:none;stroke:#000000;stroke-linecap:square;stroke-linejoin:miter;stroke-width:0.8;"/>
   </g>
   <g id="legend_2">
    <g id="patch_151">
     <path d="M 281.792188 217.791801 
L 324.89375 217.791801 
Q 326.09375 217.791801 326.09375 216.591801 
L 326.09375 151.672426 
Q 326.09375 150.472426 324.89375 150.472426 
L 281.792188 150.472426 
Q 280.592188 150.472426 280.592188 151.672426 
L 280.592188 216.591801 
Q 280.592188 217.791801 281.792188 217.791801 
z
" style="fill:#ffffff;opacity:0.8;stroke:#cccccc;stroke-linejoin:miter;"/>
    </g>
    <g id="text_30">
     <!-- Clusters -->
     <g transform="translate(282.992188 160.470864)scale(0.1 -0.1)">
      <defs>
       <path d="M 18.3125 70.21875 
L 18.3125 54.6875 
L 36.8125 54.6875 
L 36.8125 47.703125 
L 18.3125 47.703125 
L 18.3125 18.015625 
Q 18.3125 11.328125 20.140625 9.421875 
Q 21.96875 7.515625 27.59375 7.515625 
L 36.8125 7.515625 
L 36.8125 0 
L 27.59375 0 
Q 17.1875 0 13.234375 3.875 
Q 9.28125 7.765625 9.28125 18.015625 
L 9.28125 47.703125 
L 2.6875 47.703125 
L 2.6875 54.6875 
L 9.28125 54.6875 
L 9.28125 70.21875 
z
" id="DejaVuSans-116"/>
      </defs>
      <use xlink:href="#DejaVuSans-67"/>
      <use x="69.824219" xlink:href="#DejaVuSans-108"/>
      <use x="97.607422" xlink:href="#DejaVuSans-117"/>
      <use x="160.986328" xlink:href="#DejaVuSans-115"/>
      <use x="213.085938" xlink:href="#DejaVuSans-116"/>
      <use x="252.294922" xlink:href="#DejaVuSans-101"/>
      <use x="313.818359" xlink:href="#DejaVuSans-114"/>
      <use x="354.931641" xlink:href="#DejaVuSans-115"/>
     </g>
    </g>
    <g id="patch_152">
     <path d="M 283.711719 170.109614 
L 295.711719 170.109614 
L 295.711719 165.909614 
L 283.711719 165.909614 
z
" style="fill:#bfbf00;"/>
    </g>
    <g id="text_31">
     <!-- 0-&lt;15 -->
     <g transform="translate(300.511719 170.109614)scale(0.06 -0.06)">
      <use xlink:href="#DejaVuSans-48"/>
      <use x="63.623047" xlink:href="#DejaVuSans-45"/>
      <use x="99.707031" xlink:href="#DejaVuSans-60"/>
      <use x="183.496094" xlink:href="#DejaVuSans-49"/>
      <use x="247.119141" xlink:href="#DejaVuSans-53"/>
     </g>
    </g>
    <g id="patch_153">
     <path d="M 283.711719 178.916489 
L 295.711719 178.916489 
L 295.711719 174.716489 
L 283.711719 174.716489 
z
" style="fill:#00bfbf;"/>
    </g>
    <g id="text_32">
     <!-- 15-&lt;30 -->
     <g transform="translate(300.511719 178.916489)scale(0.06 -0.06)">
      <use xlink:href="#DejaVuSans-49"/>
      <use x="63.623047" xlink:href="#DejaVuSans-53"/>
      <use x="127.246094" xlink:href="#DejaVuSans-45"/>
      <use x="163.330078" xlink:href="#DejaVuSans-60"/>
      <use x="247.119141" xlink:href="#DejaVuSans-51"/>
      <use x="310.742188" xlink:href="#DejaVuSans-48"/>
     </g>
    </g>
    <g id="patch_154">
     <path d="M 283.711719 187.723364 
L 295.711719 187.723364 
L 295.711719 183.523364 
L 283.711719 183.523364 
z
" style="fill:#008000;"/>
    </g>
    <g id="text_33">
     <!-- 30-&lt;45 -->
     <g transform="translate(300.511719 187.723364)scale(0.06 -0.06)">
      <use xlink:href="#DejaVuSans-51"/>
      <use x="63.623047" xlink:href="#DejaVuSans-48"/>
      <use x="127.246094" xlink:href="#DejaVuSans-45"/>
      <use x="163.330078" xlink:href="#DejaVuSans-60"/>
      <use x="247.119141" xlink:href="#DejaVuSans-52"/>
      <use x="310.742188" xlink:href="#DejaVuSans-53"/>
     </g>
    </g>
    <g id="patch_155">
     <path d="M 283.711719 196.530239 
L 295.711719 196.530239 
L 295.711719 192.330239 
L 283.711719 192.330239 
z
" style="fill:#bf00bf;"/>
    </g>
    <g id="text_34">
     <!-- 45-&lt;60 -->
     <g transform="translate(300.511719 196.530239)scale(0.06 -0.06)">
      <use xlink:href="#DejaVuSans-52"/>
      <use x="63.623047" xlink:href="#DejaVuSans-53"/>
      <use x="127.246094" xlink:href="#DejaVuSans-45"/>
      <use x="163.330078" xlink:href="#DejaVuSans-60"/>
      <use x="247.119141" xlink:href="#DejaVuSans-54"/>
      <use x="310.742188" xlink:href="#DejaVuSans-48"/>
     </g>
    </g>
    <g id="patch_156">
     <path d="M 283.711719 205.337114 
L 295.711719 205.337114 
L 295.711719 201.137114 
L 283.711719 201.137114 
z
" style="fill:#ff0000;"/>
    </g>
    <g id="text_35">
     <!-- 60-&lt;75 -->
     <g transform="translate(300.511719 205.337114)scale(0.06 -0.06)">
      <use xlink:href="#DejaVuSans-54"/>
      <use x="63.623047" xlink:href="#DejaVuSans-48"/>
      <use x="127.246094" xlink:href="#DejaVuSans-45"/>
      <use x="163.330078" xlink:href="#DejaVuSans-60"/>
      <use x="247.119141" xlink:href="#DejaVuSans-55"/>
      <use x="310.742188" xlink:href="#DejaVuSans-53"/>
     </g>
    </g>
    <g id="patch_157">
     <path d="M 283.711719 214.143989 
L 295.711719 214.143989 
L 295.711719 209.943989 
L 283.711719 209.943989 
z
" style="fill:#0000ff;"/>
    </g>
    <g id="text_36">
     <!-- 75-90 -->
     <g transform="translate(300.511719 214.143989)scale(0.06 -0.06)">
      <use xlink:href="#DejaVuSans-55"/>
      <use x="63.623047" xlink:href="#DejaVuSans-53"/>
      <use x="127.246094" xlink:href="#DejaVuSans-45"/>
      <use x="163.330078" xlink:href="#DejaVuSans-57"/>
      <use x="226.953125" xlink:href="#DejaVuSans-48"/>
     </g>
    </g>
   </g>
  </g>
 </g>
 <defs>
  <clipPath id="p21ed7078b9">
   <rect height="96.616" width="228.25" x="43.78125" y="11.770906"/>
  </clipPath>
  <clipPath id="p2c18ecdffe">
   <rect height="96.616" width="228.25" x="43.78125" y="150.370906"/>
  </clipPath>
 </defs>
</svg>
