<?xml version="1.0" encoding="utf-8" standalone="no"?>
<!DOCTYPE svg PUBLIC "-//W3C//DTD SVG 1.1//EN"
  "http://www.w3.org/Graphics/SVG/1.1/DTD/svg11.dtd">
<!-- Created with matplotlib (https://matplotlib.org/) -->
<svg height="284.543156pt" version="1.1" viewBox="0 0 333.29375 284.543156" width="333.29375pt" xmlns="http://www.w3.org/2000/svg" xmlns:xlink="http://www.w3.org/1999/xlink">
 <metadata>
  <rdf:RDF xmlns:cc="http://creativecommons.org/ns#" xmlns:dc="http://purl.org/dc/elements/1.1/" xmlns:rdf="http://www.w3.org/1999/02/22-rdf-syntax-ns#">
   <cc:Work>
    <dc:type rdf:resource="http://purl.org/dc/dcmitype/StillImage"/>
    <dc:date>2023-11-13T05:31:56.646916</dc:date>
    <dc:format>image/svg+xml</dc:format>
    <dc:creator>
     <cc:Agent>
      <dc:title>Matplotlib v3.3.4, https://matplotlib.org/</dc:title>
     </cc:Agent>
    </dc:creator>
   </cc:Work>
  </rdf:RDF>
 </metadata>
 <defs>
  <style type="text/css">*{stroke-linecap:butt;stroke-linejoin:round;}</style>
 </defs>
 <g id="figure_1">
  <g id="patch_1">
   <path d="M 0 284.543156 
L 333.29375 284.543156 
L 333.29375 0 
L 0 0 
z
" style="fill:#ffffff;"/>
  </g>
  <g id="axes_1">
   <g id="patch_2">
    <path d="M 43.78125 108.386906 
L 272.03125 108.386906 
L 272.03125 11.770906 
L 43.78125 11.770906 
z
" style="fill:#ffffff;"/>
   </g>
   <g id="patch_3">
    <path clip-path="url(#p0f57ff5e7a)" d="M 47.404266 108.386906 
L 51.027282 108.386906 
L 51.027282 99.936527 
L 47.404266 99.936527 
z
" style="fill:#bfbf00;"/>
   </g>
   <g id="patch_4">
    <path clip-path="url(#p0f57ff5e7a)" d="M 61.896329 108.386906 
L 65.519345 108.386906 
L 65.519345 94.816314 
L 61.896329 94.816314 
z
" style="fill:#bfbf00;"/>
   </g>
   <g id="patch_5">
    <path clip-path="url(#p0f57ff5e7a)" d="M 76.388393 108.386906 
L 80.011409 108.386906 
L 80.011409 94.477626 
L 76.388393 94.477626 
z
" style="fill:#bfbf00;"/>
   </g>
   <g id="patch_6">
    <path clip-path="url(#p0f57ff5e7a)" d="M 90.880456 108.386906 
L 94.503472 108.386906 
L 94.503472 88.749508 
L 90.880456 88.749508 
z
" style="fill:#bfbf00;"/>
   </g>
   <g id="patch_7">
    <path clip-path="url(#p0f57ff5e7a)" d="M 105.37252 108.386906 
L 108.995536 108.386906 
L 108.995536 91.824163 
L 105.37252 91.824163 
z
" style="fill:#bfbf00;"/>
   </g>
   <g id="patch_8">
    <path clip-path="url(#p0f57ff5e7a)" d="M 119.864583 108.386906 
L 123.487599 108.386906 
L 123.487599 88.669355 
L 119.864583 88.669355 
z
" style="fill:#bfbf00;"/>
   </g>
   <g id="patch_9">
    <path clip-path="url(#p0f57ff5e7a)" d="M 134.356647 108.386906 
L 137.979663 108.386906 
L 137.979663 93.36401 
L 134.356647 93.36401 
z
" style="fill:#bfbf00;"/>
   </g>
   <g id="patch_10">
    <path clip-path="url(#p0f57ff5e7a)" d="M 148.84871 108.386906 
L 152.471726 108.386906 
L 152.471726 85.383097 
L 148.84871 85.383097 
z
" style="fill:#bfbf00;"/>
   </g>
   <g id="patch_11">
    <path clip-path="url(#p0f57ff5e7a)" d="M 163.340774 108.386906 
L 166.96379 108.386906 
L 166.96379 93.051033 
L 163.340774 93.051033 
z
" style="fill:#bfbf00;"/>
   </g>
   <g id="patch_12">
    <path clip-path="url(#p0f57ff5e7a)" d="M 177.832837 108.386906 
L 181.455853 108.386906 
L 181.455853 97.345078 
L 177.832837 97.345078 
z
" style="fill:#bfbf00;"/>
   </g>
   <g id="patch_13">
    <path clip-path="url(#p0f57ff5e7a)" d="M 192.324901 108.386906 
L 195.947917 108.386906 
L 195.947917 93.329867 
L 192.324901 93.329867 
z
" style="fill:#bfbf00;"/>
   </g>
   <g id="patch_14">
    <path clip-path="url(#p0f57ff5e7a)" d="M 206.816964 108.386906 
L 210.43998 108.386906 
L 210.43998 85.383097 
L 206.816964 85.383097 
z
" style="fill:#bfbf00;"/>
   </g>
   <g id="patch_15">
    <path clip-path="url(#p0f57ff5e7a)" d="M 221.309028 108.386906 
L 224.932044 108.386906 
L 224.932044 87.152621 
L 221.309028 87.152621 
z
" style="fill:#bfbf00;"/>
   </g>
   <g id="patch_16">
    <path clip-path="url(#p0f57ff5e7a)" d="M 235.801091 108.386906 
L 239.424107 108.386906 
L 239.424107 95.241872 
L 235.801091 95.241872 
z
" style="fill:#bfbf00;"/>
   </g>
   <g id="patch_17">
    <path clip-path="url(#p0f57ff5e7a)" d="M 250.293155 108.386906 
L 253.916171 108.386906 
L 253.916171 89.983859 
L 250.293155 89.983859 
z
" style="fill:#bfbf00;"/>
   </g>
   <g id="patch_18">
    <path clip-path="url(#p0f57ff5e7a)" d="M 264.785218 108.386906 
L 268.408234 108.386906 
L 268.408234 85.383097 
L 264.785218 85.383097 
z
" style="fill:#bfbf00;"/>
   </g>
   <g id="patch_19">
    <path clip-path="url(#p0f57ff5e7a)" d="M 47.404266 99.936527 
L 51.027282 99.936527 
L 51.027282 91.486148 
L 47.404266 91.486148 
z
" style="fill:#00bfbf;"/>
   </g>
   <g id="patch_20">
    <path clip-path="url(#p0f57ff5e7a)" d="M 61.896329 94.816314 
L 65.519345 94.816314 
L 65.519345 79.259781 
L 61.896329 79.259781 
z
" style="fill:#00bfbf;"/>
   </g>
   <g id="patch_21">
    <path clip-path="url(#p0f57ff5e7a)" d="M 76.388393 94.477626 
L 80.011409 94.477626 
L 80.011409 79.498401 
L 76.388393 79.498401 
z
" style="fill:#00bfbf;"/>
   </g>
   <g id="patch_22">
    <path clip-path="url(#p0f57ff5e7a)" d="M 90.880456 88.749508 
L 94.503472 88.749508 
L 94.503472 75.283863 
L 90.880456 75.283863 
z
" style="fill:#00bfbf;"/>
   </g>
   <g id="patch_23">
    <path clip-path="url(#p0f57ff5e7a)" d="M 105.37252 91.824163 
L 108.995536 91.824163 
L 108.995536 72.194246 
L 105.37252 72.194246 
z
" style="fill:#00bfbf;"/>
   </g>
   <g id="patch_24">
    <path clip-path="url(#p0f57ff5e7a)" d="M 119.864583 88.669355 
L 123.487599 88.669355 
L 123.487599 70.047224 
L 119.864583 70.047224 
z
" style="fill:#00bfbf;"/>
   </g>
   <g id="patch_25">
    <path clip-path="url(#p0f57ff5e7a)" d="M 134.356647 93.36401 
L 137.979663 93.36401 
L 137.979663 67.073942 
L 134.356647 67.073942 
z
" style="fill:#00bfbf;"/>
   </g>
   <g id="patch_26">
    <path clip-path="url(#p0f57ff5e7a)" d="M 148.84871 85.383097 
L 152.471726 85.383097 
L 152.471726 66.980049 
L 148.84871 66.980049 
z
" style="fill:#00bfbf;"/>
   </g>
   <g id="patch_27">
    <path clip-path="url(#p0f57ff5e7a)" d="M 163.340774 93.051033 
L 166.96379 93.051033 
L 166.96379 76.011174 
L 163.340774 76.011174 
z
" style="fill:#00bfbf;"/>
   </g>
   <g id="patch_28">
    <path clip-path="url(#p0f57ff5e7a)" d="M 177.832837 97.345078 
L 181.455853 97.345078 
L 181.455853 78.94203 
L 177.832837 78.94203 
z
" style="fill:#00bfbf;"/>
   </g>
   <g id="patch_29">
    <path clip-path="url(#p0f57ff5e7a)" d="M 192.324901 93.329867 
L 195.947917 93.329867 
L 195.947917 64.888794 
L 192.324901 64.888794 
z
" style="fill:#00bfbf;"/>
   </g>
   <g id="patch_30">
    <path clip-path="url(#p0f57ff5e7a)" d="M 206.816964 85.383097 
L 210.43998 85.383097 
L 210.43998 66.213255 
L 206.816964 66.213255 
z
" style="fill:#00bfbf;"/>
   </g>
   <g id="patch_31">
    <path clip-path="url(#p0f57ff5e7a)" d="M 221.309028 87.152621 
L 224.932044 87.152621 
L 224.932044 65.918335 
L 221.309028 65.918335 
z
" style="fill:#00bfbf;"/>
   </g>
   <g id="patch_32">
    <path clip-path="url(#p0f57ff5e7a)" d="M 235.801091 95.241872 
L 239.424107 95.241872 
L 239.424107 75.524321 
L 235.801091 75.524321 
z
" style="fill:#00bfbf;"/>
   </g>
   <g id="patch_33">
    <path clip-path="url(#p0f57ff5e7a)" d="M 250.293155 89.983859 
L 253.916171 89.983859 
L 253.916171 71.580811 
L 250.293155 71.580811 
z
" style="fill:#00bfbf;"/>
   </g>
   <g id="patch_34">
    <path clip-path="url(#p0f57ff5e7a)" d="M 264.785218 85.383097 
L 268.408234 85.383097 
L 268.408234 68.13024 
L 264.785218 68.13024 
z
" style="fill:#00bfbf;"/>
   </g>
   <g id="patch_35">
    <path clip-path="url(#p0f57ff5e7a)" d="M 47.404266 91.486148 
L 51.027282 91.486148 
L 51.027282 80.218976 
L 47.404266 80.218976 
z
" style="fill:#008000;"/>
   </g>
   <g id="patch_36">
    <path clip-path="url(#p0f57ff5e7a)" d="M 61.896329 79.259781 
L 65.519345 79.259781 
L 65.519345 61.717307 
L 61.896329 61.717307 
z
" style="fill:#008000;"/>
   </g>
   <g id="patch_37">
    <path clip-path="url(#p0f57ff5e7a)" d="M 76.388393 79.498401 
L 80.011409 79.498401 
L 80.011409 57.029564 
L 76.388393 57.029564 
z
" style="fill:#008000;"/>
   </g>
   <g id="patch_38">
    <path clip-path="url(#p0f57ff5e7a)" d="M 90.880456 75.283863 
L 94.503472 75.283863 
L 94.503472 55.085396 
L 90.880456 55.085396 
z
" style="fill:#008000;"/>
   </g>
   <g id="patch_39">
    <path clip-path="url(#p0f57ff5e7a)" d="M 105.37252 72.194246 
L 108.995536 72.194246 
L 108.995536 53.791198 
L 105.37252 53.791198 
z
" style="fill:#008000;"/>
   </g>
   <g id="patch_40">
    <path clip-path="url(#p0f57ff5e7a)" d="M 119.864583 70.047224 
L 123.487599 70.047224 
L 123.487599 48.138834 
L 119.864583 48.138834 
z
" style="fill:#008000;"/>
   </g>
   <g id="patch_41">
    <path clip-path="url(#p0f57ff5e7a)" d="M 134.356647 67.073942 
L 137.979663 67.073942 
L 137.979663 52.051046 
L 134.356647 52.051046 
z
" style="fill:#008000;"/>
   </g>
   <g id="patch_42">
    <path clip-path="url(#p0f57ff5e7a)" d="M 148.84871 66.980049 
L 152.471726 66.980049 
L 152.471726 53.177763 
L 148.84871 53.177763 
z
" style="fill:#008000;"/>
   </g>
   <g id="patch_43">
    <path clip-path="url(#p0f57ff5e7a)" d="M 163.340774 76.011174 
L 166.96379 76.011174 
L 166.96379 62.379287 
L 163.340774 62.379287 
z
" style="fill:#008000;"/>
   </g>
   <g id="patch_44">
    <path clip-path="url(#p0f57ff5e7a)" d="M 177.832837 78.94203 
L 181.455853 78.94203 
L 181.455853 45.816544 
L 177.832837 45.816544 
z
" style="fill:#008000;"/>
   </g>
   <g id="patch_45">
    <path clip-path="url(#p0f57ff5e7a)" d="M 192.324901 64.888794 
L 195.947917 64.888794 
L 195.947917 48.15875 
L 192.324901 48.15875 
z
" style="fill:#008000;"/>
   </g>
   <g id="patch_46">
    <path clip-path="url(#p0f57ff5e7a)" d="M 206.816964 66.213255 
L 210.43998 66.213255 
L 210.43998 50.877382 
L 206.816964 50.877382 
z
" style="fill:#008000;"/>
   </g>
   <g id="patch_47">
    <path clip-path="url(#p0f57ff5e7a)" d="M 221.309028 65.918335 
L 224.932044 65.918335 
L 224.932044 51.762144 
L 221.309028 51.762144 
z
" style="fill:#008000;"/>
   </g>
   <g id="patch_48">
    <path clip-path="url(#p0f57ff5e7a)" d="M 235.801091 75.524321 
L 239.424107 75.524321 
L 239.424107 55.80677 
L 235.801091 55.80677 
z
" style="fill:#008000;"/>
   </g>
   <g id="patch_49">
    <path clip-path="url(#p0f57ff5e7a)" d="M 250.293155 71.580811 
L 253.916171 71.580811 
L 253.916171 53.177763 
L 250.293155 53.177763 
z
" style="fill:#008000;"/>
   </g>
   <g id="patch_50">
    <path clip-path="url(#p0f57ff5e7a)" d="M 264.785218 68.13024 
L 268.408234 68.13024 
L 268.408234 56.628335 
L 264.785218 56.628335 
z
" style="fill:#008000;"/>
   </g>
   <g id="patch_51">
    <path clip-path="url(#p0f57ff5e7a)" d="M 47.404266 80.218976 
L 51.027282 80.218976 
L 51.027282 68.012873 
L 47.404266 68.012873 
z
" style="fill:#bf00bf;"/>
   </g>
   <g id="patch_52">
    <path clip-path="url(#p0f57ff5e7a)" d="M 61.896329 61.717307 
L 65.519345 61.717307 
L 65.519345 42.850873 
L 61.896329 42.850873 
z
" style="fill:#bf00bf;"/>
   </g>
   <g id="patch_53">
    <path clip-path="url(#p0f57ff5e7a)" d="M 76.388393 57.029564 
L 80.011409 57.029564 
L 80.011409 39.91045 
L 76.388393 39.91045 
z
" style="fill:#bf00bf;"/>
   </g>
   <g id="patch_54">
    <path clip-path="url(#p0f57ff5e7a)" d="M 90.880456 55.085396 
L 94.503472 55.085396 
L 94.503472 38.253341 
L 90.880456 38.253341 
z
" style="fill:#bf00bf;"/>
   </g>
   <g id="patch_55">
    <path clip-path="url(#p0f57ff5e7a)" d="M 105.37252 53.791198 
L 108.995536 53.791198 
L 108.995536 38.455325 
L 105.37252 38.455325 
z
" style="fill:#bf00bf;"/>
   </g>
   <g id="patch_56">
    <path clip-path="url(#p0f57ff5e7a)" d="M 119.864583 48.138834 
L 123.487599 48.138834 
L 123.487599 30.612122 
L 119.864583 30.612122 
z
" style="fill:#bf00bf;"/>
   </g>
   <g id="patch_57">
    <path clip-path="url(#p0f57ff5e7a)" d="M 134.356647 52.051046 
L 137.979663 52.051046 
L 137.979663 35.150288 
L 134.356647 35.150288 
z
" style="fill:#bf00bf;"/>
   </g>
   <g id="patch_58">
    <path clip-path="url(#p0f57ff5e7a)" d="M 148.84871 53.177763 
L 152.471726 53.177763 
L 152.471726 29.023763 
L 148.84871 29.023763 
z
" style="fill:#bf00bf;"/>
   </g>
   <g id="patch_59">
    <path clip-path="url(#p0f57ff5e7a)" d="M 163.340774 62.379287 
L 166.96379 62.379287 
L 166.96379 28.299569 
L 163.340774 28.299569 
z
" style="fill:#bf00bf;"/>
   </g>
   <g id="patch_60">
    <path clip-path="url(#p0f57ff5e7a)" d="M 177.832837 45.816544 
L 181.455853 45.816544 
L 181.455853 29.253801 
L 177.832837 29.253801 
z
" style="fill:#bf00bf;"/>
   </g>
   <g id="patch_61">
    <path clip-path="url(#p0f57ff5e7a)" d="M 192.324901 48.15875 
L 195.947917 48.15875 
L 195.947917 29.755703 
L 192.324901 29.755703 
z
" style="fill:#bf00bf;"/>
   </g>
   <g id="patch_62">
    <path clip-path="url(#p0f57ff5e7a)" d="M 206.816964 50.877382 
L 210.43998 50.877382 
L 210.43998 24.039605 
L 206.816964 24.039605 
z
" style="fill:#bf00bf;"/>
   </g>
   <g id="patch_63">
    <path clip-path="url(#p0f57ff5e7a)" d="M 221.309028 51.762144 
L 224.932044 51.762144 
L 224.932044 30.527859 
L 221.309028 30.527859 
z
" style="fill:#bf00bf;"/>
   </g>
   <g id="patch_64">
    <path clip-path="url(#p0f57ff5e7a)" d="M 235.801091 55.80677 
L 239.424107 55.80677 
L 239.424107 29.516702 
L 235.801091 29.516702 
z
" style="fill:#bf00bf;"/>
   </g>
   <g id="patch_65">
    <path clip-path="url(#p0f57ff5e7a)" d="M 250.293155 53.177763 
L 253.916171 53.177763 
L 253.916171 28.640367 
L 250.293155 28.640367 
z
" style="fill:#bf00bf;"/>
   </g>
   <g id="patch_66">
    <path clip-path="url(#p0f57ff5e7a)" d="M 264.785218 56.628335 
L 268.408234 56.628335 
L 268.408234 33.624525 
L 264.785218 33.624525 
z
" style="fill:#bf00bf;"/>
   </g>
   <g id="patch_67">
    <path clip-path="url(#p0f57ff5e7a)" d="M 47.404266 68.012873 
L 51.027282 68.012873 
L 51.027282 33.272426 
L 47.404266 33.272426 
z
" style="fill:#ff0000;"/>
   </g>
   <g id="patch_68">
    <path clip-path="url(#p0f57ff5e7a)" d="M 61.896329 42.850873 
L 65.519345 42.850873 
L 65.519345 27.95632 
L 61.896329 27.95632 
z
" style="fill:#ff0000;"/>
   </g>
   <g id="patch_69">
    <path clip-path="url(#p0f57ff5e7a)" d="M 76.388393 39.91045 
L 80.011409 39.91045 
L 80.011409 24.217929 
L 76.388393 24.217929 
z
" style="fill:#ff0000;"/>
   </g>
   <g id="patch_70">
    <path clip-path="url(#p0f57ff5e7a)" d="M 90.880456 38.253341 
L 94.503472 38.253341 
L 94.503472 24.226628 
L 90.880456 24.226628 
z
" style="fill:#ff0000;"/>
   </g>
   <g id="patch_71">
    <path clip-path="url(#p0f57ff5e7a)" d="M 105.37252 38.455325 
L 108.995536 38.455325 
L 108.995536 22.506017 
L 105.37252 22.506017 
z
" style="fill:#ff0000;"/>
   </g>
   <g id="patch_72">
    <path clip-path="url(#p0f57ff5e7a)" d="M 119.864583 30.612122 
L 123.487599 30.612122 
L 123.487599 18.562507 
L 119.864583 18.562507 
z
" style="fill:#ff0000;"/>
   </g>
   <g id="patch_73">
    <path clip-path="url(#p0f57ff5e7a)" d="M 134.356647 35.150288 
L 137.979663 35.150288 
L 137.979663 22.005254 
L 134.356647 22.005254 
z
" style="fill:#ff0000;"/>
   </g>
   <g id="patch_74">
    <path clip-path="url(#p0f57ff5e7a)" d="M 148.84871 29.023763 
L 152.471726 29.023763 
L 152.471726 18.672049 
L 148.84871 18.672049 
z
" style="fill:#ff0000;"/>
   </g>
   <g id="patch_75">
    <path clip-path="url(#p0f57ff5e7a)" d="M 163.340774 28.299569 
L 166.96379 28.299569 
L 166.96379 18.075654 
L 163.340774 18.075654 
z
" style="fill:#ff0000;"/>
   </g>
   <g id="patch_76">
    <path clip-path="url(#p0f57ff5e7a)" d="M 177.832837 29.253801 
L 181.455853 29.253801 
L 181.455853 18.211973 
L 177.832837 18.211973 
z
" style="fill:#ff0000;"/>
   </g>
   <g id="patch_77">
    <path clip-path="url(#p0f57ff5e7a)" d="M 192.324901 29.755703 
L 195.947917 29.755703 
L 195.947917 21.390681 
L 192.324901 21.390681 
z
" style="fill:#ff0000;"/>
   </g>
   <g id="patch_78">
    <path clip-path="url(#p0f57ff5e7a)" d="M 206.816964 24.039605 
L 210.43998 24.039605 
L 210.43998 16.371668 
L 206.816964 16.371668 
z
" style="fill:#ff0000;"/>
   </g>
   <g id="patch_79">
    <path clip-path="url(#p0f57ff5e7a)" d="M 221.309028 30.527859 
L 224.932044 30.527859 
L 224.932044 23.449763 
L 221.309028 23.449763 
z
" style="fill:#ff0000;"/>
   </g>
   <g id="patch_80">
    <path clip-path="url(#p0f57ff5e7a)" d="M 235.801091 29.516702 
L 239.424107 29.516702 
L 239.424107 16.371668 
L 235.801091 16.371668 
z
" style="fill:#ff0000;"/>
   </g>
   <g id="patch_81">
    <path clip-path="url(#p0f57ff5e7a)" d="M 250.293155 28.640367 
L 253.916171 28.640367 
L 253.916171 22.506017 
L 250.293155 22.506017 
z
" style="fill:#ff0000;"/>
   </g>
   <g id="patch_82">
    <path clip-path="url(#p0f57ff5e7a)" d="M 264.785218 33.624525 
L 268.408234 33.624525 
L 268.408234 22.122621 
L 264.785218 22.122621 
z
" style="fill:#ff0000;"/>
   </g>
   <g id="patch_83">
    <path clip-path="url(#p0f57ff5e7a)" d="M 47.404266 33.272426 
L 51.027282 33.272426 
L 51.027282 16.371668 
L 47.404266 16.371668 
z
" style="fill:#0000ff;"/>
   </g>
   <g id="patch_84">
    <path clip-path="url(#p0f57ff5e7a)" d="M 61.896329 27.95632 
L 65.519345 27.95632 
L 65.519345 16.371668 
L 61.896329 16.371668 
z
" style="fill:#0000ff;"/>
   </g>
   <g id="patch_85">
    <path clip-path="url(#p0f57ff5e7a)" d="M 76.388393 24.217929 
L 80.011409 24.217929 
L 80.011409 16.371668 
L 76.388393 16.371668 
z
" style="fill:#0000ff;"/>
   </g>
   <g id="patch_86">
    <path clip-path="url(#p0f57ff5e7a)" d="M 90.880456 24.226628 
L 94.503472 24.226628 
L 94.503472 16.371668 
L 90.880456 16.371668 
z
" style="fill:#0000ff;"/>
   </g>
   <g id="patch_87">
    <path clip-path="url(#p0f57ff5e7a)" d="M 105.37252 22.506017 
L 108.995536 22.506017 
L 108.995536 16.371668 
L 105.37252 16.371668 
z
" style="fill:#0000ff;"/>
   </g>
   <g id="patch_88">
    <path clip-path="url(#p0f57ff5e7a)" d="M 119.864583 18.562507 
L 123.487599 18.562507 
L 123.487599 16.371668 
L 119.864583 16.371668 
z
" style="fill:#0000ff;"/>
   </g>
   <g id="patch_89">
    <path clip-path="url(#p0f57ff5e7a)" d="M 134.356647 22.005254 
L 137.979663 22.005254 
L 137.979663 16.371668 
L 134.356647 16.371668 
z
" style="fill:#0000ff;"/>
   </g>
   <g id="patch_90">
    <path clip-path="url(#p0f57ff5e7a)" d="M 148.84871 18.672049 
L 152.471726 18.672049 
L 152.471726 16.371668 
L 148.84871 16.371668 
z
" style="fill:#0000ff;"/>
   </g>
   <g id="patch_91">
    <path clip-path="url(#p0f57ff5e7a)" d="M 163.340774 18.075654 
L 166.96379 18.075654 
L 166.96379 16.371668 
L 163.340774 16.371668 
z
" style="fill:#0000ff;"/>
   </g>
   <g id="patch_92">
    <path clip-path="url(#p0f57ff5e7a)" d="M 177.832837 18.211973 
L 181.455853 18.211973 
L 181.455853 16.371668 
L 177.832837 16.371668 
z
" style="fill:#0000ff;"/>
   </g>
   <g id="patch_93">
    <path clip-path="url(#p0f57ff5e7a)" d="M 192.324901 21.390681 
L 195.947917 21.390681 
L 195.947917 16.371668 
L 192.324901 16.371668 
z
" style="fill:#0000ff;"/>
   </g>
   <g id="patch_94">
    <path clip-path="url(#p0f57ff5e7a)" d="M 206.816964 108.386906 
L 210.43998 108.386906 
L 210.43998 108.386906 
L 206.816964 108.386906 
z
" style="fill:#0000ff;"/>
   </g>
   <g id="patch_95">
    <path clip-path="url(#p0f57ff5e7a)" d="M 221.309028 23.449763 
L 224.932044 23.449763 
L 224.932044 16.371668 
L 221.309028 16.371668 
z
" style="fill:#0000ff;"/>
   </g>
   <g id="patch_96">
    <path clip-path="url(#p0f57ff5e7a)" d="M 235.801091 108.386906 
L 239.424107 108.386906 
L 239.424107 108.386906 
L 235.801091 108.386906 
z
" style="fill:#0000ff;"/>
   </g>
   <g id="patch_97">
    <path clip-path="url(#p0f57ff5e7a)" d="M 250.293155 22.506017 
L 253.916171 22.506017 
L 253.916171 16.371668 
L 250.293155 16.371668 
z
" style="fill:#0000ff;"/>
   </g>
   <g id="patch_98">
    <path clip-path="url(#p0f57ff5e7a)" d="M 264.785218 22.122621 
L 268.408234 22.122621 
L 268.408234 16.371668 
L 264.785218 16.371668 
z
" style="fill:#0000ff;"/>
   </g>
   <g id="matplotlib.axis_1">
    <g id="xtick_1">
     <g id="line2d_1">
      <defs>
       <path d="M 0 0 
L 0 3.5 
" id="m4098044cf0" style="stroke:#000000;stroke-width:0.8;"/>
      </defs>
      <g>
       <use style="stroke:#000000;stroke-width:0.8;" x="49.215774" xlink:href="#m4098044cf0" y="108.386906"/>
      </g>
     </g>
     <g id="text_1">
      <!-- 1 -->
      <g transform="translate(46.034524 122.985344)scale(0.1 -0.1)">
       <defs>
        <path d="M 12.40625 8.296875 
L 28.515625 8.296875 
L 28.515625 63.921875 
L 10.984375 60.40625 
L 10.984375 69.390625 
L 28.421875 72.90625 
L 38.28125 72.90625 
L 38.28125 8.296875 
L 54.390625 8.296875 
L 54.390625 0 
L 12.40625 0 
z
" id="DejaVuSans-49"/>
       </defs>
       <use xlink:href="#DejaVuSans-49"/>
      </g>
     </g>
    </g>
    <g id="xtick_2">
     <g id="line2d_2">
      <g>
       <use style="stroke:#000000;stroke-width:0.8;" x="63.707837" xlink:href="#m4098044cf0" y="108.386906"/>
      </g>
     </g>
    </g>
    <g id="xtick_3">
     <g id="line2d_3">
      <g>
       <use style="stroke:#000000;stroke-width:0.8;" x="78.199901" xlink:href="#m4098044cf0" y="108.386906"/>
      </g>
     </g>
     <g id="text_2">
      <!-- 3 -->
      <g transform="translate(75.018651 122.985344)scale(0.1 -0.1)">
       <defs>
        <path d="M 40.578125 39.3125 
Q 47.65625 37.796875 51.625 33 
Q 55.609375 28.21875 55.609375 21.1875 
Q 55.609375 10.40625 48.1875 4.484375 
Q 40.765625 -1.421875 27.09375 -1.421875 
Q 22.515625 -1.421875 17.65625 -0.515625 
Q 12.796875 0.390625 7.625 2.203125 
L 7.625 11.71875 
Q 11.71875 9.328125 16.59375 8.109375 
Q 21.484375 6.890625 26.8125 6.890625 
Q 36.078125 6.890625 40.9375 10.546875 
Q 45.796875 14.203125 45.796875 21.1875 
Q 45.796875 27.640625 41.28125 31.265625 
Q 36.765625 34.90625 28.71875 34.90625 
L 20.21875 34.90625 
L 20.21875 43.015625 
L 29.109375 43.015625 
Q 36.375 43.015625 40.234375 45.921875 
Q 44.09375 48.828125 44.09375 54.296875 
Q 44.09375 59.90625 40.109375 62.90625 
Q 36.140625 65.921875 28.71875 65.921875 
Q 24.65625 65.921875 20.015625 65.03125 
Q 15.375 64.15625 9.8125 62.3125 
L 9.8125 71.09375 
Q 15.4375 72.65625 20.34375 73.4375 
Q 25.25 74.21875 29.59375 74.21875 
Q 40.828125 74.21875 47.359375 69.109375 
Q 53.90625 64.015625 53.90625 55.328125 
Q 53.90625 49.265625 50.4375 45.09375 
Q 46.96875 40.921875 40.578125 39.3125 
z
" id="DejaVuSans-51"/>
       </defs>
       <use xlink:href="#DejaVuSans-51"/>
      </g>
     </g>
    </g>
    <g id="xtick_4">
     <g id="line2d_4">
      <g>
       <use style="stroke:#000000;stroke-width:0.8;" x="92.691964" xlink:href="#m4098044cf0" y="108.386906"/>
      </g>
     </g>
    </g>
    <g id="xtick_5">
     <g id="line2d_5">
      <g>
       <use style="stroke:#000000;stroke-width:0.8;" x="107.184028" xlink:href="#m4098044cf0" y="108.386906"/>
      </g>
     </g>
     <g id="text_3">
      <!-- 5 -->
      <g transform="translate(104.002778 122.985344)scale(0.1 -0.1)">
       <defs>
        <path d="M 10.796875 72.90625 
L 49.515625 72.90625 
L 49.515625 64.59375 
L 19.828125 64.59375 
L 19.828125 46.734375 
Q 21.96875 47.46875 24.109375 47.828125 
Q 26.265625 48.1875 28.421875 48.1875 
Q 40.625 48.1875 47.75 41.5 
Q 54.890625 34.8125 54.890625 23.390625 
Q 54.890625 11.625 47.5625 5.09375 
Q 40.234375 -1.421875 26.90625 -1.421875 
Q 22.3125 -1.421875 17.546875 -0.640625 
Q 12.796875 0.140625 7.71875 1.703125 
L 7.71875 11.625 
Q 12.109375 9.234375 16.796875 8.0625 
Q 21.484375 6.890625 26.703125 6.890625 
Q 35.15625 6.890625 40.078125 11.328125 
Q 45.015625 15.765625 45.015625 23.390625 
Q 45.015625 31 40.078125 35.4375 
Q 35.15625 39.890625 26.703125 39.890625 
Q 22.75 39.890625 18.8125 39.015625 
Q 14.890625 38.140625 10.796875 36.28125 
z
" id="DejaVuSans-53"/>
       </defs>
       <use xlink:href="#DejaVuSans-53"/>
      </g>
     </g>
    </g>
    <g id="xtick_6">
     <g id="line2d_6">
      <g>
       <use style="stroke:#000000;stroke-width:0.8;" x="121.676091" xlink:href="#m4098044cf0" y="108.386906"/>
      </g>
     </g>
    </g>
    <g id="xtick_7">
     <g id="line2d_7">
      <g>
       <use style="stroke:#000000;stroke-width:0.8;" x="136.168155" xlink:href="#m4098044cf0" y="108.386906"/>
      </g>
     </g>
     <g id="text_4">
      <!-- 7 -->
      <g transform="translate(132.986905 122.985344)scale(0.1 -0.1)">
       <defs>
        <path d="M 8.203125 72.90625 
L 55.078125 72.90625 
L 55.078125 68.703125 
L 28.609375 0 
L 18.3125 0 
L 43.21875 64.59375 
L 8.203125 64.59375 
z
" id="DejaVuSans-55"/>
       </defs>
       <use xlink:href="#DejaVuSans-55"/>
      </g>
     </g>
    </g>
    <g id="xtick_8">
     <g id="line2d_8">
      <g>
       <use style="stroke:#000000;stroke-width:0.8;" x="150.660218" xlink:href="#m4098044cf0" y="108.386906"/>
      </g>
     </g>
    </g>
    <g id="xtick_9">
     <g id="line2d_9">
      <g>
       <use style="stroke:#000000;stroke-width:0.8;" x="165.152282" xlink:href="#m4098044cf0" y="108.386906"/>
      </g>
     </g>
     <g id="text_5">
      <!-- 9 -->
      <g transform="translate(161.971032 122.985344)scale(0.1 -0.1)">
       <defs>
        <path d="M 10.984375 1.515625 
L 10.984375 10.5 
Q 14.703125 8.734375 18.5 7.8125 
Q 22.3125 6.890625 25.984375 6.890625 
Q 35.75 6.890625 40.890625 13.453125 
Q 46.046875 20.015625 46.78125 33.40625 
Q 43.953125 29.203125 39.59375 26.953125 
Q 35.25 24.703125 29.984375 24.703125 
Q 19.046875 24.703125 12.671875 31.3125 
Q 6.296875 37.9375 6.296875 49.421875 
Q 6.296875 60.640625 12.9375 67.421875 
Q 19.578125 74.21875 30.609375 74.21875 
Q 43.265625 74.21875 49.921875 64.515625 
Q 56.59375 54.828125 56.59375 36.375 
Q 56.59375 19.140625 48.40625 8.859375 
Q 40.234375 -1.421875 26.421875 -1.421875 
Q 22.703125 -1.421875 18.890625 -0.6875 
Q 15.09375 0.046875 10.984375 1.515625 
z
M 30.609375 32.421875 
Q 37.25 32.421875 41.125 36.953125 
Q 45.015625 41.5 45.015625 49.421875 
Q 45.015625 57.28125 41.125 61.84375 
Q 37.25 66.40625 30.609375 66.40625 
Q 23.96875 66.40625 20.09375 61.84375 
Q 16.21875 57.28125 16.21875 49.421875 
Q 16.21875 41.5 20.09375 36.953125 
Q 23.96875 32.421875 30.609375 32.421875 
z
" id="DejaVuSans-57"/>
       </defs>
       <use xlink:href="#DejaVuSans-57"/>
      </g>
     </g>
    </g>
    <g id="xtick_10">
     <g id="line2d_10">
      <g>
       <use style="stroke:#000000;stroke-width:0.8;" x="179.644345" xlink:href="#m4098044cf0" y="108.386906"/>
      </g>
     </g>
    </g>
    <g id="xtick_11">
     <g id="line2d_11">
      <g>
       <use style="stroke:#000000;stroke-width:0.8;" x="194.136409" xlink:href="#m4098044cf0" y="108.386906"/>
      </g>
     </g>
     <g id="text_6">
      <!-- 11 -->
      <g transform="translate(187.773909 122.985344)scale(0.1 -0.1)">
       <use xlink:href="#DejaVuSans-49"/>
       <use x="63.623047" xlink:href="#DejaVuSans-49"/>
      </g>
     </g>
    </g>
    <g id="xtick_12">
     <g id="line2d_12">
      <g>
       <use style="stroke:#000000;stroke-width:0.8;" x="208.628472" xlink:href="#m4098044cf0" y="108.386906"/>
      </g>
     </g>
    </g>
    <g id="xtick_13">
     <g id="line2d_13">
      <g>
       <use style="stroke:#000000;stroke-width:0.8;" x="223.120536" xlink:href="#m4098044cf0" y="108.386906"/>
      </g>
     </g>
     <g id="text_7">
      <!-- 13 -->
      <g transform="translate(216.758036 122.985344)scale(0.1 -0.1)">
       <use xlink:href="#DejaVuSans-49"/>
       <use x="63.623047" xlink:href="#DejaVuSans-51"/>
      </g>
     </g>
    </g>
    <g id="xtick_14">
     <g id="line2d_14">
      <g>
       <use style="stroke:#000000;stroke-width:0.8;" x="237.612599" xlink:href="#m4098044cf0" y="108.386906"/>
      </g>
     </g>
    </g>
    <g id="xtick_15">
     <g id="line2d_15">
      <g>
       <use style="stroke:#000000;stroke-width:0.8;" x="252.104663" xlink:href="#m4098044cf0" y="108.386906"/>
      </g>
     </g>
     <g id="text_8">
      <!-- 15 -->
      <g transform="translate(245.742163 122.985344)scale(0.1 -0.1)">
       <use xlink:href="#DejaVuSans-49"/>
       <use x="63.623047" xlink:href="#DejaVuSans-53"/>
      </g>
     </g>
    </g>
    <g id="xtick_16">
     <g id="line2d_16">
      <g>
       <use style="stroke:#000000;stroke-width:0.8;" x="266.596726" xlink:href="#m4098044cf0" y="108.386906"/>
      </g>
     </g>
    </g>
    <g id="text_9">
     <!-- number of nuclei neighbors -->
     <g transform="translate(88.992969 136.663469)scale(0.1 -0.1)">
      <defs>
       <path d="M 54.890625 33.015625 
L 54.890625 0 
L 45.90625 0 
L 45.90625 32.71875 
Q 45.90625 40.484375 42.875 44.328125 
Q 39.84375 48.1875 33.796875 48.1875 
Q 26.515625 48.1875 22.3125 43.546875 
Q 18.109375 38.921875 18.109375 30.90625 
L 18.109375 0 
L 9.078125 0 
L 9.078125 54.6875 
L 18.109375 54.6875 
L 18.109375 46.1875 
Q 21.34375 51.125 25.703125 53.5625 
Q 30.078125 56 35.796875 56 
Q 45.21875 56 50.046875 50.171875 
Q 54.890625 44.34375 54.890625 33.015625 
z
" id="DejaVuSans-110"/>
       <path d="M 8.5 21.578125 
L 8.5 54.6875 
L 17.484375 54.6875 
L 17.484375 21.921875 
Q 17.484375 14.15625 20.5 10.265625 
Q 23.53125 6.390625 29.59375 6.390625 
Q 36.859375 6.390625 41.078125 11.03125 
Q 45.3125 15.671875 45.3125 23.6875 
L 45.3125 54.6875 
L 54.296875 54.6875 
L 54.296875 0 
L 45.3125 0 
L 45.3125 8.40625 
Q 42.046875 3.421875 37.71875 1 
Q 33.40625 -1.421875 27.6875 -1.421875 
Q 18.265625 -1.421875 13.375 4.4375 
Q 8.5 10.296875 8.5 21.578125 
z
M 31.109375 56 
z
" id="DejaVuSans-117"/>
       <path d="M 52 44.1875 
Q 55.375 50.25 60.0625 53.125 
Q 64.75 56 71.09375 56 
Q 79.640625 56 84.28125 50.015625 
Q 88.921875 44.046875 88.921875 33.015625 
L 88.921875 0 
L 79.890625 0 
L 79.890625 32.71875 
Q 79.890625 40.578125 77.09375 44.375 
Q 74.3125 48.1875 68.609375 48.1875 
Q 61.625 48.1875 57.5625 43.546875 
Q 53.515625 38.921875 53.515625 30.90625 
L 53.515625 0 
L 44.484375 0 
L 44.484375 32.71875 
Q 44.484375 40.625 41.703125 44.40625 
Q 38.921875 48.1875 33.109375 48.1875 
Q 26.21875 48.1875 22.15625 43.53125 
Q 18.109375 38.875 18.109375 30.90625 
L 18.109375 0 
L 9.078125 0 
L 9.078125 54.6875 
L 18.109375 54.6875 
L 18.109375 46.1875 
Q 21.1875 51.21875 25.484375 53.609375 
Q 29.78125 56 35.6875 56 
Q 41.65625 56 45.828125 52.96875 
Q 50 49.953125 52 44.1875 
z
" id="DejaVuSans-109"/>
       <path d="M 48.6875 27.296875 
Q 48.6875 37.203125 44.609375 42.84375 
Q 40.53125 48.484375 33.40625 48.484375 
Q 26.265625 48.484375 22.1875 42.84375 
Q 18.109375 37.203125 18.109375 27.296875 
Q 18.109375 17.390625 22.1875 11.75 
Q 26.265625 6.109375 33.40625 6.109375 
Q 40.53125 6.109375 44.609375 11.75 
Q 48.6875 17.390625 48.6875 27.296875 
z
M 18.109375 46.390625 
Q 20.953125 51.265625 25.265625 53.625 
Q 29.59375 56 35.59375 56 
Q 45.5625 56 51.78125 48.09375 
Q 58.015625 40.1875 58.015625 27.296875 
Q 58.015625 14.40625 51.78125 6.484375 
Q 45.5625 -1.421875 35.59375 -1.421875 
Q 29.59375 -1.421875 25.265625 0.953125 
Q 20.953125 3.328125 18.109375 8.203125 
L 18.109375 0 
L 9.078125 0 
L 9.078125 75.984375 
L 18.109375 75.984375 
z
" id="DejaVuSans-98"/>
       <path d="M 56.203125 29.59375 
L 56.203125 25.203125 
L 14.890625 25.203125 
Q 15.484375 15.921875 20.484375 11.0625 
Q 25.484375 6.203125 34.421875 6.203125 
Q 39.59375 6.203125 44.453125 7.46875 
Q 49.3125 8.734375 54.109375 11.28125 
L 54.109375 2.78125 
Q 49.265625 0.734375 44.1875 -0.34375 
Q 39.109375 -1.421875 33.890625 -1.421875 
Q 20.796875 -1.421875 13.15625 6.1875 
Q 5.515625 13.8125 5.515625 26.8125 
Q 5.515625 40.234375 12.765625 48.109375 
Q 20.015625 56 32.328125 56 
Q 43.359375 56 49.78125 48.890625 
Q 56.203125 41.796875 56.203125 29.59375 
z
M 47.21875 32.234375 
Q 47.125 39.59375 43.09375 43.984375 
Q 39.0625 48.390625 32.421875 48.390625 
Q 24.90625 48.390625 20.390625 44.140625 
Q 15.875 39.890625 15.1875 32.171875 
z
" id="DejaVuSans-101"/>
       <path d="M 41.109375 46.296875 
Q 39.59375 47.171875 37.8125 47.578125 
Q 36.03125 48 33.890625 48 
Q 26.265625 48 22.1875 43.046875 
Q 18.109375 38.09375 18.109375 28.8125 
L 18.109375 0 
L 9.078125 0 
L 9.078125 54.6875 
L 18.109375 54.6875 
L 18.109375 46.1875 
Q 20.953125 51.171875 25.484375 53.578125 
Q 30.03125 56 36.53125 56 
Q 37.453125 56 38.578125 55.875 
Q 39.703125 55.765625 41.0625 55.515625 
z
" id="DejaVuSans-114"/>
       <path id="DejaVuSans-32"/>
       <path d="M 30.609375 48.390625 
Q 23.390625 48.390625 19.1875 42.75 
Q 14.984375 37.109375 14.984375 27.296875 
Q 14.984375 17.484375 19.15625 11.84375 
Q 23.34375 6.203125 30.609375 6.203125 
Q 37.796875 6.203125 41.984375 11.859375 
Q 46.1875 17.53125 46.1875 27.296875 
Q 46.1875 37.015625 41.984375 42.703125 
Q 37.796875 48.390625 30.609375 48.390625 
z
M 30.609375 56 
Q 42.328125 56 49.015625 48.375 
Q 55.71875 40.765625 55.71875 27.296875 
Q 55.71875 13.875 49.015625 6.21875 
Q 42.328125 -1.421875 30.609375 -1.421875 
Q 18.84375 -1.421875 12.171875 6.21875 
Q 5.515625 13.875 5.515625 27.296875 
Q 5.515625 40.765625 12.171875 48.375 
Q 18.84375 56 30.609375 56 
z
" id="DejaVuSans-111"/>
       <path d="M 37.109375 75.984375 
L 37.109375 68.5 
L 28.515625 68.5 
Q 23.6875 68.5 21.796875 66.546875 
Q 19.921875 64.59375 19.921875 59.515625 
L 19.921875 54.6875 
L 34.71875 54.6875 
L 34.71875 47.703125 
L 19.921875 47.703125 
L 19.921875 0 
L 10.890625 0 
L 10.890625 47.703125 
L 2.296875 47.703125 
L 2.296875 54.6875 
L 10.890625 54.6875 
L 10.890625 58.5 
Q 10.890625 67.625 15.140625 71.796875 
Q 19.390625 75.984375 28.609375 75.984375 
z
" id="DejaVuSans-102"/>
       <path d="M 48.78125 52.59375 
L 48.78125 44.1875 
Q 44.96875 46.296875 41.140625 47.34375 
Q 37.3125 48.390625 33.40625 48.390625 
Q 24.65625 48.390625 19.8125 42.84375 
Q 14.984375 37.3125 14.984375 27.296875 
Q 14.984375 17.28125 19.8125 11.734375 
Q 24.65625 6.203125 33.40625 6.203125 
Q 37.3125 6.203125 41.140625 7.25 
Q 44.96875 8.296875 48.78125 10.40625 
L 48.78125 2.09375 
Q 45.015625 0.34375 40.984375 -0.53125 
Q 36.96875 -1.421875 32.421875 -1.421875 
Q 20.0625 -1.421875 12.78125 6.34375 
Q 5.515625 14.109375 5.515625 27.296875 
Q 5.515625 40.671875 12.859375 48.328125 
Q 20.21875 56 33.015625 56 
Q 37.15625 56 41.109375 55.140625 
Q 45.0625 54.296875 48.78125 52.59375 
z
" id="DejaVuSans-99"/>
       <path d="M 9.421875 75.984375 
L 18.40625 75.984375 
L 18.40625 0 
L 9.421875 0 
z
" id="DejaVuSans-108"/>
       <path d="M 9.421875 54.6875 
L 18.40625 54.6875 
L 18.40625 0 
L 9.421875 0 
z
M 9.421875 75.984375 
L 18.40625 75.984375 
L 18.40625 64.59375 
L 9.421875 64.59375 
z
" id="DejaVuSans-105"/>
       <path d="M 45.40625 27.984375 
Q 45.40625 37.75 41.375 43.109375 
Q 37.359375 48.484375 30.078125 48.484375 
Q 22.859375 48.484375 18.828125 43.109375 
Q 14.796875 37.75 14.796875 27.984375 
Q 14.796875 18.265625 18.828125 12.890625 
Q 22.859375 7.515625 30.078125 7.515625 
Q 37.359375 7.515625 41.375 12.890625 
Q 45.40625 18.265625 45.40625 27.984375 
z
M 54.390625 6.78125 
Q 54.390625 -7.171875 48.1875 -13.984375 
Q 42 -20.796875 29.203125 -20.796875 
Q 24.46875 -20.796875 20.265625 -20.09375 
Q 16.0625 -19.390625 12.109375 -17.921875 
L 12.109375 -9.1875 
Q 16.0625 -11.328125 19.921875 -12.34375 
Q 23.78125 -13.375 27.78125 -13.375 
Q 36.625 -13.375 41.015625 -8.765625 
Q 45.40625 -4.15625 45.40625 5.171875 
L 45.40625 9.625 
Q 42.625 4.78125 38.28125 2.390625 
Q 33.9375 0 27.875 0 
Q 17.828125 0 11.671875 7.65625 
Q 5.515625 15.328125 5.515625 27.984375 
Q 5.515625 40.671875 11.671875 48.328125 
Q 17.828125 56 27.875 56 
Q 33.9375 56 38.28125 53.609375 
Q 42.625 51.21875 45.40625 46.390625 
L 45.40625 54.6875 
L 54.390625 54.6875 
z
" id="DejaVuSans-103"/>
       <path d="M 54.890625 33.015625 
L 54.890625 0 
L 45.90625 0 
L 45.90625 32.71875 
Q 45.90625 40.484375 42.875 44.328125 
Q 39.84375 48.1875 33.796875 48.1875 
Q 26.515625 48.1875 22.3125 43.546875 
Q 18.109375 38.921875 18.109375 30.90625 
L 18.109375 0 
L 9.078125 0 
L 9.078125 75.984375 
L 18.109375 75.984375 
L 18.109375 46.1875 
Q 21.34375 51.125 25.703125 53.5625 
Q 30.078125 56 35.796875 56 
Q 45.21875 56 50.046875 50.171875 
Q 54.890625 44.34375 54.890625 33.015625 
z
" id="DejaVuSans-104"/>
       <path d="M 44.28125 53.078125 
L 44.28125 44.578125 
Q 40.484375 46.53125 36.375 47.5 
Q 32.28125 48.484375 27.875 48.484375 
Q 21.1875 48.484375 17.84375 46.4375 
Q 14.5 44.390625 14.5 40.28125 
Q 14.5 37.15625 16.890625 35.375 
Q 19.28125 33.59375 26.515625 31.984375 
L 29.59375 31.296875 
Q 39.15625 29.25 43.1875 25.515625 
Q 47.21875 21.78125 47.21875 15.09375 
Q 47.21875 7.46875 41.1875 3.015625 
Q 35.15625 -1.421875 24.609375 -1.421875 
Q 20.21875 -1.421875 15.453125 -0.5625 
Q 10.6875 0.296875 5.421875 2 
L 5.421875 11.28125 
Q 10.40625 8.6875 15.234375 7.390625 
Q 20.0625 6.109375 24.8125 6.109375 
Q 31.15625 6.109375 34.5625 8.28125 
Q 37.984375 10.453125 37.984375 14.40625 
Q 37.984375 18.0625 35.515625 20.015625 
Q 33.0625 21.96875 24.703125 23.78125 
L 21.578125 24.515625 
Q 13.234375 26.265625 9.515625 29.90625 
Q 5.8125 33.546875 5.8125 39.890625 
Q 5.8125 47.609375 11.28125 51.796875 
Q 16.75 56 26.8125 56 
Q 31.78125 56 36.171875 55.265625 
Q 40.578125 54.546875 44.28125 53.078125 
z
" id="DejaVuSans-115"/>
      </defs>
      <use xlink:href="#DejaVuSans-110"/>
      <use x="63.378906" xlink:href="#DejaVuSans-117"/>
      <use x="126.757812" xlink:href="#DejaVuSans-109"/>
      <use x="224.169922" xlink:href="#DejaVuSans-98"/>
      <use x="287.646484" xlink:href="#DejaVuSans-101"/>
      <use x="349.169922" xlink:href="#DejaVuSans-114"/>
      <use x="390.283203" xlink:href="#DejaVuSans-32"/>
      <use x="422.070312" xlink:href="#DejaVuSans-111"/>
      <use x="483.251953" xlink:href="#DejaVuSans-102"/>
      <use x="518.457031" xlink:href="#DejaVuSans-32"/>
      <use x="550.244141" xlink:href="#DejaVuSans-110"/>
      <use x="613.623047" xlink:href="#DejaVuSans-117"/>
      <use x="677.001953" xlink:href="#DejaVuSans-99"/>
      <use x="731.982422" xlink:href="#DejaVuSans-108"/>
      <use x="759.765625" xlink:href="#DejaVuSans-101"/>
      <use x="821.289062" xlink:href="#DejaVuSans-105"/>
      <use x="849.072266" xlink:href="#DejaVuSans-32"/>
      <use x="880.859375" xlink:href="#DejaVuSans-110"/>
      <use x="944.238281" xlink:href="#DejaVuSans-101"/>
      <use x="1005.761719" xlink:href="#DejaVuSans-105"/>
      <use x="1033.544922" xlink:href="#DejaVuSans-103"/>
      <use x="1097.021484" xlink:href="#DejaVuSans-104"/>
      <use x="1160.400391" xlink:href="#DejaVuSans-98"/>
      <use x="1223.876953" xlink:href="#DejaVuSans-111"/>
      <use x="1285.058594" xlink:href="#DejaVuSans-114"/>
      <use x="1326.171875" xlink:href="#DejaVuSans-115"/>
     </g>
    </g>
   </g>
   <g id="matplotlib.axis_2">
    <g id="ytick_1">
     <g id="line2d_17">
      <defs>
       <path d="M 0 0 
L -3.5 0 
" id="m30bfcea656" style="stroke:#000000;stroke-width:0.8;"/>
      </defs>
      <g>
       <use style="stroke:#000000;stroke-width:0.8;" x="43.78125" xlink:href="#m30bfcea656" y="108.386906"/>
      </g>
     </g>
     <g id="text_10">
      <!-- 0.0 -->
      <g transform="translate(20.878125 112.186125)scale(0.1 -0.1)">
       <defs>
        <path d="M 31.78125 66.40625 
Q 24.171875 66.40625 20.328125 58.90625 
Q 16.5 51.421875 16.5 36.375 
Q 16.5 21.390625 20.328125 13.890625 
Q 24.171875 6.390625 31.78125 6.390625 
Q 39.453125 6.390625 43.28125 13.890625 
Q 47.125 21.390625 47.125 36.375 
Q 47.125 51.421875 43.28125 58.90625 
Q 39.453125 66.40625 31.78125 66.40625 
z
M 31.78125 74.21875 
Q 44.046875 74.21875 50.515625 64.515625 
Q 56.984375 54.828125 56.984375 36.375 
Q 56.984375 17.96875 50.515625 8.265625 
Q 44.046875 -1.421875 31.78125 -1.421875 
Q 19.53125 -1.421875 13.0625 8.265625 
Q 6.59375 17.96875 6.59375 36.375 
Q 6.59375 54.828125 13.0625 64.515625 
Q 19.53125 74.21875 31.78125 74.21875 
z
" id="DejaVuSans-48"/>
        <path d="M 10.6875 12.40625 
L 21 12.40625 
L 21 0 
L 10.6875 0 
z
" id="DejaVuSans-46"/>
       </defs>
       <use xlink:href="#DejaVuSans-48"/>
       <use x="63.623047" xlink:href="#DejaVuSans-46"/>
       <use x="95.410156" xlink:href="#DejaVuSans-48"/>
      </g>
     </g>
    </g>
    <g id="ytick_2">
     <g id="line2d_18">
      <g>
       <use style="stroke:#000000;stroke-width:0.8;" x="43.78125" xlink:href="#m30bfcea656" y="62.379287"/>
      </g>
     </g>
     <g id="text_11">
      <!-- 0.5 -->
      <g transform="translate(20.878125 66.178506)scale(0.1 -0.1)">
       <use xlink:href="#DejaVuSans-48"/>
       <use x="63.623047" xlink:href="#DejaVuSans-46"/>
       <use x="95.410156" xlink:href="#DejaVuSans-53"/>
      </g>
     </g>
    </g>
    <g id="ytick_3">
     <g id="line2d_19">
      <g>
       <use style="stroke:#000000;stroke-width:0.8;" x="43.78125" xlink:href="#m30bfcea656" y="16.371668"/>
      </g>
     </g>
     <g id="text_12">
      <!-- 1.0 -->
      <g transform="translate(20.878125 20.170887)scale(0.1 -0.1)">
       <use xlink:href="#DejaVuSans-49"/>
       <use x="63.623047" xlink:href="#DejaVuSans-46"/>
       <use x="95.410156" xlink:href="#DejaVuSans-48"/>
      </g>
     </g>
    </g>
    <g id="text_13">
     <!-- El angle of neighbors -->
     <g transform="translate(14.798438 112.957812)rotate(-90)scale(0.1 -0.1)">
      <defs>
       <path d="M 9.8125 72.90625 
L 55.90625 72.90625 
L 55.90625 64.59375 
L 19.671875 64.59375 
L 19.671875 43.015625 
L 54.390625 43.015625 
L 54.390625 34.71875 
L 19.671875 34.71875 
L 19.671875 8.296875 
L 56.78125 8.296875 
L 56.78125 0 
L 9.8125 0 
z
" id="DejaVuSans-69"/>
       <path d="M 34.28125 27.484375 
Q 23.390625 27.484375 19.1875 25 
Q 14.984375 22.515625 14.984375 16.5 
Q 14.984375 11.71875 18.140625 8.90625 
Q 21.296875 6.109375 26.703125 6.109375 
Q 34.1875 6.109375 38.703125 11.40625 
Q 43.21875 16.703125 43.21875 25.484375 
L 43.21875 27.484375 
z
M 52.203125 31.203125 
L 52.203125 0 
L 43.21875 0 
L 43.21875 8.296875 
Q 40.140625 3.328125 35.546875 0.953125 
Q 30.953125 -1.421875 24.3125 -1.421875 
Q 15.921875 -1.421875 10.953125 3.296875 
Q 6 8.015625 6 15.921875 
Q 6 25.140625 12.171875 29.828125 
Q 18.359375 34.515625 30.609375 34.515625 
L 43.21875 34.515625 
L 43.21875 35.40625 
Q 43.21875 41.609375 39.140625 45 
Q 35.0625 48.390625 27.6875 48.390625 
Q 23 48.390625 18.546875 47.265625 
Q 14.109375 46.140625 10.015625 43.890625 
L 10.015625 52.203125 
Q 14.9375 54.109375 19.578125 55.046875 
Q 24.21875 56 28.609375 56 
Q 40.484375 56 46.34375 49.84375 
Q 52.203125 43.703125 52.203125 31.203125 
z
" id="DejaVuSans-97"/>
      </defs>
      <use xlink:href="#DejaVuSans-69"/>
      <use x="63.183594" xlink:href="#DejaVuSans-108"/>
      <use x="90.966797" xlink:href="#DejaVuSans-32"/>
      <use x="122.753906" xlink:href="#DejaVuSans-97"/>
      <use x="184.033203" xlink:href="#DejaVuSans-110"/>
      <use x="247.412109" xlink:href="#DejaVuSans-103"/>
      <use x="310.888672" xlink:href="#DejaVuSans-108"/>
      <use x="338.671875" xlink:href="#DejaVuSans-101"/>
      <use x="400.195312" xlink:href="#DejaVuSans-32"/>
      <use x="431.982422" xlink:href="#DejaVuSans-111"/>
      <use x="493.164062" xlink:href="#DejaVuSans-102"/>
      <use x="528.369141" xlink:href="#DejaVuSans-32"/>
      <use x="560.15625" xlink:href="#DejaVuSans-110"/>
      <use x="623.535156" xlink:href="#DejaVuSans-101"/>
      <use x="685.058594" xlink:href="#DejaVuSans-105"/>
      <use x="712.841797" xlink:href="#DejaVuSans-103"/>
      <use x="776.318359" xlink:href="#DejaVuSans-104"/>
      <use x="839.697266" xlink:href="#DejaVuSans-98"/>
      <use x="903.173828" xlink:href="#DejaVuSans-111"/>
      <use x="964.355469" xlink:href="#DejaVuSans-114"/>
      <use x="1005.46875" xlink:href="#DejaVuSans-115"/>
     </g>
    </g>
   </g>
   <g id="patch_99">
    <path d="M 43.78125 108.386906 
L 43.78125 11.770906 
" style="fill:none;stroke:#000000;stroke-linecap:square;stroke-linejoin:miter;stroke-width:0.8;"/>
   </g>
   <g id="patch_100">
    <path d="M 272.03125 108.386906 
L 272.03125 11.770906 
" style="fill:none;stroke:#000000;stroke-linecap:square;stroke-linejoin:miter;stroke-width:0.8;"/>
   </g>
   <g id="patch_101">
    <path d="M 43.78125 108.386906 
L 272.03125 108.386906 
" style="fill:none;stroke:#000000;stroke-linecap:square;stroke-linejoin:miter;stroke-width:0.8;"/>
   </g>
   <g id="patch_102">
    <path d="M 43.78125 11.770906 
L 272.03125 11.770906 
" style="fill:none;stroke:#000000;stroke-linecap:square;stroke-linejoin:miter;stroke-width:0.8;"/>
   </g>
   <g id="legend_1">
    <g id="patch_103">
     <path d="M 278.989062 79.191801 
L 324.89375 79.191801 
Q 326.09375 79.191801 326.09375 77.991801 
L 326.09375 13.072426 
Q 326.09375 11.872426 324.89375 11.872426 
L 278.989062 11.872426 
Q 277.789062 11.872426 277.789062 13.072426 
L 277.789062 77.991801 
Q 277.789062 79.191801 278.989062 79.191801 
z
" style="fill:#ffffff;opacity:0.8;stroke:#cccccc;stroke-linejoin:miter;"/>
    </g>
    <g id="text_14">
     <!-- Columns -->
     <g transform="translate(280.189062 21.870864)scale(0.1 -0.1)">
      <defs>
       <path d="M 64.40625 67.28125 
L 64.40625 56.890625 
Q 59.421875 61.53125 53.78125 63.8125 
Q 48.140625 66.109375 41.796875 66.109375 
Q 29.296875 66.109375 22.65625 58.46875 
Q 16.015625 50.828125 16.015625 36.375 
Q 16.015625 21.96875 22.65625 14.328125 
Q 29.296875 6.6875 41.796875 6.6875 
Q 48.140625 6.6875 53.78125 8.984375 
Q 59.421875 11.28125 64.40625 15.921875 
L 64.40625 5.609375 
Q 59.234375 2.09375 53.4375 0.328125 
Q 47.65625 -1.421875 41.21875 -1.421875 
Q 24.65625 -1.421875 15.125 8.703125 
Q 5.609375 18.84375 5.609375 36.375 
Q 5.609375 53.953125 15.125 64.078125 
Q 24.65625 74.21875 41.21875 74.21875 
Q 47.75 74.21875 53.53125 72.484375 
Q 59.328125 70.75 64.40625 67.28125 
z
" id="DejaVuSans-67"/>
      </defs>
      <use xlink:href="#DejaVuSans-67"/>
      <use x="69.824219" xlink:href="#DejaVuSans-111"/>
      <use x="131.005859" xlink:href="#DejaVuSans-108"/>
      <use x="158.789062" xlink:href="#DejaVuSans-117"/>
      <use x="222.167969" xlink:href="#DejaVuSans-109"/>
      <use x="319.580078" xlink:href="#DejaVuSans-110"/>
      <use x="382.958984" xlink:href="#DejaVuSans-115"/>
     </g>
    </g>
    <g id="patch_104">
     <path d="M 282.310156 31.509614 
L 294.310156 31.509614 
L 294.310156 27.309614 
L 282.310156 27.309614 
z
" style="fill:#bfbf00;"/>
    </g>
    <g id="text_15">
     <!-- 0-&lt;15 -->
     <g transform="translate(299.110156 31.509614)scale(0.06 -0.06)">
      <defs>
       <path d="M 4.890625 31.390625 
L 31.203125 31.390625 
L 31.203125 23.390625 
L 4.890625 23.390625 
z
" id="DejaVuSans-45"/>
       <path d="M 73.1875 49.21875 
L 22.796875 31.296875 
L 73.1875 13.484375 
L 73.1875 4.59375 
L 10.59375 27.296875 
L 10.59375 35.40625 
L 73.1875 58.109375 
z
" id="DejaVuSans-60"/>
      </defs>
      <use xlink:href="#DejaVuSans-48"/>
      <use x="63.623047" xlink:href="#DejaVuSans-45"/>
      <use x="99.707031" xlink:href="#DejaVuSans-60"/>
      <use x="183.496094" xlink:href="#DejaVuSans-49"/>
      <use x="247.119141" xlink:href="#DejaVuSans-53"/>
     </g>
    </g>
    <g id="patch_105">
     <path d="M 282.310156 40.316489 
L 294.310156 40.316489 
L 294.310156 36.116489 
L 282.310156 36.116489 
z
" style="fill:#00bfbf;"/>
    </g>
    <g id="text_16">
     <!-- 15-&lt;30 -->
     <g transform="translate(299.110156 40.316489)scale(0.06 -0.06)">
      <use xlink:href="#DejaVuSans-49"/>
      <use x="63.623047" xlink:href="#DejaVuSans-53"/>
      <use x="127.246094" xlink:href="#DejaVuSans-45"/>
      <use x="163.330078" xlink:href="#DejaVuSans-60"/>
      <use x="247.119141" xlink:href="#DejaVuSans-51"/>
      <use x="310.742188" xlink:href="#DejaVuSans-48"/>
     </g>
    </g>
    <g id="patch_106">
     <path d="M 282.310156 49.123364 
L 294.310156 49.123364 
L 294.310156 44.923364 
L 282.310156 44.923364 
z
" style="fill:#008000;"/>
    </g>
    <g id="text_17">
     <!-- 30-&lt;45 -->
     <g transform="translate(299.110156 49.123364)scale(0.06 -0.06)">
      <defs>
       <path d="M 37.796875 64.3125 
L 12.890625 25.390625 
L 37.796875 25.390625 
z
M 35.203125 72.90625 
L 47.609375 72.90625 
L 47.609375 25.390625 
L 58.015625 25.390625 
L 58.015625 17.1875 
L 47.609375 17.1875 
L 47.609375 0 
L 37.796875 0 
L 37.796875 17.1875 
L 4.890625 17.1875 
L 4.890625 26.703125 
z
" id="DejaVuSans-52"/>
      </defs>
      <use xlink:href="#DejaVuSans-51"/>
      <use x="63.623047" xlink:href="#DejaVuSans-48"/>
      <use x="127.246094" xlink:href="#DejaVuSans-45"/>
      <use x="163.330078" xlink:href="#DejaVuSans-60"/>
      <use x="247.119141" xlink:href="#DejaVuSans-52"/>
      <use x="310.742188" xlink:href="#DejaVuSans-53"/>
     </g>
    </g>
    <g id="patch_107">
     <path d="M 282.310156 57.930239 
L 294.310156 57.930239 
L 294.310156 53.730239 
L 282.310156 53.730239 
z
" style="fill:#bf00bf;"/>
    </g>
    <g id="text_18">
     <!-- 45-&lt;60 -->
     <g transform="translate(299.110156 57.930239)scale(0.06 -0.06)">
      <defs>
       <path d="M 33.015625 40.375 
Q 26.375 40.375 22.484375 35.828125 
Q 18.609375 31.296875 18.609375 23.390625 
Q 18.609375 15.53125 22.484375 10.953125 
Q 26.375 6.390625 33.015625 6.390625 
Q 39.65625 6.390625 43.53125 10.953125 
Q 47.40625 15.53125 47.40625 23.390625 
Q 47.40625 31.296875 43.53125 35.828125 
Q 39.65625 40.375 33.015625 40.375 
z
M 52.59375 71.296875 
L 52.59375 62.3125 
Q 48.875 64.0625 45.09375 64.984375 
Q 41.3125 65.921875 37.59375 65.921875 
Q 27.828125 65.921875 22.671875 59.328125 
Q 17.53125 52.734375 16.796875 39.40625 
Q 19.671875 43.65625 24.015625 45.921875 
Q 28.375 48.1875 33.59375 48.1875 
Q 44.578125 48.1875 50.953125 41.515625 
Q 57.328125 34.859375 57.328125 23.390625 
Q 57.328125 12.15625 50.6875 5.359375 
Q 44.046875 -1.421875 33.015625 -1.421875 
Q 20.359375 -1.421875 13.671875 8.265625 
Q 6.984375 17.96875 6.984375 36.375 
Q 6.984375 53.65625 15.1875 63.9375 
Q 23.390625 74.21875 37.203125 74.21875 
Q 40.921875 74.21875 44.703125 73.484375 
Q 48.484375 72.75 52.59375 71.296875 
z
" id="DejaVuSans-54"/>
      </defs>
      <use xlink:href="#DejaVuSans-52"/>
      <use x="63.623047" xlink:href="#DejaVuSans-53"/>
      <use x="127.246094" xlink:href="#DejaVuSans-45"/>
      <use x="163.330078" xlink:href="#DejaVuSans-60"/>
      <use x="247.119141" xlink:href="#DejaVuSans-54"/>
      <use x="310.742188" xlink:href="#DejaVuSans-48"/>
     </g>
    </g>
    <g id="patch_108">
     <path d="M 282.310156 66.737114 
L 294.310156 66.737114 
L 294.310156 62.537114 
L 282.310156 62.537114 
z
" style="fill:#ff0000;"/>
    </g>
    <g id="text_19">
     <!-- 60-&lt;75 -->
     <g transform="translate(299.110156 66.737114)scale(0.06 -0.06)">
      <use xlink:href="#DejaVuSans-54"/>
      <use x="63.623047" xlink:href="#DejaVuSans-48"/>
      <use x="127.246094" xlink:href="#DejaVuSans-45"/>
      <use x="163.330078" xlink:href="#DejaVuSans-60"/>
      <use x="247.119141" xlink:href="#DejaVuSans-55"/>
      <use x="310.742188" xlink:href="#DejaVuSans-53"/>
     </g>
    </g>
    <g id="patch_109">
     <path d="M 282.310156 75.543989 
L 294.310156 75.543989 
L 294.310156 71.343989 
L 282.310156 71.343989 
z
" style="fill:#0000ff;"/>
    </g>
    <g id="text_20">
     <!-- 75-90 -->
     <g transform="translate(299.110156 75.543989)scale(0.06 -0.06)">
      <use xlink:href="#DejaVuSans-55"/>
      <use x="63.623047" xlink:href="#DejaVuSans-53"/>
      <use x="127.246094" xlink:href="#DejaVuSans-45"/>
      <use x="163.330078" xlink:href="#DejaVuSans-57"/>
      <use x="226.953125" xlink:href="#DejaVuSans-48"/>
     </g>
    </g>
   </g>
  </g>
  <g id="axes_2">
   <g id="patch_110">
    <path d="M 43.78125 246.986906 
L 272.03125 246.986906 
L 272.03125 150.370906 
L 43.78125 150.370906 
z
" style="fill:#ffffff;"/>
   </g>
   <g id="patch_111">
    <path clip-path="url(#padab02ae2c)" d="M 47.649894 246.986906 
L 51.518538 246.986906 
L 51.518538 221.56256 
L 47.649894 221.56256 
z
" style="fill:#bfbf00;"/>
   </g>
   <g id="patch_112">
    <path clip-path="url(#padab02ae2c)" d="M 63.12447 246.986906 
L 66.993114 246.986906 
L 66.993114 224.181405 
L 63.12447 224.181405 
z
" style="fill:#bfbf00;"/>
   </g>
   <g id="patch_113">
    <path clip-path="url(#padab02ae2c)" d="M 78.599047 246.986906 
L 82.467691 246.986906 
L 82.467691 223.131104 
L 78.599047 223.131104 
z
" style="fill:#bfbf00;"/>
   </g>
   <g id="patch_114">
    <path clip-path="url(#padab02ae2c)" d="M 94.073623 246.986906 
L 97.942267 246.986906 
L 97.942267 223.275287 
L 94.073623 223.275287 
z
" style="fill:#bfbf00;"/>
   </g>
   <g id="patch_115">
    <path clip-path="url(#padab02ae2c)" d="M 109.548199 246.986906 
L 113.416843 246.986906 
L 113.416843 223.097236 
L 109.548199 223.097236 
z
" style="fill:#bfbf00;"/>
   </g>
   <g id="patch_116">
    <path clip-path="url(#padab02ae2c)" d="M 125.022775 246.986906 
L 128.891419 246.986906 
L 128.891419 224.17971 
L 125.022775 224.17971 
z
" style="fill:#bfbf00;"/>
   </g>
   <g id="patch_117">
    <path clip-path="url(#padab02ae2c)" d="M 140.497352 246.986906 
L 144.365996 246.986906 
L 144.365996 224.386672 
L 140.497352 224.386672 
z
" style="fill:#bfbf00;"/>
   </g>
   <g id="patch_118">
    <path clip-path="url(#padab02ae2c)" d="M 155.971928 246.986906 
L 159.840572 246.986906 
L 159.840572 223.241038 
L 155.971928 223.241038 
z
" style="fill:#bfbf00;"/>
   </g>
   <g id="patch_119">
    <path clip-path="url(#padab02ae2c)" d="M 171.446504 246.986906 
L 175.315148 246.986906 
L 175.315148 221.427118 
L 171.446504 221.427118 
z
" style="fill:#bfbf00;"/>
   </g>
   <g id="patch_120">
    <path clip-path="url(#padab02ae2c)" d="M 186.921081 246.986906 
L 190.789725 246.986906 
L 190.789725 223.408001 
L 186.921081 223.408001 
z
" style="fill:#bfbf00;"/>
   </g>
   <g id="patch_121">
    <path clip-path="url(#padab02ae2c)" d="M 202.395657 246.986906 
L 206.264301 246.986906 
L 206.264301 225.028724 
L 202.395657 225.028724 
z
" style="fill:#bfbf00;"/>
   </g>
   <g id="patch_122">
    <path clip-path="url(#padab02ae2c)" d="M 217.870233 246.986906 
L 221.738877 246.986906 
L 221.738877 223.983097 
L 217.870233 223.983097 
z
" style="fill:#bfbf00;"/>
   </g>
   <g id="patch_123">
    <path clip-path="url(#padab02ae2c)" d="M 233.344809 246.986906 
L 237.213453 246.986906 
L 237.213453 225.752621 
L 233.344809 225.752621 
z
" style="fill:#bfbf00;"/>
   </g>
   <g id="patch_124">
    <path clip-path="url(#padab02ae2c)" d="M 248.819386 246.986906 
L 252.68803 246.986906 
L 252.68803 230.555614 
L 248.819386 230.555614 
z
" style="fill:#bfbf00;"/>
   </g>
   <g id="patch_125">
    <path clip-path="url(#padab02ae2c)" d="M 264.293962 246.986906 
L 268.162606 246.986906 
L 268.162606 218.232144 
L 264.293962 218.232144 
z
" style="fill:#bfbf00;"/>
   </g>
   <g id="patch_126">
    <path clip-path="url(#padab02ae2c)" d="M 47.649894 221.56256 
L 51.518538 221.56256 
L 51.518538 200.735492 
L 47.649894 200.735492 
z
" style="fill:#00bfbf;"/>
   </g>
   <g id="patch_127">
    <path clip-path="url(#padab02ae2c)" d="M 63.12447 224.181405 
L 66.993114 224.181405 
L 66.993114 203.755609 
L 63.12447 203.755609 
z
" style="fill:#00bfbf;"/>
   </g>
   <g id="patch_128">
    <path clip-path="url(#padab02ae2c)" d="M 78.599047 223.131104 
L 82.467691 223.131104 
L 82.467691 203.577167 
L 78.599047 203.577167 
z
" style="fill:#00bfbf;"/>
   </g>
   <g id="patch_129">
    <path clip-path="url(#padab02ae2c)" d="M 94.073623 223.275287 
L 97.942267 223.275287 
L 97.942267 201.474754 
L 94.073623 201.474754 
z
" style="fill:#00bfbf;"/>
   </g>
   <g id="patch_130">
    <path clip-path="url(#padab02ae2c)" d="M 109.548199 223.097236 
L 113.416843 223.097236 
L 113.416843 202.5224 
L 109.548199 202.5224 
z
" style="fill:#00bfbf;"/>
   </g>
   <g id="patch_131">
    <path clip-path="url(#padab02ae2c)" d="M 125.022775 224.17971 
L 128.891419 224.17971 
L 128.891419 200.717136 
L 125.022775 200.717136 
z
" style="fill:#00bfbf;"/>
   </g>
   <g id="patch_132">
    <path clip-path="url(#padab02ae2c)" d="M 140.497352 224.386672 
L 144.365996 224.386672 
L 144.365996 204.784429 
L 140.497352 204.784429 
z
" style="fill:#00bfbf;"/>
   </g>
   <g id="patch_133">
    <path clip-path="url(#padab02ae2c)" d="M 155.971928 223.241038 
L 159.840572 223.241038 
L 159.840572 203.205462 
L 155.971928 203.205462 
z
" style="fill:#00bfbf;"/>
   </g>
   <g id="patch_134">
    <path clip-path="url(#padab02ae2c)" d="M 171.446504 221.427118 
L 175.315148 221.427118 
L 175.315148 199.956896 
L 171.446504 199.956896 
z
" style="fill:#00bfbf;"/>
   </g>
   <g id="patch_135">
    <path clip-path="url(#padab02ae2c)" d="M 186.921081 223.408001 
L 190.789725 223.408001 
L 190.789725 200.404192 
L 186.921081 200.404192 
z
" style="fill:#00bfbf;"/>
   </g>
   <g id="patch_136">
    <path clip-path="url(#padab02ae2c)" d="M 202.395657 225.028724 
L 206.264301 225.028724 
L 206.264301 197.842404 
L 202.395657 197.842404 
z
" style="fill:#00bfbf;"/>
   </g>
   <g id="patch_137">
    <path clip-path="url(#padab02ae2c)" d="M 217.870233 223.983097 
L 221.738877 223.983097 
L 221.738877 194.269843 
L 217.870233 194.269843 
z
" style="fill:#00bfbf;"/>
   </g>
   <g id="patch_138">
    <path clip-path="url(#padab02ae2c)" d="M 233.344809 225.752621 
L 237.213453 225.752621 
L 237.213453 202.15897 
L 233.344809 202.15897 
z
" style="fill:#00bfbf;"/>
   </g>
   <g id="patch_139">
    <path clip-path="url(#padab02ae2c)" d="M 248.819386 230.555614 
L 252.68803 230.555614 
L 252.68803 217.41058 
L 248.819386 217.41058 
z
" style="fill:#00bfbf;"/>
   </g>
   <g id="patch_140">
    <path clip-path="url(#padab02ae2c)" d="M 264.293962 218.232144 
L 268.162606 218.232144 
L 268.162606 183.72643 
L 264.293962 183.72643 
z
" style="fill:#00bfbf;"/>
   </g>
   <g id="patch_141">
    <path clip-path="url(#padab02ae2c)" d="M 47.649894 200.735492 
L 51.518538 200.735492 
L 51.518538 183.669835 
L 47.649894 183.669835 
z
" style="fill:#008000;"/>
   </g>
   <g id="patch_142">
    <path clip-path="url(#padab02ae2c)" d="M 63.12447 203.755609 
L 66.993114 203.755609 
L 66.993114 186.106134 
L 63.12447 186.106134 
z
" style="fill:#008000;"/>
   </g>
   <g id="patch_143">
    <path clip-path="url(#padab02ae2c)" d="M 78.599047 203.577167 
L 82.467691 203.577167 
L 82.467691 184.917125 
L 78.599047 184.917125 
z
" style="fill:#008000;"/>
   </g>
   <g id="patch_144">
    <path clip-path="url(#padab02ae2c)" d="M 94.073623 201.474754 
L 97.942267 201.474754 
L 97.942267 183.000925 
L 94.073623 183.000925 
z
" style="fill:#008000;"/>
   </g>
   <g id="patch_145">
    <path clip-path="url(#padab02ae2c)" d="M 109.548199 202.5224 
L 113.416843 202.5224 
L 113.416843 183.09061 
L 109.548199 183.09061 
z
" style="fill:#008000;"/>
   </g>
   <g id="patch_146">
    <path clip-path="url(#padab02ae2c)" d="M 125.022775 200.717136 
L 128.891419 200.717136 
L 128.891419 184.070504 
L 125.022775 184.070504 
z
" style="fill:#008000;"/>
   </g>
   <g id="patch_147">
    <path clip-path="url(#padab02ae2c)" d="M 140.497352 204.784429 
L 144.365996 204.784429 
L 144.365996 186.335258 
L 140.497352 186.335258 
z
" style="fill:#008000;"/>
   </g>
   <g id="patch_148">
    <path clip-path="url(#padab02ae2c)" d="M 155.971928 203.205462 
L 159.840572 203.205462 
L 159.840572 184.282974 
L 155.971928 184.282974 
z
" style="fill:#008000;"/>
   </g>
   <g id="patch_149">
    <path clip-path="url(#padab02ae2c)" d="M 171.446504 199.956896 
L 175.315148 199.956896 
L 175.315148 183.598631 
L 171.446504 183.598631 
z
" style="fill:#008000;"/>
   </g>
   <g id="patch_150">
    <path clip-path="url(#padab02ae2c)" d="M 186.921081 200.404192 
L 190.789725 200.404192 
L 190.789725 184.301525 
L 186.921081 184.301525 
z
" style="fill:#008000;"/>
   </g>
   <g id="patch_151">
    <path clip-path="url(#padab02ae2c)" d="M 202.395657 197.842404 
L 206.264301 197.842404 
L 206.264301 184.249244 
L 202.395657 184.249244 
z
" style="fill:#008000;"/>
   </g>
   <g id="patch_152">
    <path clip-path="url(#padab02ae2c)" d="M 217.870233 194.269843 
L 221.738877 194.269843 
L 221.738877 176.058494 
L 217.870233 176.058494 
z
" style="fill:#008000;"/>
   </g>
   <g id="patch_153">
    <path clip-path="url(#padab02ae2c)" d="M 233.344809 202.15897 
L 237.213453 202.15897 
L 237.213453 182.104367 
L 233.344809 182.104367 
z
" style="fill:#008000;"/>
   </g>
   <g id="patch_154">
    <path clip-path="url(#padab02ae2c)" d="M 248.819386 217.41058 
L 252.68803 217.41058 
L 252.68803 197.693029 
L 248.819386 197.693029 
z
" style="fill:#008000;"/>
   </g>
   <g id="patch_155">
    <path clip-path="url(#padab02ae2c)" d="M 264.293962 183.72643 
L 268.162606 183.72643 
L 268.162606 166.473573 
L 264.293962 166.473573 
z
" style="fill:#008000;"/>
   </g>
   <g id="patch_156">
    <path clip-path="url(#padab02ae2c)" d="M 47.649894 183.669835 
L 51.518538 183.669835 
L 51.518538 168.484883 
L 47.649894 168.484883 
z
" style="fill:#bf00bf;"/>
   </g>
   <g id="patch_157">
    <path clip-path="url(#padab02ae2c)" d="M 63.12447 186.106134 
L 66.993114 186.106134 
L 66.993114 169.547358 
L 63.12447 169.547358 
z
" style="fill:#bf00bf;"/>
   </g>
   <g id="patch_158">
    <path clip-path="url(#padab02ae2c)" d="M 78.599047 184.917125 
L 82.467691 184.917125 
L 82.467691 169.385713 
L 78.599047 169.385713 
z
" style="fill:#bf00bf;"/>
   </g>
   <g id="patch_159">
    <path clip-path="url(#padab02ae2c)" d="M 94.073623 183.000925 
L 97.942267 183.000925 
L 97.942267 168.915516 
L 94.073623 168.915516 
z
" style="fill:#bf00bf;"/>
   </g>
   <g id="patch_160">
    <path clip-path="url(#padab02ae2c)" d="M 109.548199 183.09061 
L 113.416843 183.09061 
L 113.416843 167.430874 
L 109.548199 167.430874 
z
" style="fill:#bf00bf;"/>
   </g>
   <g id="patch_161">
    <path clip-path="url(#padab02ae2c)" d="M 125.022775 184.070504 
L 128.891419 184.070504 
L 128.891419 168.472479 
L 125.022775 168.472479 
z
" style="fill:#bf00bf;"/>
   </g>
   <g id="patch_162">
    <path clip-path="url(#padab02ae2c)" d="M 140.497352 186.335258 
L 144.365996 186.335258 
L 144.365996 169.961619 
L 140.497352 169.961619 
z
" style="fill:#bf00bf;"/>
   </g>
   <g id="patch_163">
    <path clip-path="url(#padab02ae2c)" d="M 155.971928 184.282974 
L 159.840572 184.282974 
L 159.840572 167.58666 
L 155.971928 167.58666 
z
" style="fill:#bf00bf;"/>
   </g>
   <g id="patch_164">
    <path clip-path="url(#padab02ae2c)" d="M 171.446504 183.598631 
L 175.315148 183.598631 
L 175.315148 169.796345 
L 171.446504 169.796345 
z
" style="fill:#bf00bf;"/>
   </g>
   <g id="patch_165">
    <path clip-path="url(#padab02ae2c)" d="M 186.921081 184.301525 
L 190.789725 184.301525 
L 190.789725 167.623763 
L 186.921081 167.623763 
z
" style="fill:#bf00bf;"/>
   </g>
   <g id="patch_166">
    <path clip-path="url(#padab02ae2c)" d="M 202.395657 184.249244 
L 206.264301 184.249244 
L 206.264301 169.610456 
L 202.395657 169.610456 
z
" style="fill:#bf00bf;"/>
   </g>
   <g id="patch_167">
    <path clip-path="url(#padab02ae2c)" d="M 217.870233 176.058494 
L 221.738877 176.058494 
L 221.738877 161.681113 
L 217.870233 161.681113 
z
" style="fill:#bf00bf;"/>
   </g>
   <g id="patch_168">
    <path clip-path="url(#padab02ae2c)" d="M 233.344809 182.104367 
L 237.213453 182.104367 
L 237.213453 172.666906 
L 233.344809 172.666906 
z
" style="fill:#bf00bf;"/>
   </g>
   <g id="patch_169">
    <path clip-path="url(#padab02ae2c)" d="M 248.819386 197.693029 
L 252.68803 197.693029 
L 252.68803 177.975478 
L 248.819386 177.975478 
z
" style="fill:#bf00bf;"/>
   </g>
   <g id="patch_170">
    <path clip-path="url(#padab02ae2c)" d="M 264.293962 166.473573 
L 268.162606 166.473573 
L 268.162606 154.971668 
L 264.293962 154.971668 
z
" style="fill:#bf00bf;"/>
   </g>
   <g id="patch_171">
    <path clip-path="url(#padab02ae2c)" d="M 47.649894 168.484883 
L 51.518538 168.484883 
L 51.518538 158.593767 
L 47.649894 158.593767 
z
" style="fill:#ff0000;"/>
   </g>
   <g id="patch_172">
    <path clip-path="url(#padab02ae2c)" d="M 63.12447 169.547358 
L 66.993114 169.547358 
L 66.993114 159.780654 
L 63.12447 159.780654 
z
" style="fill:#ff0000;"/>
   </g>
   <g id="patch_173">
    <path clip-path="url(#padab02ae2c)" d="M 78.599047 169.385713 
L 82.467691 169.385713 
L 82.467691 158.882455 
L 78.599047 158.882455 
z
" style="fill:#ff0000;"/>
   </g>
   <g id="patch_174">
    <path clip-path="url(#padab02ae2c)" d="M 94.073623 168.915516 
L 97.942267 168.915516 
L 97.942267 159.006182 
L 94.073623 159.006182 
z
" style="fill:#ff0000;"/>
   </g>
   <g id="patch_175">
    <path clip-path="url(#padab02ae2c)" d="M 109.548199 167.430874 
L 113.416843 167.430874 
L 113.416843 158.858026 
L 109.548199 158.858026 
z
" style="fill:#ff0000;"/>
   </g>
   <g id="patch_176">
    <path clip-path="url(#padab02ae2c)" d="M 125.022775 168.472479 
L 128.891419 168.472479 
L 128.891419 158.641792 
L 125.022775 158.641792 
z
" style="fill:#ff0000;"/>
   </g>
   <g id="patch_177">
    <path clip-path="url(#padab02ae2c)" d="M 140.497352 169.961619 
L 144.365996 169.961619 
L 144.365996 157.969658 
L 140.497352 157.969658 
z
" style="fill:#ff0000;"/>
   </g>
   <g id="patch_178">
    <path clip-path="url(#padab02ae2c)" d="M 155.971928 167.58666 
L 159.840572 167.58666 
L 159.840572 158.310931 
L 155.971928 158.310931 
z
" style="fill:#ff0000;"/>
   </g>
   <g id="patch_179">
    <path clip-path="url(#padab02ae2c)" d="M 171.446504 169.796345 
L 175.315148 169.796345 
L 175.315148 158.550039 
L 171.446504 158.550039 
z
" style="fill:#ff0000;"/>
   </g>
   <g id="patch_180">
    <path clip-path="url(#padab02ae2c)" d="M 186.921081 167.623763 
L 190.789725 167.623763 
L 190.789725 161.872811 
L 186.921081 161.872811 
z
" style="fill:#ff0000;"/>
   </g>
   <g id="patch_181">
    <path clip-path="url(#padab02ae2c)" d="M 202.395657 169.610456 
L 206.264301 169.610456 
L 206.264301 161.245434 
L 202.395657 161.245434 
z
" style="fill:#ff0000;"/>
   </g>
   <g id="patch_182">
    <path clip-path="url(#padab02ae2c)" d="M 217.870233 161.681113 
L 221.738877 161.681113 
L 221.738877 157.847144 
L 217.870233 157.847144 
z
" style="fill:#ff0000;"/>
   </g>
   <g id="patch_183">
    <path clip-path="url(#padab02ae2c)" d="M 233.344809 172.666906 
L 237.213453 172.666906 
L 237.213453 159.690398 
L 233.344809 159.690398 
z
" style="fill:#ff0000;"/>
   </g>
   <g id="patch_184">
    <path clip-path="url(#padab02ae2c)" d="M 248.819386 177.975478 
L 252.68803 177.975478 
L 252.68803 168.116702 
L 248.819386 168.116702 
z
" style="fill:#ff0000;"/>
   </g>
   <g id="patch_185">
    <path clip-path="url(#padab02ae2c)" d="M 264.293962 246.986906 
L 268.162606 246.986906 
L 268.162606 246.986906 
L 264.293962 246.986906 
z
" style="fill:#ff0000;"/>
   </g>
   <g id="patch_186">
    <path clip-path="url(#padab02ae2c)" d="M 47.649894 158.593767 
L 51.518538 158.593767 
L 51.518538 154.971668 
L 47.649894 154.971668 
z
" style="fill:#0000ff;"/>
   </g>
   <g id="patch_187">
    <path clip-path="url(#padab02ae2c)" d="M 63.12447 159.780654 
L 66.993114 159.780654 
L 66.993114 154.971668 
L 63.12447 154.971668 
z
" style="fill:#0000ff;"/>
   </g>
   <g id="patch_188">
    <path clip-path="url(#padab02ae2c)" d="M 78.599047 158.882455 
L 82.467691 158.882455 
L 82.467691 154.971668 
L 78.599047 154.971668 
z
" style="fill:#0000ff;"/>
   </g>
   <g id="patch_189">
    <path clip-path="url(#padab02ae2c)" d="M 94.073623 159.006182 
L 97.942267 159.006182 
L 97.942267 154.971668 
L 94.073623 154.971668 
z
" style="fill:#0000ff;"/>
   </g>
   <g id="patch_190">
    <path clip-path="url(#padab02ae2c)" d="M 109.548199 158.858026 
L 113.416843 158.858026 
L 113.416843 154.971668 
L 109.548199 154.971668 
z
" style="fill:#0000ff;"/>
   </g>
   <g id="patch_191">
    <path clip-path="url(#padab02ae2c)" d="M 125.022775 158.641792 
L 128.891419 158.641792 
L 128.891419 154.971668 
L 125.022775 154.971668 
z
" style="fill:#0000ff;"/>
   </g>
   <g id="patch_192">
    <path clip-path="url(#padab02ae2c)" d="M 140.497352 157.969658 
L 144.365996 157.969658 
L 144.365996 154.971668 
L 140.497352 154.971668 
z
" style="fill:#0000ff;"/>
   </g>
   <g id="patch_193">
    <path clip-path="url(#padab02ae2c)" d="M 155.971928 158.310931 
L 159.840572 158.310931 
L 159.840572 154.971668 
L 155.971928 154.971668 
z
" style="fill:#0000ff;"/>
   </g>
   <g id="patch_194">
    <path clip-path="url(#padab02ae2c)" d="M 171.446504 158.550039 
L 175.315148 158.550039 
L 175.315148 154.971668 
L 171.446504 154.971668 
z
" style="fill:#0000ff;"/>
   </g>
   <g id="patch_195">
    <path clip-path="url(#padab02ae2c)" d="M 186.921081 161.872811 
L 190.789725 161.872811 
L 190.789725 154.971668 
L 186.921081 154.971668 
z
" style="fill:#0000ff;"/>
   </g>
   <g id="patch_196">
    <path clip-path="url(#padab02ae2c)" d="M 202.395657 161.245434 
L 206.264301 161.245434 
L 206.264301 154.971668 
L 202.395657 154.971668 
z
" style="fill:#0000ff;"/>
   </g>
   <g id="patch_197">
    <path clip-path="url(#padab02ae2c)" d="M 217.870233 157.847144 
L 221.738877 157.847144 
L 221.738877 154.971668 
L 217.870233 154.971668 
z
" style="fill:#0000ff;"/>
   </g>
   <g id="patch_198">
    <path clip-path="url(#padab02ae2c)" d="M 233.344809 159.690398 
L 237.213453 159.690398 
L 237.213453 154.971668 
L 233.344809 154.971668 
z
" style="fill:#0000ff;"/>
   </g>
   <g id="patch_199">
    <path clip-path="url(#padab02ae2c)" d="M 248.819386 168.116702 
L 252.68803 168.116702 
L 252.68803 154.971668 
L 248.819386 154.971668 
z
" style="fill:#0000ff;"/>
   </g>
   <g id="patch_200">
    <path clip-path="url(#padab02ae2c)" d="M 264.293962 246.986906 
L 268.162606 246.986906 
L 268.162606 246.986906 
L 264.293962 246.986906 
z
" style="fill:#0000ff;"/>
   </g>
   <g id="matplotlib.axis_3">
    <g id="xtick_17">
     <g id="line2d_20">
      <g>
       <use style="stroke:#000000;stroke-width:0.8;" x="49.584216" xlink:href="#m4098044cf0" y="246.986906"/>
      </g>
     </g>
     <g id="text_21">
      <!-- 1 -->
      <g transform="translate(46.402966 261.585344)scale(0.1 -0.1)">
       <use xlink:href="#DejaVuSans-49"/>
      </g>
     </g>
    </g>
    <g id="xtick_18">
     <g id="line2d_21">
      <g>
       <use style="stroke:#000000;stroke-width:0.8;" x="65.058792" xlink:href="#m4098044cf0" y="246.986906"/>
      </g>
     </g>
    </g>
    <g id="xtick_19">
     <g id="line2d_22">
      <g>
       <use style="stroke:#000000;stroke-width:0.8;" x="80.533369" xlink:href="#m4098044cf0" y="246.986906"/>
      </g>
     </g>
     <g id="text_22">
      <!-- 3 -->
      <g transform="translate(77.352119 261.585344)scale(0.1 -0.1)">
       <use xlink:href="#DejaVuSans-51"/>
      </g>
     </g>
    </g>
    <g id="xtick_20">
     <g id="line2d_23">
      <g>
       <use style="stroke:#000000;stroke-width:0.8;" x="96.007945" xlink:href="#m4098044cf0" y="246.986906"/>
      </g>
     </g>
    </g>
    <g id="xtick_21">
     <g id="line2d_24">
      <g>
       <use style="stroke:#000000;stroke-width:0.8;" x="111.482521" xlink:href="#m4098044cf0" y="246.986906"/>
      </g>
     </g>
     <g id="text_23">
      <!-- 5 -->
      <g transform="translate(108.301271 261.585344)scale(0.1 -0.1)">
       <use xlink:href="#DejaVuSans-53"/>
      </g>
     </g>
    </g>
    <g id="xtick_22">
     <g id="line2d_25">
      <g>
       <use style="stroke:#000000;stroke-width:0.8;" x="126.957097" xlink:href="#m4098044cf0" y="246.986906"/>
      </g>
     </g>
    </g>
    <g id="xtick_23">
     <g id="line2d_26">
      <g>
       <use style="stroke:#000000;stroke-width:0.8;" x="142.431674" xlink:href="#m4098044cf0" y="246.986906"/>
      </g>
     </g>
     <g id="text_24">
      <!-- 7 -->
      <g transform="translate(139.250424 261.585344)scale(0.1 -0.1)">
       <use xlink:href="#DejaVuSans-55"/>
      </g>
     </g>
    </g>
    <g id="xtick_24">
     <g id="line2d_27">
      <g>
       <use style="stroke:#000000;stroke-width:0.8;" x="157.90625" xlink:href="#m4098044cf0" y="246.986906"/>
      </g>
     </g>
    </g>
    <g id="xtick_25">
     <g id="line2d_28">
      <g>
       <use style="stroke:#000000;stroke-width:0.8;" x="173.380826" xlink:href="#m4098044cf0" y="246.986906"/>
      </g>
     </g>
     <g id="text_25">
      <!-- 9 -->
      <g transform="translate(170.199576 261.585344)scale(0.1 -0.1)">
       <use xlink:href="#DejaVuSans-57"/>
      </g>
     </g>
    </g>
    <g id="xtick_26">
     <g id="line2d_29">
      <g>
       <use style="stroke:#000000;stroke-width:0.8;" x="188.855403" xlink:href="#m4098044cf0" y="246.986906"/>
      </g>
     </g>
    </g>
    <g id="xtick_27">
     <g id="line2d_30">
      <g>
       <use style="stroke:#000000;stroke-width:0.8;" x="204.329979" xlink:href="#m4098044cf0" y="246.986906"/>
      </g>
     </g>
     <g id="text_26">
      <!-- 11 -->
      <g transform="translate(197.967479 261.585344)scale(0.1 -0.1)">
       <use xlink:href="#DejaVuSans-49"/>
       <use x="63.623047" xlink:href="#DejaVuSans-49"/>
      </g>
     </g>
    </g>
    <g id="xtick_28">
     <g id="line2d_31">
      <g>
       <use style="stroke:#000000;stroke-width:0.8;" x="219.804555" xlink:href="#m4098044cf0" y="246.986906"/>
      </g>
     </g>
    </g>
    <g id="xtick_29">
     <g id="line2d_32">
      <g>
       <use style="stroke:#000000;stroke-width:0.8;" x="235.279131" xlink:href="#m4098044cf0" y="246.986906"/>
      </g>
     </g>
     <g id="text_27">
      <!-- 13 -->
      <g transform="translate(228.916631 261.585344)scale(0.1 -0.1)">
       <use xlink:href="#DejaVuSans-49"/>
       <use x="63.623047" xlink:href="#DejaVuSans-51"/>
      </g>
     </g>
    </g>
    <g id="xtick_30">
     <g id="line2d_33">
      <g>
       <use style="stroke:#000000;stroke-width:0.8;" x="250.753708" xlink:href="#m4098044cf0" y="246.986906"/>
      </g>
     </g>
    </g>
    <g id="xtick_31">
     <g id="line2d_34">
      <g>
       <use style="stroke:#000000;stroke-width:0.8;" x="266.228284" xlink:href="#m4098044cf0" y="246.986906"/>
      </g>
     </g>
     <g id="text_28">
      <!-- 16 -->
      <g transform="translate(259.865784 261.585344)scale(0.1 -0.1)">
       <use xlink:href="#DejaVuSans-49"/>
       <use x="63.623047" xlink:href="#DejaVuSans-54"/>
      </g>
     </g>
    </g>
    <g id="text_29">
     <!-- number of nuclei neighbors -->
     <g transform="translate(88.992969 275.263469)scale(0.1 -0.1)">
      <use xlink:href="#DejaVuSans-110"/>
      <use x="63.378906" xlink:href="#DejaVuSans-117"/>
      <use x="126.757812" xlink:href="#DejaVuSans-109"/>
      <use x="224.169922" xlink:href="#DejaVuSans-98"/>
      <use x="287.646484" xlink:href="#DejaVuSans-101"/>
      <use x="349.169922" xlink:href="#DejaVuSans-114"/>
      <use x="390.283203" xlink:href="#DejaVuSans-32"/>
      <use x="422.070312" xlink:href="#DejaVuSans-111"/>
      <use x="483.251953" xlink:href="#DejaVuSans-102"/>
      <use x="518.457031" xlink:href="#DejaVuSans-32"/>
      <use x="550.244141" xlink:href="#DejaVuSans-110"/>
      <use x="613.623047" xlink:href="#DejaVuSans-117"/>
      <use x="677.001953" xlink:href="#DejaVuSans-99"/>
      <use x="731.982422" xlink:href="#DejaVuSans-108"/>
      <use x="759.765625" xlink:href="#DejaVuSans-101"/>
      <use x="821.289062" xlink:href="#DejaVuSans-105"/>
      <use x="849.072266" xlink:href="#DejaVuSans-32"/>
      <use x="880.859375" xlink:href="#DejaVuSans-110"/>
      <use x="944.238281" xlink:href="#DejaVuSans-101"/>
      <use x="1005.761719" xlink:href="#DejaVuSans-105"/>
      <use x="1033.544922" xlink:href="#DejaVuSans-103"/>
      <use x="1097.021484" xlink:href="#DejaVuSans-104"/>
      <use x="1160.400391" xlink:href="#DejaVuSans-98"/>
      <use x="1223.876953" xlink:href="#DejaVuSans-111"/>
      <use x="1285.058594" xlink:href="#DejaVuSans-114"/>
      <use x="1326.171875" xlink:href="#DejaVuSans-115"/>
     </g>
    </g>
   </g>
   <g id="matplotlib.axis_4">
    <g id="ytick_4">
     <g id="line2d_35">
      <g>
       <use style="stroke:#000000;stroke-width:0.8;" x="43.78125" xlink:href="#m30bfcea656" y="246.986906"/>
      </g>
     </g>
     <g id="text_30">
      <!-- 0.0 -->
      <g transform="translate(20.878125 250.786125)scale(0.1 -0.1)">
       <use xlink:href="#DejaVuSans-48"/>
       <use x="63.623047" xlink:href="#DejaVuSans-46"/>
       <use x="95.410156" xlink:href="#DejaVuSans-48"/>
      </g>
     </g>
    </g>
    <g id="ytick_5">
     <g id="line2d_36">
      <g>
       <use style="stroke:#000000;stroke-width:0.8;" x="43.78125" xlink:href="#m30bfcea656" y="200.979287"/>
      </g>
     </g>
     <g id="text_31">
      <!-- 0.5 -->
      <g transform="translate(20.878125 204.778506)scale(0.1 -0.1)">
       <use xlink:href="#DejaVuSans-48"/>
       <use x="63.623047" xlink:href="#DejaVuSans-46"/>
       <use x="95.410156" xlink:href="#DejaVuSans-53"/>
      </g>
     </g>
    </g>
    <g id="ytick_6">
     <g id="line2d_37">
      <g>
       <use style="stroke:#000000;stroke-width:0.8;" x="43.78125" xlink:href="#m30bfcea656" y="154.971668"/>
      </g>
     </g>
     <g id="text_32">
      <!-- 1.0 -->
      <g transform="translate(20.878125 158.770887)scale(0.1 -0.1)">
       <use xlink:href="#DejaVuSans-49"/>
       <use x="63.623047" xlink:href="#DejaVuSans-46"/>
       <use x="95.410156" xlink:href="#DejaVuSans-48"/>
      </g>
     </g>
    </g>
    <g id="text_33">
     <!-- El angle of neighbors -->
     <g transform="translate(14.798438 251.557812)rotate(-90)scale(0.1 -0.1)">
      <use xlink:href="#DejaVuSans-69"/>
      <use x="63.183594" xlink:href="#DejaVuSans-108"/>
      <use x="90.966797" xlink:href="#DejaVuSans-32"/>
      <use x="122.753906" xlink:href="#DejaVuSans-97"/>
      <use x="184.033203" xlink:href="#DejaVuSans-110"/>
      <use x="247.412109" xlink:href="#DejaVuSans-103"/>
      <use x="310.888672" xlink:href="#DejaVuSans-108"/>
      <use x="338.671875" xlink:href="#DejaVuSans-101"/>
      <use x="400.195312" xlink:href="#DejaVuSans-32"/>
      <use x="431.982422" xlink:href="#DejaVuSans-111"/>
      <use x="493.164062" xlink:href="#DejaVuSans-102"/>
      <use x="528.369141" xlink:href="#DejaVuSans-32"/>
      <use x="560.15625" xlink:href="#DejaVuSans-110"/>
      <use x="623.535156" xlink:href="#DejaVuSans-101"/>
      <use x="685.058594" xlink:href="#DejaVuSans-105"/>
      <use x="712.841797" xlink:href="#DejaVuSans-103"/>
      <use x="776.318359" xlink:href="#DejaVuSans-104"/>
      <use x="839.697266" xlink:href="#DejaVuSans-98"/>
      <use x="903.173828" xlink:href="#DejaVuSans-111"/>
      <use x="964.355469" xlink:href="#DejaVuSans-114"/>
      <use x="1005.46875" xlink:href="#DejaVuSans-115"/>
     </g>
    </g>
   </g>
   <g id="patch_201">
    <path d="M 43.78125 246.986906 
L 43.78125 150.370906 
" style="fill:none;stroke:#000000;stroke-linecap:square;stroke-linejoin:miter;stroke-width:0.8;"/>
   </g>
   <g id="patch_202">
    <path d="M 272.03125 246.986906 
L 272.03125 150.370906 
" style="fill:none;stroke:#000000;stroke-linecap:square;stroke-linejoin:miter;stroke-width:0.8;"/>
   </g>
   <g id="patch_203">
    <path d="M 43.78125 246.986906 
L 272.03125 246.986906 
" style="fill:none;stroke:#000000;stroke-linecap:square;stroke-linejoin:miter;stroke-width:0.8;"/>
   </g>
   <g id="patch_204">
    <path d="M 43.78125 150.370906 
L 272.03125 150.370906 
" style="fill:none;stroke:#000000;stroke-linecap:square;stroke-linejoin:miter;stroke-width:0.8;"/>
   </g>
   <g id="legend_2">
    <g id="patch_205">
     <path d="M 281.792188 217.791801 
L 324.89375 217.791801 
Q 326.09375 217.791801 326.09375 216.591801 
L 326.09375 151.672426 
Q 326.09375 150.472426 324.89375 150.472426 
L 281.792188 150.472426 
Q 280.592188 150.472426 280.592188 151.672426 
L 280.592188 216.591801 
Q 280.592188 217.791801 281.792188 217.791801 
z
" style="fill:#ffffff;opacity:0.8;stroke:#cccccc;stroke-linejoin:miter;"/>
    </g>
    <g id="text_34">
     <!-- Clusters -->
     <g transform="translate(282.992188 160.470864)scale(0.1 -0.1)">
      <defs>
       <path d="M 18.3125 70.21875 
L 18.3125 54.6875 
L 36.8125 54.6875 
L 36.8125 47.703125 
L 18.3125 47.703125 
L 18.3125 18.015625 
Q 18.3125 11.328125 20.140625 9.421875 
Q 21.96875 7.515625 27.59375 7.515625 
L 36.8125 7.515625 
L 36.8125 0 
L 27.59375 0 
Q 17.1875 0 13.234375 3.875 
Q 9.28125 7.765625 9.28125 18.015625 
L 9.28125 47.703125 
L 2.6875 47.703125 
L 2.6875 54.6875 
L 9.28125 54.6875 
L 9.28125 70.21875 
z
" id="DejaVuSans-116"/>
      </defs>
      <use xlink:href="#DejaVuSans-67"/>
      <use x="69.824219" xlink:href="#DejaVuSans-108"/>
      <use x="97.607422" xlink:href="#DejaVuSans-117"/>
      <use x="160.986328" xlink:href="#DejaVuSans-115"/>
      <use x="213.085938" xlink:href="#DejaVuSans-116"/>
      <use x="252.294922" xlink:href="#DejaVuSans-101"/>
      <use x="313.818359" xlink:href="#DejaVuSans-114"/>
      <use x="354.931641" xlink:href="#DejaVuSans-115"/>
     </g>
    </g>
    <g id="patch_206">
     <path d="M 283.711719 170.109614 
L 295.711719 170.109614 
L 295.711719 165.909614 
L 283.711719 165.909614 
z
" style="fill:#bfbf00;"/>
    </g>
    <g id="text_35">
     <!-- 0-&lt;15 -->
     <g transform="translate(300.511719 170.109614)scale(0.06 -0.06)">
      <use xlink:href="#DejaVuSans-48"/>
      <use x="63.623047" xlink:href="#DejaVuSans-45"/>
      <use x="99.707031" xlink:href="#DejaVuSans-60"/>
      <use x="183.496094" xlink:href="#DejaVuSans-49"/>
      <use x="247.119141" xlink:href="#DejaVuSans-53"/>
     </g>
    </g>
    <g id="patch_207">
     <path d="M 283.711719 178.916489 
L 295.711719 178.916489 
L 295.711719 174.716489 
L 283.711719 174.716489 
z
" style="fill:#00bfbf;"/>
    </g>
    <g id="text_36">
     <!-- 15-&lt;30 -->
     <g transform="translate(300.511719 178.916489)scale(0.06 -0.06)">
      <use xlink:href="#DejaVuSans-49"/>
      <use x="63.623047" xlink:href="#DejaVuSans-53"/>
      <use x="127.246094" xlink:href="#DejaVuSans-45"/>
      <use x="163.330078" xlink:href="#DejaVuSans-60"/>
      <use x="247.119141" xlink:href="#DejaVuSans-51"/>
      <use x="310.742188" xlink:href="#DejaVuSans-48"/>
     </g>
    </g>
    <g id="patch_208">
     <path d="M 283.711719 187.723364 
L 295.711719 187.723364 
L 295.711719 183.523364 
L 283.711719 183.523364 
z
" style="fill:#008000;"/>
    </g>
    <g id="text_37">
     <!-- 30-&lt;45 -->
     <g transform="translate(300.511719 187.723364)scale(0.06 -0.06)">
      <use xlink:href="#DejaVuSans-51"/>
      <use x="63.623047" xlink:href="#DejaVuSans-48"/>
      <use x="127.246094" xlink:href="#DejaVuSans-45"/>
      <use x="163.330078" xlink:href="#DejaVuSans-60"/>
      <use x="247.119141" xlink:href="#DejaVuSans-52"/>
      <use x="310.742188" xlink:href="#DejaVuSans-53"/>
     </g>
    </g>
    <g id="patch_209">
     <path d="M 283.711719 196.530239 
L 295.711719 196.530239 
L 295.711719 192.330239 
L 283.711719 192.330239 
z
" style="fill:#bf00bf;"/>
    </g>
    <g id="text_38">
     <!-- 45-&lt;60 -->
     <g transform="translate(300.511719 196.530239)scale(0.06 -0.06)">
      <use xlink:href="#DejaVuSans-52"/>
      <use x="63.623047" xlink:href="#DejaVuSans-53"/>
      <use x="127.246094" xlink:href="#DejaVuSans-45"/>
      <use x="163.330078" xlink:href="#DejaVuSans-60"/>
      <use x="247.119141" xlink:href="#DejaVuSans-54"/>
      <use x="310.742188" xlink:href="#DejaVuSans-48"/>
     </g>
    </g>
    <g id="patch_210">
     <path d="M 283.711719 205.337114 
L 295.711719 205.337114 
L 295.711719 201.137114 
L 283.711719 201.137114 
z
" style="fill:#ff0000;"/>
    </g>
    <g id="text_39">
     <!-- 60-&lt;75 -->
     <g transform="translate(300.511719 205.337114)scale(0.06 -0.06)">
      <use xlink:href="#DejaVuSans-54"/>
      <use x="63.623047" xlink:href="#DejaVuSans-48"/>
      <use x="127.246094" xlink:href="#DejaVuSans-45"/>
      <use x="163.330078" xlink:href="#DejaVuSans-60"/>
      <use x="247.119141" xlink:href="#DejaVuSans-55"/>
      <use x="310.742188" xlink:href="#DejaVuSans-53"/>
     </g>
    </g>
    <g id="patch_211">
     <path d="M 283.711719 214.143989 
L 295.711719 214.143989 
L 295.711719 209.943989 
L 283.711719 209.943989 
z
" style="fill:#0000ff;"/>
    </g>
    <g id="text_40">
     <!-- 75-90 -->
     <g transform="translate(300.511719 214.143989)scale(0.06 -0.06)">
      <use xlink:href="#DejaVuSans-55"/>
      <use x="63.623047" xlink:href="#DejaVuSans-53"/>
      <use x="127.246094" xlink:href="#DejaVuSans-45"/>
      <use x="163.330078" xlink:href="#DejaVuSans-57"/>
      <use x="226.953125" xlink:href="#DejaVuSans-48"/>
     </g>
    </g>
   </g>
  </g>
 </g>
 <defs>
  <clipPath id="p0f57ff5e7a">
   <rect height="96.616" width="228.25" x="43.78125" y="11.770906"/>
  </clipPath>
  <clipPath id="padab02ae2c">
   <rect height="96.616" width="228.25" x="43.78125" y="150.370906"/>
  </clipPath>
 </defs>
</svg>
